<svg width="22" height="19" viewBox="0 0 22 19" fill="none" xmlns="http://www.w3.org/2000/svg">
<path d="M9.59939 18.5391C9.53573 18.5391 9.47275 18.526 9.41443 18.5004C9.3561 18.4749 9.30369 18.4376 9.26048 18.3909L0.12262 8.50632C0.0617051 8.44042 0.0213221 8.35819 0.00641375 8.2697C-0.00849456 8.18121 0.00271847 8.09029 0.0386806 8.00807C0.0746428 7.92585 0.133794 7.8559 0.208895 7.80677C0.283996 7.75765 0.371788 7.73149 0.461528 7.73149H4.85999C4.92603 7.7315 4.9913 7.74567 5.0514 7.77305C5.11149 7.80043 5.16502 7.84038 5.20836 7.89021L8.26227 11.4036C8.59231 10.6981 9.23122 9.52341 10.3524 8.09199C12.0099 5.97584 15.0929 2.86364 20.3675 0.0541612C20.4694 -0.000128564 20.5881 -0.0142189 20.6999 0.0146726C20.8117 0.0435641 20.9086 0.113337 20.9715 0.210215C21.0344 0.307092 21.0587 0.424031 21.0396 0.537941C21.0205 0.651852 20.9593 0.754453 20.8683 0.825484C20.8481 0.841223 18.8144 2.44276 16.4739 5.37625C14.3198 8.07579 11.4563 12.4899 10.0473 18.1886C10.0225 18.2887 9.96495 18.3776 9.88374 18.4412C9.80254 18.5048 9.70238 18.5393 9.59925 18.5393L9.59939 18.5391Z" fill="#160A05"/>
</svg>
