<svg width="150" height="150" viewBox="0 0 150 150" fill="none" xmlns="http://www.w3.org/2000/svg">
<path d="M68.8267 4.87061C72.4467 2.01449 77.5533 2.01449 81.1734 4.87061C83.8979 7.02022 87.5445 7.59778 90.8 6.39532C95.1254 4.79764 99.9821 6.37567 102.542 10.2107C104.469 13.097 107.759 14.7731 111.227 14.6355C115.834 14.4527 119.965 17.4543 121.215 21.8927C122.156 25.2333 124.767 27.8439 128.107 28.7846C132.546 30.0345 135.547 34.1659 135.365 38.7733C135.227 42.2411 136.903 45.5307 139.789 47.4576C143.624 50.0179 145.202 54.8746 143.605 59.2C142.402 62.4555 142.98 66.1021 145.129 68.8267C147.986 72.4467 147.986 77.5533 145.129 81.1734C142.98 83.8979 142.402 87.5445 143.605 90.8C145.202 95.1254 143.624 99.9821 139.789 102.542C136.903 104.469 135.227 107.759 135.365 111.227C135.547 115.834 132.546 119.965 128.107 121.215C124.767 122.156 122.156 124.767 121.215 128.107C119.965 132.546 115.834 135.547 111.227 135.365C107.759 135.227 104.469 136.903 102.542 139.789C99.9821 143.624 95.1254 145.202 90.8 143.605C87.5445 142.402 83.8979 142.98 81.1734 145.129C77.5533 147.986 72.4467 147.986 68.8267 145.129C66.1021 142.98 62.4555 142.402 59.2 143.605C54.8746 145.202 50.0179 143.624 47.4576 139.789C45.5307 136.903 42.2411 135.227 38.7733 135.365C34.1659 135.547 30.0345 132.546 28.7846 128.107C27.8439 124.767 25.2333 122.156 21.8927 121.215C17.4543 119.965 14.4527 115.834 14.6355 111.227C14.7731 107.759 13.097 104.469 10.2107 102.542C6.37567 99.9821 4.79764 95.1254 6.39532 90.8C7.59778 87.5445 7.02022 83.8979 4.87061 81.1734C2.01449 77.5533 2.01449 72.4467 4.87061 68.8267C7.02022 66.1021 7.59778 62.4555 6.39532 59.2C4.79764 54.8746 6.37567 50.0179 10.2107 47.4576C13.097 45.5307 14.7731 42.2411 14.6355 38.7733C14.4527 34.1659 17.4543 30.0345 21.8927 28.7846C25.2333 27.8439 27.8439 25.2333 28.7846 21.8927C30.0345 17.4543 34.1659 14.4527 38.7733 14.6355C42.2411 14.7731 45.5307 13.097 47.4576 10.2107C50.0179 6.37567 54.8746 4.79764 59.2 6.39532C62.4555 7.59778 66.1021 7.02022 68.8267 4.87061Z" fill="white"/>
<path d="M79.8899 32H77.8879L77.1179 29.746H73.5759L72.8059 32H70.8319L74.2059 22.76H76.5159L79.8899 32ZM74.0099 28.318H76.6839L75.3399 24.286L74.0099 28.318Z" fill="#160A05"/>
<path d="M85.7728 33.1534L86.2307 23.5412L88.1772 24.2095L87.4211 32.017L91.6465 25.4004L93.3944 26.0005L92.6912 33.8262L96.8769 27.196L98.7439 27.837L93.2013 35.7035L91.1489 34.9989L91.5672 29.8138L91.8658 27.6072L91.8393 27.5981L90.7197 29.5229L87.8782 33.8761L85.7728 33.1534Z" fill="#160A05"/>
<path d="M105.495 44.0528L103.915 42.8232L104.692 40.5715L101.897 38.396L99.9046 39.7018L98.3468 38.4893L106.685 33.27L108.508 34.6889L105.495 44.0528ZM103.116 37.5357L105.226 39.1781L106.642 35.1708L103.116 37.5357Z" fill="#160A05"/>
<path d="M119.304 46.902C119.876 47.7771 120.114 48.6026 120.019 49.3783C119.924 50.154 119.521 50.7741 118.81 51.2387C118.052 51.7339 117.306 51.8641 116.573 51.6295C115.848 51.3898 115.202 50.8363 114.635 49.969L114.434 49.8662L113.347 48.2019L110.382 50.1391L109.34 48.5452L117.076 43.4914L119.304 46.902ZM115.642 49.027C115.938 49.4802 116.247 49.7574 116.57 49.8588C116.906 49.9629 117.265 49.8899 117.648 49.6397C118.031 49.3896 118.238 49.0925 118.27 48.7485C118.314 48.4072 118.188 48.01 117.892 47.5568L116.828 45.9277L114.578 47.3979L115.642 49.027ZM115.922 50.1984L113.705 55.2258L112.518 53.4091L114.55 49.1217L115.922 50.1984Z" fill="#160A05"/>
<path d="M125.876 61.9912C126.231 63.3936 126.117 64.5778 125.534 65.5439C124.96 66.5077 123.953 67.1718 122.515 67.5361C121.085 67.8981 119.884 67.7931 118.911 67.2211C117.938 66.6491 117.274 65.6618 116.919 64.2594L116.043 60.7987L125 58.5304L125.876 61.9912ZM118.388 63.7864C118.603 64.6369 119.018 65.2106 119.632 65.5075C120.258 65.8112 121.055 65.8405 122.023 65.5953C122.991 65.3502 123.674 64.9463 124.07 64.3837C124.478 63.8279 124.575 63.1247 124.359 62.2742L123.981 60.7813L118.01 62.2935L118.388 63.7864Z" fill="#160A05"/>
<path d="M118.459 75.0215L127.89 73.1057L127.72 75.1567L119.966 76.3404L127.417 78.8122L127.264 80.6538L119.506 81.8934L126.96 84.3233L126.797 86.2905L117.811 82.8487L117.99 80.6861L123.119 79.8187L125.332 79.5665L125.334 79.5386L123.193 78.9257L118.276 77.2399L118.459 75.0215Z" fill="#160A05"/>
<path d="M122.633 97.2689L114.171 93.5573L114.947 91.788L123.409 95.4996L122.633 97.2689Z" fill="#160A05"/>
<path d="M111.03 113.445L104.232 107.187L105.73 105.559L111.917 106.859L113.57 107.296L113.58 107.286L112.367 106.246L108.433 102.624L109.609 101.347L116.407 107.605L114.918 109.222L108.742 107.932L107.078 107.485L107.059 107.506L108.271 108.546L112.206 112.168L111.03 113.445Z" fill="#160A05"/>
<path d="M96.6326 122.994L92.2348 114.868L94.1802 113.815L99.6098 117.053L101.031 118.003L101.044 117.997L100.235 116.62L97.6893 111.916L99.2161 111.09L103.614 119.216L101.681 120.262L96.2579 117.037L94.8298 116.074L94.8051 116.088L95.614 117.465L98.1594 122.168L96.6326 122.994Z" fill="#160A05"/>
<path d="M82.5801 126.909L81.0592 117.795L82.9649 117.477L84.4858 126.591L82.5801 126.909Z" fill="#160A05"/>
<path d="M62.6938 126.046L64.2147 116.932L66.3965 117.296L68.6924 123.187L69.2306 124.809L69.2444 124.812L69.4519 123.228L70.3321 117.953L72.0444 118.239L70.5236 127.353L68.3556 126.991L66.0574 121.115L65.5215 119.478L65.4939 119.473L65.2864 121.057L64.4062 126.332L62.6938 126.046Z" fill="#160A05"/>
<path d="M54.8287 112.886C55.5756 113.291 56.1435 113.81 56.5321 114.445C56.9126 115.075 57.09 115.787 57.0643 116.58C57.0387 117.372 56.7882 118.208 56.3128 119.086C55.842 119.956 55.2736 120.614 54.6076 121.06C53.9372 121.515 53.2114 121.748 52.43 121.76C51.6405 121.768 50.8476 121.557 50.0514 121.126C49.1731 120.65 48.5519 120.102 48.1878 119.481C47.8193 118.867 47.6593 118.133 47.7079 117.279L49.6504 117.454C49.5463 117.961 49.5988 118.403 49.8078 118.781C50.0043 119.164 50.3323 119.479 50.792 119.728C51.2517 119.977 51.7097 120.081 52.1662 120.042C52.6183 120.01 53.0479 119.834 53.455 119.513C53.8577 119.201 54.2212 118.745 54.5455 118.146C54.8786 117.53 55.0745 116.962 55.1331 116.442C55.1873 115.93 55.1039 115.476 54.8828 115.081C54.6491 114.689 54.2819 114.358 53.7812 114.087C53.5103 113.94 53.2422 113.837 52.9768 113.779C52.7032 113.715 52.4447 113.703 52.2013 113.741C51.9578 113.779 51.7313 113.874 51.5218 114.026C51.3122 114.178 51.1341 114.389 50.9875 114.66L50.8876 114.845L53.0177 115.997L52.3447 117.241L48.7494 115.295L51.0682 111.011L52.2626 111.657L51.4262 113.497L51.2439 113.127C51.7177 112.683 52.2644 112.438 52.884 112.391C53.4909 112.348 54.1391 112.513 54.8287 112.886Z" fill="#160A05"/>
<path d="M38.4964 102.582C39.056 102.308 39.613 102.176 40.1675 102.186C40.7219 102.195 41.2482 102.326 41.7464 102.578C42.2446 102.83 42.7055 103.186 43.129 103.646C43.7485 104.319 44.145 105.032 44.3186 105.785C44.4859 106.532 44.4319 107.28 44.1565 108.028C43.8749 108.769 43.3701 109.475 42.6422 110.145C41.9143 110.815 41.1694 111.26 40.4073 111.479C39.6389 111.692 38.8895 111.684 38.1591 111.456C37.4225 111.22 36.7507 110.773 36.1438 110.114C35.714 109.647 35.3905 109.165 35.1733 108.667C34.9492 108.175 34.8475 107.679 34.8683 107.178C34.8827 106.67 35.0321 106.171 35.3166 105.681L37.0478 106.466C36.7432 106.962 36.6157 107.409 36.6653 107.807C36.708 108.212 36.9032 108.603 37.2509 108.981C37.5922 109.352 37.9818 109.596 38.4195 109.713C38.8509 109.823 39.3112 109.793 39.8005 109.621C40.2829 109.456 40.7781 109.14 41.2863 108.672C41.7876 108.211 42.1501 107.75 42.3739 107.29C42.5913 106.824 42.6629 106.371 42.5886 105.932C42.5143 105.493 42.2938 105.074 41.9272 104.676C41.5858 104.305 41.1923 104.078 40.7466 103.993C40.2946 103.902 39.8155 103.988 39.3092 104.251L38.4964 102.582Z" fill="#160A05"/>
<path d="M27.0433 95.8816C26.6758 95.0439 26.5343 94.2448 26.6185 93.4843C26.7027 92.7237 26.9984 92.0386 27.5055 91.4288C28.0089 90.8105 28.7136 90.3027 29.6196 89.9053C30.5256 89.5079 31.3765 89.3334 32.1723 89.3818C32.9644 89.4217 33.6687 89.6682 34.2854 90.1213C34.902 90.5744 35.394 91.2198 35.7614 92.0574C36.1289 92.8951 36.2723 93.6984 36.1918 94.4675C36.1076 95.2281 35.8138 95.9175 35.3104 96.5358C34.8033 97.1455 34.0967 97.6491 33.1907 98.0465C32.2847 98.4439 31.4357 98.6227 30.6436 98.5828C29.8478 98.5344 29.1416 98.2837 28.525 97.8305C27.9046 97.3688 27.4107 96.7192 27.0433 95.8816ZM28.492 95.2461C28.702 95.7247 28.9912 96.082 29.3596 96.3178C29.7281 96.5537 30.1696 96.6658 30.6843 96.6541C31.1866 96.6375 31.754 96.4906 32.3865 96.2131C33.0105 95.9394 33.5029 95.6215 33.8638 95.2594C34.221 94.8887 34.4376 94.4879 34.5136 94.0571C34.5896 93.6263 34.5226 93.1716 34.3127 92.6929C34.1065 92.2228 33.8192 91.8698 33.4507 91.634C33.0823 91.3981 32.6426 91.2903 32.1317 91.3106C31.6171 91.3223 31.0478 91.465 30.4238 91.7387C29.7913 92.0161 29.3008 92.3383 28.9521 92.7052C28.5912 93.0674 28.3727 93.4639 28.2967 93.8947C28.2207 94.3255 28.2858 94.776 28.492 95.2461Z" fill="#160A05"/>
<path d="M22.6328 74.0963L31.8412 73.3333L31.9858 75.0773L27.1862 75.475L24.4853 75.6005L24.4877 75.6284L32.1915 77.5608L32.3222 79.1374L25.0403 82.2975L25.0426 82.3254L27.7273 82.0046L32.5268 81.6069L32.6713 83.351L23.4629 84.114L23.2317 81.3236L28.1169 79.247L30.1472 78.4888L30.1449 78.4609L28.0302 78.0321L22.8571 76.803L22.6328 74.0963Z" fill="#160A05"/>
<path d="M24.6268 61.7019C24.8009 61.0143 25.0675 60.456 25.4264 60.027C25.7764 59.5957 26.2017 59.3038 26.7024 59.1514C27.1964 58.9877 27.7465 58.9825 28.3527 59.1361C28.9589 59.2896 29.4448 59.557 29.8103 59.9384C30.1691 60.3085 30.4043 60.7676 30.5158 61.3158C30.6183 61.8616 30.5824 62.4784 30.4083 63.166L29.9306 65.0524L33.1063 65.8566L32.6321 67.7295L23.6748 65.4613L24.6268 61.7019ZM28.8568 63.0764C28.9989 62.5154 28.9878 62.0649 28.8236 61.7249C28.6503 61.3825 28.333 61.1529 27.8715 61.0361C27.4011 60.9169 27.0127 60.9678 26.7064 61.1887C26.4001 61.4096 26.176 61.8006 26.0339 62.3615L25.6284 63.963L28.4513 64.6778L28.8568 63.0764Z" fill="#160A05"/>
<path d="M41.7929 47.4764L40.6979 49.1524L38.3897 48.5642L36.4524 51.5294L37.9183 53.4068L36.8386 55.0594L30.9486 47.181L32.212 45.2472L41.7929 47.4764ZM35.4943 50.385L36.9569 48.1465L32.8463 47.0663L35.4943 50.385Z" fill="#160A05"/>
<path d="M46.2067 31.357L51.8821 38.6486L50.1365 40.0072L44.248 37.707L42.6896 37.0039L42.6785 37.0125L43.703 38.2376L46.9878 42.4579L45.6179 43.5242L39.9425 36.2326L41.677 34.8825L47.557 37.1717L49.124 37.8858L49.1461 37.8686L48.1216 36.6435L44.8368 32.4232L46.2067 31.357Z" fill="#160A05"/>
<path d="M62.5221 24.1199L61.3011 30.6524L62.4239 33.923L60.5966 34.5503L59.4737 31.2797L54.4978 26.8747L56.4443 26.2064L58.748 28.3464L59.8783 29.483L60.0854 27.8873L60.5889 24.7836L62.5221 24.1199Z" fill="#160A05"/>
</svg>
