<svg width="54" height="60" viewBox="0 0 54 60" fill="none" xmlns="http://www.w3.org/2000/svg">
<path d="M54 50V8C53.995 3.58378 50.4162 0.00495988 46 0H8C3.58378 0.00495988 0.00495988 3.58378 0 8V48C0.00516417 51.6464 2.47076 54.8299 6 55.747V57C6 58.6569 7.34315 60 9 60H44C49.5203 59.9939 53.9939 55.5203 54 50ZM8 2H42.7L2 29.132V8C2.00331 4.68766 4.68766 2.00331 8 2ZM45 2.868V29C45 29.5523 44.5523 30 44 30H4.3L45 2.868ZM2 32H44C45.6569 32 47 30.6569 47 29V2.09C49.8833 2.57987 51.9946 5.07538 52 8V44.026C50.119 41.4957 47.1529 40.003 44 40H8C5.70056 40.0013 3.51355 40.9949 2 42.726V32ZM8 57V56H44C47.3137 56 50 53.3137 50 50C50 46.6863 47.3137 44 44 44H8C5.79086 44 4 45.7909 4 48C4 50.2091 5.79086 52 8 52H44C44.5523 52 45 51.5523 45 51C45 50.4477 44.5523 50 44 50H8C6.89543 50 6 49.1046 6 48C6 46.8954 6.89543 46 8 46H44C46.2091 46 48 47.7909 48 50C48 52.2091 46.2091 54 44 54H8C4.68629 54 2 51.3137 2 48C2 44.6863 4.68629 42 8 42H44C48.4183 42 52 45.5817 52 50C52 54.4183 48.4183 58 44 58H9C8.44772 58 8 57.5523 8 57Z" fill="#FF6726"/>
</svg>
