<svg width="53" height="65" viewBox="0 0 53 65" fill="none" xmlns="http://www.w3.org/2000/svg">
<path d="M1.6672 54.6813L0.0963617 60.9646C-0.145415 61.9354 0.0733994 62.9634 0.689565 63.7516C1.30573 64.5398 2.25057 65.0003 3.25103 65H49.7C50.701 65.0002 51.6463 64.5392 52.2623 63.7502C52.8784 62.9612 53.0965 61.9324 52.8536 60.9613L51.2828 54.678C50.573 51.81 48.595 49.4217 45.9095 48.1899L44.0938 47.3514C46.3583 46.07 48.1249 44.063 49.1085 41.6542C49.3198 41.2329 49.2346 40.7234 48.8976 40.3939C48.5607 40.0645 48.0495 39.9906 47.633 40.2112C46.7631 40.4883 45.8117 40.2925 45.1219 39.6944C44.3776 39.1213 43.2152 37.7325 43.7872 34.8758C44.323 31.9426 43.8978 28.9148 42.575 26.2427C43.4783 24.8946 43.912 23.2862 43.8089 21.6667C43.9592 20.1738 43.4273 18.6928 42.3615 17.6367C41.8659 17.2425 41.2655 17.0026 40.6347 16.9466C40.9066 15.0323 41.4299 8.90717 37.8299 4.51533C35.374 1.51667 31.5542 0 26.4755 0C21.3969 0 17.577 1.51667 15.1211 4.51533C11.5212 8.90717 12.0444 15.0323 12.3164 16.9477C11.6856 17.0028 11.085 17.2424 10.5895 17.6367C9.52377 18.6928 8.99191 20.1738 9.1422 21.6667C9.0383 23.2873 9.47202 24.8969 10.3761 26.2459C9.0523 28.9193 8.62712 31.9488 9.16386 34.8833C9.73586 37.7401 8.57345 39.1289 7.8292 39.702C7.14866 40.287 6.21836 40.488 5.35703 40.2361C4.95325 40.0042 4.44649 40.0563 4.09832 40.3655C3.75015 40.6746 3.63844 41.1716 3.82086 41.6C4.79811 44.0351 6.57508 46.065 8.85945 47.3558L7.04161 48.1953C4.35614 49.4264 2.37783 51.8138 1.6672 54.6813ZM16.7255 46.1099V54.1667H13.4755V47.6092L16.7255 46.1099ZM14.6228 19.7058C15.9575 20.3288 17.42 20.6293 18.8922 20.5833C20.4836 20.6266 22.0714 20.4096 23.5928 19.9409C25.4696 19.3529 27.4814 19.3529 29.3583 19.9409C30.8797 20.4096 32.4675 20.6266 34.0589 20.5833C35.5311 20.6293 36.9935 20.3288 38.3283 19.7058C37.9979 25.9838 36.0999 37.9167 26.4755 37.9167C16.8512 37.9167 14.9532 25.9838 14.6228 19.7058ZM26.4755 15.1667C26.5514 15.1667 33.5475 15.2013 37.778 17.5294C36.6518 18.1828 35.3587 18.4913 34.0589 18.4167C32.671 18.4582 31.2858 18.2696 29.9595 17.8588C27.6897 17.1582 25.2614 17.1582 22.9915 17.8588C21.6652 18.2696 20.2801 18.4582 18.8922 18.4167C17.5919 18.4909 16.2982 18.1829 15.1709 17.5305C19.4014 15.2013 26.3997 15.1667 26.4755 15.1667ZM26.4755 40.0833C28.0471 40.0999 29.6066 39.8076 31.0656 39.2232C31.3633 41.1337 32.1888 42.9231 33.449 44.3896C29.2617 47.3146 23.6937 47.3146 19.5064 44.3896C20.7649 42.9207 21.5867 41.1287 21.8789 39.2167C23.3395 39.804 24.9013 40.0985 26.4755 40.0833ZM26.4755 48.75C29.1565 48.7534 31.7844 48.0026 34.0589 46.5833V54.1667H18.8922V46.5833C21.1667 48.0026 23.7946 48.7534 26.4755 48.75ZM39.4755 54.1667H36.2255V46.1099L39.4755 47.6092V54.1667ZM13.4755 62.8333V56.3333H39.4755V62.8333H13.4755ZM49.1822 55.2067L50.752 61.49C50.8319 61.8134 50.7586 62.1556 50.5532 62.4179C50.3478 62.6802 50.0332 62.8334 49.7 62.8333H41.6422V48.6092L45.0005 50.1583C47.0899 51.1173 48.629 52.9753 49.1822 55.2067ZM43.7991 41.4148C44.5144 41.9672 45.3577 42.3298 46.2507 42.4688C45.1198 44.211 43.4176 45.5049 41.4364 46.1283L35.7055 43.4839C33.8758 42.2283 33.268 39.6132 33.072 38.1398C36.361 35.8854 38.2221 31.9724 39.2621 28.0378C39.7965 27.9676 40.3197 27.8292 40.8189 27.6261C41.7895 29.7618 42.0843 32.1431 41.6639 34.4511C41.0778 37.375 41.8589 39.9165 43.7991 41.4148ZM41.6422 21.6667C41.6422 24.3328 40.8416 25.3327 39.7864 25.7248C40.195 23.5433 40.4412 21.3345 40.5231 19.1165C40.6907 19.1437 40.8491 19.2113 40.9846 19.3137C41.5094 19.9786 41.7462 20.826 41.6422 21.6667ZM16.8035 5.88033C18.6593 3.62375 21.555 2.3985 25.3998 2.20567C25.3998 2.79979 25.8814 3.28142 26.4755 3.28142C27.0697 3.28142 27.5513 2.79979 27.5513 2.20567C31.396 2.3985 34.2918 3.62375 36.1475 5.88033C38.6685 8.94725 38.766 13.2362 38.6002 15.5274C37.1309 14.7875 35.5747 14.2346 33.9679 13.8818C33.7311 10.8589 32.5099 7.99686 30.4915 5.73408C30.0664 5.32353 29.3907 5.3294 28.9728 5.74728C28.5549 6.16516 28.5491 6.84084 28.9596 7.26592C30.4999 8.99101 31.4679 11.1508 31.7308 13.4485C29.9919 13.1746 28.2357 13.0247 26.4755 13C24.715 13.0247 22.9584 13.175 21.2192 13.4496C21.4905 11.1537 22.4579 8.99587 23.9914 7.26592C24.2731 6.99392 24.386 6.59113 24.2869 6.21237C24.1877 5.8336 23.8919 5.5378 23.5132 5.43866C23.1344 5.33952 22.7316 5.45246 22.4596 5.73408C20.434 7.99381 19.2099 10.8583 18.9767 13.884C17.3721 14.2361 15.818 14.7882 14.3509 15.5274C14.1851 13.2362 14.2826 8.94725 16.8035 5.88033ZM11.9664 19.3137C12.102 19.2116 12.2604 19.1443 12.4279 19.1176C12.5098 21.3355 12.756 23.5444 13.1646 25.7259C12.1094 25.3327 11.3089 24.3328 11.3089 21.6667C11.2034 20.8242 11.4402 19.9746 11.9664 19.3083V19.3137ZM6.70036 42.4667C7.59351 42.3281 8.43697 41.9655 9.15195 41.4126C11.0922 39.9165 11.8733 37.375 11.2872 34.45C10.8668 32.142 11.1616 29.7607 12.1322 27.625C12.6314 27.8281 13.1546 27.9665 13.6889 28.0367C14.7289 31.9692 16.5869 35.8789 19.8737 38.1344C19.6668 39.6749 19.0547 42.2413 17.2455 43.4828L11.5147 46.1283C9.53321 45.5042 7.83093 44.2095 6.70036 42.4667ZM11.3089 48.6092V62.8333H3.25103C2.9174 62.8336 2.60227 62.6801 2.39678 62.4172C2.19129 62.1544 2.11837 61.8115 2.19911 61.4878L3.76886 55.2045C4.32269 52.974 5.86168 51.1168 7.95053 50.1583L11.3089 48.6092Z" fill="#FF6726"/>
<path d="M16.7259 60.6667C17.3242 60.6667 17.8092 60.1816 17.8092 59.5833C17.8092 58.985 17.3242 58.5 16.7259 58.5C16.1276 58.5 15.6426 58.985 15.6426 59.5833C15.6426 60.1816 16.1276 60.6667 16.7259 60.6667Z" fill="#FF6726"/>
<path d="M36.2259 60.6667C36.8242 60.6667 37.3092 60.1816 37.3092 59.5833C37.3092 58.985 36.8242 58.5 36.2259 58.5C35.6276 58.5 35.1426 58.985 35.1426 59.5833C35.1426 60.1816 35.6276 60.6667 36.2259 60.6667Z" fill="#FF6726"/>
</svg>
