<svg width="60" height="60" viewBox="0 0 60 60" fill="none" xmlns="http://www.w3.org/2000/svg">
<g clip-path="url(#clip0_17854_225)">
<path d="M2.00412 30.2059C2.01196 31.5618 2.11824 32.9153 2.32212 34.2559L1.77912 33.5799C1.43339 33.1491 0.803901 33.0801 0.373119 33.4259C-0.0576632 33.7716 -0.126611 34.4011 0.219119 34.8319L3.43812 38.8419C3.8868 40.1863 4.43774 41.4945 5.08612 42.7549L4.13212 42.1549C3.66461 41.8602 3.04676 42.0003 2.75212 42.4679C2.45748 42.9354 2.59761 43.5532 3.06512 43.8479L7.49212 46.6349C8.33091 47.7692 9.25385 48.8389 10.2531 49.8349L9.15312 49.5569C8.80579 49.4666 8.43674 49.5694 8.18606 49.8262C7.93538 50.083 7.84152 50.4544 7.94011 50.7994C8.0387 51.1445 8.31462 51.4103 8.66312 51.4959L13.7441 52.7809C14.8876 53.5989 16.091 54.3296 17.3441 54.9669L16.2191 55.0419C15.8619 55.0535 15.5379 55.2548 15.3693 55.57C15.2008 55.8852 15.2132 56.2664 15.4018 56.57C15.5905 56.8736 15.9269 57.0535 16.2841 57.0419H16.3521L21.5361 56.6979C22.8827 57.1261 24.2601 57.4511 25.6561 57.6699L24.6311 58.0799C24.118 58.2848 23.8682 58.8668 24.0731 59.3799C24.278 59.8929 24.8601 60.1428 25.3731 59.9379L30.2051 57.9999C31.5614 57.992 32.9153 57.8857 34.2561 57.6819L33.5791 58.2249C33.1483 58.5706 33.0794 59.2001 33.4251 59.6309C33.7709 60.0616 34.4003 60.1306 34.8311 59.7849L38.8411 56.5659C40.1858 56.1176 41.4939 55.5667 42.7541 54.9179L42.1541 55.8729C41.86 56.3406 42.0008 56.9583 42.4686 57.2524C42.9364 57.5464 43.554 57.4056 43.8481 56.9379L46.6341 52.5119C47.7683 51.6732 48.838 50.7506 49.8341 49.7519L49.5561 50.8519C49.4659 51.1992 49.5687 51.5682 49.8254 51.8189C50.0822 52.0696 50.4537 52.1635 50.7987 52.0649C51.1438 51.9663 51.4095 51.6904 51.4951 51.3419L52.7821 46.2589C53.5986 45.1169 54.3286 43.9156 54.9661 42.6649L55.0401 43.7889C55.0749 44.3152 55.5126 44.724 56.0401 44.7229H56.1081C56.3728 44.7052 56.6197 44.583 56.7943 44.3832C56.9689 44.1835 57.057 43.9226 57.0391 43.6579L56.6951 38.4719C57.1235 37.1259 57.4485 35.7493 57.6671 34.3539L58.0771 35.3799C58.2826 35.8929 58.8651 36.1423 59.3781 35.9369C59.8912 35.7314 60.1406 35.1489 59.9351 34.6359L57.9991 29.7939C57.9913 28.4379 57.885 27.0844 57.6811 25.7439L58.2241 26.4199C58.5699 26.8506 59.1993 26.9196 59.6301 26.5739C60.0609 26.2281 60.1299 25.5986 59.7841 25.1679L56.5651 21.1579C56.1164 19.8134 55.5655 18.5052 54.9171 17.2449L55.8711 17.8449C56.3386 18.1395 56.9565 17.9994 57.2511 17.5319C57.5458 17.0643 57.4056 16.4465 56.9381 16.1519L52.5111 13.3649C51.6723 12.2305 50.7494 11.1608 49.7501 10.1649L50.8501 10.4429C51.1975 10.5331 51.5665 10.4303 51.8172 10.1735C52.0679 9.91674 52.1617 9.54532 52.0631 9.20026C51.9645 8.85521 51.6886 8.58944 51.3401 8.50385L46.2541 7.22285C45.1107 6.40486 43.9073 5.67412 42.6541 5.03685L43.7791 4.96185C44.1418 4.94637 44.4675 4.73561 44.6303 4.41118C44.7931 4.08676 44.7673 3.69961 44.5629 3.39966C44.3585 3.09971 44.0076 2.93406 43.6461 2.96685L38.4621 3.31085C37.1155 2.88257 35.7382 2.55762 34.3421 2.33885L35.3671 1.92885C35.7064 1.80198 35.9505 1.50159 36.0053 1.14356C36.0602 0.785529 35.9171 0.425842 35.6314 0.203272C35.3456 -0.0192974 34.9618 -0.0699529 34.6281 0.0708497L29.7931 2.00485C28.4369 2.01273 27.083 2.11901 25.7421 2.32285L26.4191 1.77985C26.8499 1.43412 26.9189 0.804632 26.5731 0.37385C26.2274 -0.0569325 25.5979 -0.125881 25.1671 0.21985L21.1571 3.43885C19.8125 3.8871 18.5043 4.43806 17.2441 5.08685L17.8441 4.13185C18.1382 3.66407 17.9974 3.04644 17.5296 2.75235C17.0618 2.45826 16.4442 2.59906 16.1501 3.06685L13.3651 7.49285C12.2309 8.33155 11.1613 9.25414 10.1651 10.2529L10.4431 9.15285C10.5742 8.61904 10.2499 8.07949 9.71699 7.94482C9.18407 7.81014 8.64235 8.13084 8.50412 8.66285L7.22012 13.7469C6.40364 14.8888 5.6736 16.0901 5.03612 17.3409L4.96212 16.2169C4.92539 15.6646 4.4479 15.2466 3.89562 15.2834C3.34333 15.3201 2.92539 15.7976 2.96212 16.3499L3.30612 21.5359C2.87773 22.8818 2.55278 24.2584 2.33412 25.6539L1.92412 24.6279C1.71867 24.1148 1.13619 23.8654 0.623119 24.0709C0.110046 24.2763 -0.139331 24.8588 0.066119 25.3719L2.00412 30.2059ZM29.9991 3.99985C44.3585 3.99985 55.9991 15.6404 55.9991 29.9999C55.9991 44.3593 44.3585 55.9999 29.9991 55.9999C15.6397 55.9999 3.99912 44.3593 3.99912 29.9999C4.0151 15.6471 15.6463 4.01583 29.9991 3.99985Z" fill="#FF6726"/>
<path d="M39 30C39 25.0294 34.9706 21 30 21C25.0294 21 21 25.0294 21 30C21 34.9706 25.0294 39 30 39C34.9683 38.9945 38.9945 34.9683 39 30ZM23 30C23 26.134 26.134 23 30 23C33.866 23 37 26.134 37 30C37 33.866 33.866 37 30 37C26.1358 36.9956 23.0044 33.8642 23 30Z" fill="#FF6726"/>
<path d="M35 30C35 27.2386 32.7614 25 30 25C27.2386 25 25 27.2386 25 30C25 32.7614 27.2386 35 30 35C32.7601 34.9967 34.9967 32.7601 35 30ZM27 30C27 28.3431 28.3431 27 30 27C31.6569 27 33 28.3431 33 30C33 31.6569 31.6569 33 30 33C28.3431 33 27 31.6569 27 30Z" fill="#FF6726"/>
<path d="M30 48C29.4477 48 29 48.4477 29 49C29 49.5523 29.4477 50 30 50C30.8661 49.9935 31.7309 49.9311 32.589 49.813L32.168 50.446C31.9573 50.7431 31.9249 51.1313 32.0833 51.4594C32.2417 51.7874 32.566 52.0033 32.9297 52.0229C33.2934 52.0426 33.6391 51.863 33.832 51.554L35.367 49.247C36.6214 48.8971 37.8383 48.4245 39 47.836V49C39 49.5523 39.4477 50 40 50C40.5523 50 41 49.5523 41 49V46.686C41.9557 46.0495 42.855 45.3322 43.688 44.542L44.02 46.2C44.1151 46.6657 44.5247 47.0001 45 47C45.0672 47.0004 45.1342 46.9937 45.2 46.98C45.4599 46.927 45.6882 46.7729 45.8345 46.5516C45.9807 46.3303 46.0331 46.0599 45.98 45.8L45.374 42.769C46.3175 41.6291 47.1318 40.3882 47.802 39.069L48.202 39.6C48.5334 40.0418 49.1602 40.1314 49.602 39.8C50.0438 39.4686 50.1334 38.8418 49.802 38.4L48.725 36.971C49.5644 34.7425 49.9963 32.3813 50 30C50 29.4477 49.5523 29 49 29C48.4477 29 48 29.4477 48 30C47.9884 39.9363 39.9363 47.9884 30 48Z" fill="#FF6726"/>
<path d="M8.29243 24.707L10.2924 26.707C10.1039 27.7947 10.0059 28.8961 9.99943 30C9.99943 30.5523 10.4471 31 10.9994 31C11.5517 31 11.9994 30.5523 11.9994 30C12.011 20.0637 20.0631 12.0116 29.9994 12C30.5517 12 30.9994 11.5523 30.9994 11C30.9994 10.4477 30.5517 10 29.9994 10C29.1333 10.0065 28.2685 10.069 27.4104 10.187L27.8314 9.554C28.0421 9.25686 28.0746 8.86865 27.9161 8.54065C27.7577 8.21265 27.4335 7.99674 27.0697 7.97705C26.706 7.95737 26.3603 8.13702 26.1674 8.446L24.6324 10.753C23.2719 11.1294 21.9554 11.65 20.7054 12.306L20.9704 11.241C21.1035 10.7047 20.7767 10.1621 20.2404 10.029C19.7042 9.8959 19.1615 10.2227 19.0284 10.759L18.2634 13.841C16.7391 14.9506 15.3778 16.2684 14.2194 17.756L13.9694 16.756C13.8847 16.4072 13.6195 16.1305 13.2745 16.0312C12.9296 15.9318 12.5579 16.0249 12.3005 16.2752C12.0432 16.5254 11.9397 16.8944 12.0294 17.242L12.7164 19.981C11.9068 21.3711 11.2688 22.8542 10.8164 24.398L9.70643 23.293C9.31405 22.914 8.69035 22.9194 8.30461 23.3052C7.91888 23.6909 7.91346 24.3146 8.29243 24.707Z" fill="#FF6726"/>
<path d="M31 45C31 44.4477 30.5523 44 30 44C22.2714 43.9917 16.0083 37.7286 16 30C16 29.4477 15.5523 29 15 29C14.4477 29 14 29.4477 14 30C14.0105 38.8322 21.1678 45.9895 30 46C30.2652 46 30.5196 45.8946 30.7071 45.7071C30.8946 45.5196 31 45.2652 31 45Z" fill="#FF6726"/>
<path d="M29 15C29 15.5523 29.4477 16 30 16C37.7286 16.0083 43.9917 22.2714 44 30C44 30.5523 44.4477 31 45 31C45.5523 31 46 30.5523 46 30C45.9895 21.1678 38.8322 14.0105 30 14C29.4477 14 29 14.4477 29 15Z" fill="#FF6726"/>
</g>
<defs>
<clipPath id="clip0_17854_225">
<rect width="60" height="60" fill="white"/>
</clipPath>
</defs>
</svg>
