<svg width="60" height="60" viewBox="0 0 60 60" fill="none" xmlns="http://www.w3.org/2000/svg">
<g clip-path="url(#clip0_17849_92)">
<path d="M58.4921 42.625C53.8651 40.091 50.5341 35.166 48.5921 27.988C47.634 24.4001 47.0997 20.7123 47.0001 17V2C47.0001 0.89543 46.1047 0 45.0001 0H40.0001C39.661 0.00408641 39.3479 0.182915 39.1721 0.473L39.1561 0.463C35.9171 5.552 31.4651 11 30.0001 11C28.5351 11 24.0831 5.552 20.8441 0.463L20.8281 0.473C20.6523 0.182915 20.3393 0.00408641 20.0001 0H15.0001C13.8956 0 13.0001 0.89543 13.0001 2V17C13.0001 17.193 12.8541 36.409 1.50813 42.625C0.568219 43.1516 -0.00987297 44.1487 0.000127687 45.226V58C0.000127687 59.1046 0.895558 60 2.00013 60H58.0001C59.1047 60 60.0001 59.1046 60.0001 58V45.226C60.0101 44.1487 59.432 43.1516 58.4921 42.625ZM41.0001 2H45.0001V16H41.0001V2ZM30.0001 13C32.5071 13 36.4861 7.918 39.0001 4.3V16H21.0001V4.3C23.5141 7.918 27.4931 13 30.0001 13ZM15.0001 2H19.0001V16H15.0001V2ZM15.0001 58V40H45.0001V58H15.0001ZM20.4201 34.771C20.0641 34.446 20.0001 34.388 20.0001 34V32H26.0001V34C26.0001 34.388 25.9361 34.446 25.5801 34.771C24.6335 35.5805 24.0763 36.7548 24.0481 38H21.9481C21.9209 36.7554 21.3653 35.5812 20.4201 34.771ZM26.0001 30H20.0001V24H26.0001V30ZM32.1531 24H39.8471L39.1331 29H32.8681L32.1531 24ZM38.3821 31L37.3821 33H34.6181L33.6181 31H38.3821ZM35.0001 35H37.0001V38H35.0001V35ZM47.0001 58V40C47.0001 38.8954 46.1047 38 45.0001 38H39.0001V34.236L40.7481 30.736C40.8934 30.4474 40.9907 30.1369 41.0361 29.817L41.8271 24.28C41.9082 23.7065 41.7367 23.126 41.3569 22.6886C40.9771 22.2513 40.4264 22.0001 39.8471 22H32.1531C31.5733 22 31.022 22.2516 30.6421 22.6896C30.2622 23.1276 30.0911 23.709 30.1731 24.283L30.9641 29.819C31.0092 30.1386 31.1062 30.4486 31.2511 30.737L33.0001 34.236V38H26.0591C26.0848 37.3181 26.402 36.6801 26.9301 36.248C27.6267 35.7136 28.0246 34.8776 28.0001 34V24C28.0001 22.8954 27.1047 22 26.0001 22H20.0001C18.8956 22 18.0001 22.8954 18.0001 24V34C17.9756 34.8776 18.3736 35.7136 19.0701 36.248C19.5983 36.6801 19.9155 37.3181 19.9411 38H15.0001C13.8956 38 13.0001 38.8954 13.0001 40V58H1.99991L2.00013 45.226C1.99285 44.8799 2.17192 44.5565 2.46913 44.379C13.4261 38.377 14.8001 22.232 14.9761 18H45.0271C45.196 21.5521 45.7434 25.0761 46.6601 28.512C48.7511 36.234 52.4081 41.573 57.5311 44.379C57.8283 44.5565 58.0074 44.8799 58.0001 45.226L58.0003 58H47.0001Z" fill="#FF6726"/>
<path d="M42 43H18C17.4477 43 17 43.4477 17 44C17 44.5523 17.4477 45 18 45H42C42.5523 45 43 44.5523 43 44C43 43.4477 42.5523 43 42 43Z" fill="#FF6726"/>
</g>
<defs>
<clipPath id="clip0_17849_92">
<rect width="60" height="60" fill="white"/>
</clipPath>
</defs>
</svg>
