<svg width="22" height="22" viewBox="0 0 22 22" fill="none" xmlns="http://www.w3.org/2000/svg">
<path d="M10.9954 0C4.93219 0 0 4.93264 0 10.9954V15.7281C0 15.7292 0.000671107 15.7302 0.000671107 15.7314V16.9604C0.000671107 18.1791 0.477101 19.3336 1.32924 20.1949L2.59372 21.4686L4.42629 22H4.4538C5.96564 22 7.20265 20.763 7.20265 19.2511V13.8451C7.20265 12.3332 5.96564 11.0962 4.4538 11.0962H4.42629L2.59372 11.6368L1.83257 12.401V10.9954C1.83257 5.94287 5.94332 1.83257 10.9954 1.83257C16.0475 1.83257 20.1583 5.94287 20.1583 10.9954V12.4003L19.3978 11.6368L17.5652 11.0962H17.5377C16.0259 11.0962 14.7888 12.3332 14.7888 13.8451V19.2511C14.7888 20.763 16.0259 22 17.5377 22H17.5652L19.3978 21.4686L20.6623 20.1949C21.5144 19.3336 21.9908 18.1791 21.9908 16.9604C21.9908 16.8663 21.9908 10.9013 21.9908 10.9954C21.9908 4.93264 17.0586 0 10.9954 0Z" fill="#160A05"/>
</svg>
