<svg width="45" height="45" viewBox="0 0 45 45" fill="none" xmlns="http://www.w3.org/2000/svg">
<path d="M28.2124 12.8247C27.8152 13.1032 27.7187 13.6508 27.9965 14.049C28.2749 14.4462 28.8232 14.5431 29.2208 14.2643C29.6187 13.9865 29.7145 13.4382 29.4367 13.041C29.1583 12.6428 28.6096 12.546 28.2124 12.8247Z" fill="#FF6726"/>
<path d="M36.2437 6.73563L30.9428 10.8332C30.559 11.1298 30.4882 11.6819 30.7852 12.0657C31.0825 12.4506 31.6346 12.5203 32.0181 12.2236L37.3186 8.12643C37.7025 7.82946 37.7732 7.2774 37.4766 6.89356C37.1796 6.50938 36.6275 6.43866 36.2437 6.73563Z" fill="#FF6726"/>
<path d="M42.9094 6.89637C44.8505 4.50444 45.4197 2.91211 44.7008 1.88557C43.9246 0.776982 42.1359 0.904355 38.9001 2.29859C36.5586 3.30761 33.5906 4.94801 30.4948 6.93997C23.2023 2.00127 14.9234 0.932508 8.76595 4.17038C3.0153 7.19437 -0.0969189 13.4562 0.00230124 21.8028C0.0695925 27.4648 1.73574 31.2757 3.12173 33.4754C4.87267 36.2553 7.16675 38.067 9.41552 38.4464C11.6921 38.8305 13.4578 37.6584 14.2371 35.4972C14.9197 33.6055 14.4376 31.1271 17.0318 30.0954C18.5568 29.4894 20.1982 30.2145 20.9347 31.8202C23.2006 36.7624 24.1114 41.2901 29.5861 43.2137C34.476 44.931 38.7298 43.3737 41.3253 39.4471C45.3706 33.3278 44.9724 21.8282 37.053 12.6824C39.4216 10.6884 41.4825 8.65452 42.9094 6.89637ZM39.8589 38.4779C37.6171 41.8696 34.1752 42.9624 30.1687 41.5555C25.5225 39.923 24.7559 35.936 22.5325 31.0876C21.4115 28.6428 18.768 27.5139 16.3822 28.4618C12.7866 29.8921 13.1564 33.3137 12.5834 34.9005C12.0725 36.3174 11.0786 36.9443 9.70803 36.7133C6.568 36.1835 1.87032 31.0718 1.75977 21.7818C1.66879 14.1291 4.44764 8.42724 9.58375 5.72632C14.9966 2.88018 22.3008 3.76286 28.8974 7.99225C28.4359 8.30296 27.9759 8.61813 27.5213 8.93639C25.5067 10.3468 23.6394 11.8018 21.9715 13.2612C21.9708 13.2623 21.9701 13.2626 21.9691 13.2633C21.9684 13.264 21.9674 13.265 21.9667 13.2657C20.0825 14.9143 18.5709 16.471 17.5523 17.8072C15.4587 17.2098 13.2669 18.2298 12.3616 20.1703L11.4167 22.1972C10.8901 21.9796 10.3239 21.867 9.74099 21.867C7.31782 21.867 5.34646 23.8383 5.34646 26.2615C5.34646 28.6843 7.31782 30.6557 9.74099 30.6557C12.0375 30.6557 13.9271 28.8845 14.118 26.6364L16.7297 26.4084C18.7762 26.2299 20.4877 24.6256 20.7115 22.5018C22.288 22.0225 24.2371 21.1583 26.4052 19.9773C26.5082 19.9509 26.6081 19.9059 26.6994 19.84C26.731 19.8173 26.7602 19.7923 26.7876 19.7665C28.6656 18.7252 30.6064 17.5057 32.5616 16.1366C33.6211 15.3943 34.671 14.6091 35.692 13.7965C42.9794 22.1976 43.574 32.8584 39.8589 38.4779ZM20.5361 20.7127C20.4022 20.2863 20.2031 19.8801 19.9432 19.509C19.7142 19.1818 19.4405 18.8893 19.1339 18.637C19.9349 17.6255 21.0401 16.4734 22.3931 15.2412L24.8836 18.798C23.2593 19.6487 21.7655 20.3062 20.5361 20.7127ZM9.86493 26.5667C10.0304 26.8029 10.2996 26.9416 10.5845 26.9416C10.6099 26.9416 10.6357 26.9406 10.6614 26.9382L12.3238 26.7929C12.077 27.9929 11.0127 28.8979 9.74099 28.8979C8.28702 28.8979 7.10427 27.7151 7.10427 26.2615C7.10427 24.8075 8.28702 23.6248 9.74099 23.6248C10.0641 23.6248 10.3775 23.6838 10.6721 23.7951L9.78836 25.6916C9.6555 25.9758 9.68468 26.3096 9.86493 26.5667ZM12.0241 25.0547C12.2929 24.4779 13.7067 21.4454 13.9546 20.9132C14.8081 19.084 17.3401 18.8567 18.5033 20.517C19.6805 22.1993 18.5661 24.4834 16.5772 24.6571L12.0241 25.0547ZM31.5536 14.6967C29.8223 15.9093 28.1043 17.001 26.4357 17.9496L23.7214 14.0739C25.1884 12.8269 26.8021 11.5855 28.5297 10.3763C31.6299 8.20614 35.6859 5.67379 39.1205 4.12266C41.979 2.83177 42.9818 2.87297 43.239 2.92378C43.217 3.24994 42.8507 4.2418 41.2762 6.11325C38.7188 9.15303 34.8557 12.3837 31.5536 14.6967Z" fill="#FF6726"/>
<path d="M32.5918 29.7766C30.1686 29.7766 28.1973 31.748 28.1973 34.1711C28.1973 36.5943 30.1686 38.5657 32.5918 38.5657C35.015 38.5657 36.9863 36.5943 36.9863 34.1711C36.9863 31.748 35.015 29.7766 32.5918 29.7766ZM32.5918 36.8079C31.1378 36.8079 29.9551 35.6251 29.9551 34.1711C29.9551 32.7172 31.1378 31.5344 32.5918 31.5344C34.0458 31.5344 35.2285 32.7172 35.2285 34.1711C35.2285 35.6251 34.0458 36.8079 32.5918 36.8079Z" fill="#FF6726"/>
<path d="M34.3496 19.2302C31.9264 19.2302 29.9551 21.2016 29.9551 23.6248C29.9551 26.0476 31.9264 28.0189 34.3496 28.0189C36.7728 28.0189 38.7441 26.0476 38.7441 23.6248C38.7441 21.2016 36.7728 19.2302 34.3496 19.2302ZM34.3496 26.2615C32.8956 26.2615 31.7129 25.0784 31.7129 23.6248C31.7129 22.1708 32.8956 20.988 34.3496 20.988C35.8036 20.988 36.9863 22.1708 36.9863 23.6248C36.9863 25.0784 35.8036 26.2615 34.3496 26.2615Z" fill="#FF6726"/>
<path d="M12.3769 16.5935C14.8001 16.5935 16.7715 14.6221 16.7715 12.199C16.7715 9.7758 14.8001 7.80444 12.3769 7.80444C9.95378 7.80444 7.98242 9.7758 7.98242 12.199C7.98242 14.6221 9.95378 16.5935 12.3769 16.5935ZM12.3769 9.56226C13.8309 9.56226 15.0137 10.7453 15.0137 12.199C15.0137 13.6529 13.8309 14.8357 12.3769 14.8357C10.923 14.8357 9.74023 13.6529 9.74023 12.199C9.74023 10.7453 10.923 9.56226 12.3769 9.56226Z" fill="#FF6726"/>
</svg>
