<svg width="22" height="22" viewBox="0 0 22 22" fill="none" xmlns="http://www.w3.org/2000/svg">
<path d="M5.5 4.40005C5.5 3.79256 5.99251 3.30005 6.6 3.30005H20.9C21.5075 3.30005 22 3.79256 22 4.40005C22 5.00754 21.5075 5.50005 20.9 5.50005H6.6C5.99251 5.50005 5.5 5.0075 5.5 4.40005ZM20.9 9.90005H1.1C0.492508 9.90005 0 10.3926 0 11C0 11.6075 0.492508 12.1 1.1 12.1H20.9C21.5075 12.1 22 11.6075 22 11C22 10.3926 21.5075 9.90005 20.9 9.90005ZM20.9 16.5H11C10.3926 16.5 9.9 16.9926 9.9 17.6C9.9 18.2075 10.3926 18.7001 11 18.7001H20.9C21.5075 18.7001 22 18.2075 22 17.6C22 16.9926 21.5075 16.5 20.9 16.5Z" fill="#160A05"/>
</svg>
