<svg width="44" height="44" viewBox="0 0 44 44" fill="none" xmlns="http://www.w3.org/2000/svg">
<g clip-path="url(#clip0_17725_19)">
<path d="M27.1562 29.7344C26.6819 29.7344 26.2969 30.1194 26.2969 30.5938C26.2969 31.0681 26.6819 31.4531 27.1562 31.4531C27.6306 31.4531 28.0156 31.0681 28.0156 30.5938C28.0156 30.1194 27.6306 29.7344 27.1562 29.7344Z" fill="#FF6726"/>
<path d="M39.7031 0H4.29688C1.92755 0 0 1.92755 0 4.29688V30.5938C0 32.9631 1.92755 34.8906 4.29688 34.8906H17.7031V38.8438H16.8438C15.6964 38.8438 14.6178 39.2909 13.8057 40.1026C12.994 40.9146 12.5469 41.9932 12.5469 43.1406C12.5469 43.6153 12.9316 44 13.4062 44H30.5938C31.0684 44 31.4531 43.6153 31.4531 43.1406C31.4531 40.7713 29.5256 38.8438 27.1562 38.8438H26.2969V34.8906H39.7031C42.0724 34.8906 44 32.9631 44 30.5938V4.29688C44 1.92755 42.0724 0 39.7031 0ZM4.29688 1.71875H39.7031C41.1248 1.71875 42.2812 2.87521 42.2812 4.29688V26.2969H38.3281V6.53125C38.3281 6.05658 37.9434 5.67188 37.4688 5.67188H30.5938C30.1191 5.67188 29.7344 6.05658 29.7344 6.53125V26.2969H25.4328C25.4237 25.408 25.4006 24.5318 25.3636 23.6818C25.2133 20.1819 24.8705 17.8374 24.6923 16.8062C26.4654 15.5006 26.9495 13.081 25.8655 11.2011L22.8869 6.04214C22.7332 5.77628 22.4495 5.61246 22.1427 5.61246C21.8355 5.61246 21.5518 5.77628 21.3984 6.04214L18.4185 11.2014C17.3966 12.9739 17.7589 15.2697 19.3641 16.6245C19.1782 17.6528 18.8029 20.0812 18.6397 23.6801C18.6011 24.5392 18.5766 25.416 18.5672 26.2969H14.2656V13.4062C14.2656 13.27 14.2334 13.1458 14.1807 13.0353C14.1783 13.0309 14.177 13.0262 14.175 13.0219L10.7375 6.14688C10.5918 5.85583 10.2944 5.67188 9.96875 5.67188C9.64313 5.67188 9.3457 5.85583 9.20001 6.14688L5.76251 13.0219C5.7605 13.0262 5.75916 13.0309 5.75714 13.0353C5.70343 13.1468 5.67188 13.273 5.67188 13.4062V26.2969H1.71875V4.29688C1.71875 2.87521 2.87521 1.71875 4.29688 1.71875ZM31.4531 26.2969V7.39062H36.6094V9.10938H35.75C35.2753 9.10938 34.8906 9.49408 34.8906 9.96875C34.8906 10.4434 35.2753 10.8281 35.75 10.8281H36.6094V13.4062H35.75C35.2753 13.4062 34.8906 13.791 34.8906 14.2656C34.8906 14.7403 35.2753 15.125 35.75 15.125H36.6094V17.7031H35.75C35.2753 17.7031 34.8906 18.0878 34.8906 18.5625C34.8906 19.0372 35.2753 19.4219 35.75 19.4219H36.6094V22.8594H35.75C35.2753 22.8594 34.8906 23.2441 34.8906 23.7188C34.8906 24.1934 35.2753 24.5781 35.75 24.5781H36.6094V26.2969H31.4531ZM22.1427 17.6437C22.4549 17.6437 22.7657 17.6078 23.0699 17.5406C23.2293 18.5628 23.4636 20.3716 23.6023 22.8594H20.4034C20.5488 20.3732 20.7942 18.5363 20.9637 17.4796C21.3444 17.588 21.7408 17.6437 22.1427 17.6437ZM22.1427 15.925C20.1785 15.925 18.912 13.7873 19.9073 12.0605L22.1427 8.19058L24.3767 12.0601C25.3683 13.7799 24.1192 15.925 22.1427 15.925ZM20.3246 24.5781H23.6778C23.6959 25.1428 23.7083 25.7171 23.7144 26.2969H20.2859C20.2923 25.7208 20.3054 25.1465 20.3246 24.5781ZM10.8281 26.2969V14.2656H12.5469V26.2969H10.8281ZM7.39062 26.2969V14.2656H9.10938V26.2969H7.39062ZM7.92169 12.5469L9.96875 8.45276L12.0158 12.5469H7.92169ZM29.587 42.2812H14.412C14.5382 41.9231 14.7443 41.5948 15.0209 41.3178C15.5084 40.8307 16.1556 40.5625 16.8438 40.5625H27.1562C28.2768 40.5625 29.2325 41.2809 29.587 42.2812ZM24.5781 38.8438H19.4219V34.8906H24.5781V38.8438ZM39.7031 33.1719H4.29688C2.87521 33.1719 1.71875 32.0154 1.71875 30.5938V28.0156H42.2812V30.5938C42.2812 32.0154 41.1248 33.1719 39.7031 33.1719Z" fill="#FF6726"/>
<path d="M23.7188 29.7344H18.5625C18.0878 29.7344 17.7031 30.1191 17.7031 30.5938C17.7031 31.0684 18.0878 31.4531 18.5625 31.4531H23.7188C24.1934 31.4531 24.5781 31.0684 24.5781 30.5938C24.5781 30.1191 24.1934 29.7344 23.7188 29.7344Z" fill="#FF6726"/>
</g>
<defs>
<clipPath id="clip0_17725_19">
<rect width="44" height="44" fill="white"/>
</clipPath>
</defs>
</svg>
