<svg width="60" height="60" viewBox="0 0 60 60" fill="none" xmlns="http://www.w3.org/2000/svg">
<path d="M37.6166 17.0997C37.0869 17.471 36.9583 18.2011 37.3286 18.7321C37.6999 19.2617 38.4309 19.3908 38.961 19.0191C39.4916 18.6488 39.6193 17.9177 39.249 17.3881C38.8777 16.8571 38.1462 16.728 37.6166 17.0997Z" fill="#FFA826"/>
<path d="M48.3256 8.98093L41.2577 14.4443C40.7459 14.8398 40.6516 15.5759 41.0476 16.0877C41.444 16.6009 42.1801 16.6938 42.6914 16.2983L49.7588 10.8353C50.2706 10.4394 50.3649 9.70328 49.9694 9.1915C49.5735 8.67926 48.8374 8.58496 48.3256 8.98093Z" fill="#FFA826"/>
<path d="M57.2125 9.19516C59.8007 6.00592 60.5597 3.88281 59.6011 2.5141C58.5661 1.03598 56.1812 1.20581 51.8667 3.06478C48.7448 4.41015 44.7874 6.59735 40.6598 9.25329C30.9364 2.66836 19.8979 1.24334 11.6879 5.56051C4.0204 9.59249 -0.129225 17.9416 0.00306831 29.0703C0.0927899 36.6198 2.31432 41.701 4.16231 44.6338C6.4969 48.3404 9.55567 50.756 12.554 51.2618C15.5895 51.774 17.9437 50.2112 18.9829 47.3296C19.8929 44.8073 19.2502 41.5027 22.709 40.1272C24.7424 39.3192 26.931 40.286 27.9129 42.427C30.9341 49.0165 32.1486 55.0535 39.4481 57.6183C45.968 59.908 51.6397 57.8316 55.1004 52.5962C60.4942 44.437 59.9632 29.1042 49.404 16.9098C52.5621 14.2512 55.31 11.5394 57.2125 9.19516ZM53.1453 51.3039C50.1561 55.8262 45.567 57.2832 40.2249 55.4073C34.03 53.2306 33.0078 47.9146 30.0433 41.4501C28.5487 38.1904 25.024 36.6852 21.843 37.9491C17.0488 39.8562 17.5418 44.4182 16.7778 46.534C16.0967 48.4232 14.7714 49.2591 12.944 48.951C8.75733 48.2447 2.49376 41.429 2.34636 29.0424C2.22505 18.8389 5.93019 11.2363 12.7783 7.6351C19.9954 3.84024 29.7343 5.01715 38.5298 10.6563C37.9146 11.0706 37.3012 11.4908 36.6951 11.9152C34.0089 13.7957 31.5192 15.7357 29.2953 17.6816C29.2944 17.683 29.2935 17.6835 29.2921 17.6844C29.2912 17.6853 29.2898 17.6867 29.2889 17.6876C26.7767 19.8858 24.7612 21.9613 23.403 23.7429C20.6116 22.9464 17.6892 24.3064 16.4821 26.8937L15.2223 29.5963C14.5201 29.3061 13.7653 29.1559 12.988 29.1559C9.75709 29.1559 7.12861 31.7844 7.12861 35.0153C7.12861 38.2458 9.75709 40.8742 12.988 40.8742C16.05 40.8742 18.5695 38.5126 18.824 35.5152L22.3062 35.2112C25.0349 34.9732 27.3169 32.8341 27.6154 30.0023C29.7174 29.3633 32.3161 28.2111 35.2069 26.6364C35.3442 26.6012 35.4774 26.5412 35.5992 26.4533C35.6413 26.4231 35.6802 26.3897 35.7168 26.3553C38.2208 24.9669 40.8085 23.341 43.4155 21.5154C44.8282 20.5257 46.228 19.4788 47.5894 18.3953C57.3059 29.5968 58.0987 43.8112 53.1453 51.3039ZM27.3814 27.6169C27.2029 27.0484 26.9374 26.5069 26.5909 26.012C26.2855 25.5758 25.9207 25.1858 25.5119 24.8493C26.5799 23.5007 28.0534 21.9645 29.8575 20.3216L33.1781 25.064C31.0124 26.1983 29.0207 27.0749 27.3814 27.6169ZM13.1532 35.4223C13.3739 35.7372 13.7328 35.9221 14.1127 35.9221C14.1466 35.9221 14.1809 35.9208 14.2152 35.9176L16.4317 35.7239C16.1026 37.3238 14.6835 38.5305 12.988 38.5305C11.0494 38.5305 9.47236 36.9535 9.47236 35.0153C9.47236 33.0767 11.0494 31.4997 12.988 31.4997C13.4187 31.4997 13.8367 31.5784 14.2294 31.7267L13.0512 34.2554C12.874 34.6345 12.9129 35.0794 13.1532 35.4223ZM16.0321 33.4063C16.3905 32.6372 18.2756 28.5938 18.6061 27.8843C19.7441 25.4453 23.1201 25.1423 24.671 27.356C26.2407 29.5991 24.7548 32.6446 22.103 32.8762L16.0321 33.4063ZM42.0715 19.5955C39.763 21.2124 37.4724 22.6681 35.2476 23.9329L31.6286 18.7652C33.5846 17.1026 35.7361 15.4473 38.0395 13.835C42.1731 10.9415 47.5812 7.56506 52.1606 5.49688C55.972 3.77569 57.3091 3.83062 57.6519 3.89837C57.6227 4.33325 57.1342 5.65573 55.0349 8.151C51.625 12.204 46.4743 16.5116 42.0715 19.5955Z" fill="#FFA826"/>
<path d="M43.457 39.7024C40.2261 39.7024 37.5977 42.3309 37.5977 45.5618C37.5977 48.7927 40.2261 51.4211 43.457 51.4211C46.6879 51.4211 49.3164 48.7927 49.3164 45.5618C49.3164 42.3309 46.6879 39.7024 43.457 39.7024ZM43.457 49.0774C41.5184 49.0774 39.9414 47.5004 39.9414 45.5618C39.9414 43.6231 41.5184 42.0461 43.457 42.0461C45.3957 42.0461 46.9726 43.6231 46.9726 45.5618C46.9726 47.5004 45.3957 49.0774 43.457 49.0774Z" fill="#FFA826"/>
<path d="M45.8008 25.6401C42.5699 25.6401 39.9414 28.2686 39.9414 31.4995C39.9414 34.7299 42.5699 37.3584 45.8008 37.3584C49.0317 37.3584 51.6601 34.7299 51.6601 31.4995C51.6601 28.2686 49.0317 25.6401 45.8008 25.6401ZM45.8008 35.0151C43.8621 35.0151 42.2852 33.4377 42.2852 31.4995C42.2852 29.5609 43.8621 27.9839 45.8008 27.9839C47.7394 27.9839 49.3164 29.5609 49.3164 31.4995C49.3164 33.4377 47.7394 35.0151 45.8008 35.0151Z" fill="#FFA826"/>
<path d="M16.5039 22.1245C19.7348 22.1245 22.3633 19.496 22.3633 16.2651C22.3633 13.0342 19.7348 10.4058 16.5039 10.4058C13.273 10.4058 10.6445 13.0342 10.6445 16.2651C10.6445 19.496 13.273 22.1245 16.5039 22.1245ZM16.5039 12.7495C18.4425 12.7495 20.0195 14.327 20.0195 16.2651C20.0195 18.2038 18.4425 19.7808 16.5039 19.7808C14.5653 19.7808 12.9883 18.2038 12.9883 16.2651C12.9883 14.327 14.5653 12.7495 16.5039 12.7495Z" fill="#FFA826"/>
</svg>
