<svg width="62" height="62" viewBox="0 0 62 62" fill="none" xmlns="http://www.w3.org/2000/svg">
<path d="M46.7422 52.3122C47.4106 52.3122 47.9531 51.7697 47.9531 51.1013C47.9531 50.4329 47.4106 49.8904 46.7422 49.8904C46.0738 49.8904 45.5312 50.4329 45.5312 51.1013C45.5312 51.7697 46.0738 52.3122 46.7422 52.3122Z" fill="#160A05"/>
<path d="M17.2161 61.9076C17.6688 62.0954 18.1896 61.9913 18.5359 61.6455L22.5234 57.658L26.511 61.6451C26.8573 61.9918 27.3781 62.0949 27.8307 61.9076C28.283 61.7203 28.5781 61.279 28.5781 60.7889V57.1561H49.1641C51.1673 57.1561 52.7969 55.5265 52.7969 53.5233C52.7969 50.9075 52.7969 5.31014 52.7969 3.6328C52.7969 1.62956 51.1673 0 49.1641 0H12.8359C10.8327 0 9.20312 1.63003 9.20312 3.6328V51.1014C9.20312 54.44 11.9192 57.1561 15.2578 57.1561H16.4688V60.7889C16.4688 61.279 16.7639 61.7203 17.2161 61.9076ZM26.1562 57.8656L23.3796 55.089C23.1431 54.8525 22.8337 54.7342 22.5234 54.7342C22.2136 54.7342 21.9038 54.8525 21.6673 55.089L18.8906 57.8656V52.3124H26.1562V57.8656ZM50.375 3.6328V45.0468H18.8906V2.42187H49.1641C49.832 2.42187 50.375 2.96537 50.375 3.6328ZM12.8359 2.42187H16.4688V45.0468H15.2578C13.896 45.0468 12.6377 45.499 11.625 46.261V3.6328C11.625 2.96537 12.1685 2.42187 12.8359 2.42187ZM15.2578 54.7342C13.2546 54.7342 11.625 53.1047 11.625 51.1014C11.625 49.0987 13.2546 47.4686 15.2578 47.4686H50.375V53.5233C50.375 54.1912 49.832 54.7342 49.1641 54.7342H28.5781V52.3124H41.8984C42.5673 52.3124 43.1094 51.7703 43.1094 51.1014C43.1094 50.4326 42.5673 49.8905 41.8984 49.8905C39.7112 49.8905 16.588 49.8905 15.2578 49.8905C14.5894 49.8905 14.0469 50.4326 14.0469 51.1014C14.0469 51.7703 14.5894 52.3124 15.2578 52.3124H16.4688V54.7342H15.2578Z" fill="#160A05"/>
<path d="M24.9453 37.7812H44.3203C44.9892 37.7812 45.5312 37.2391 45.5312 36.5702C45.5312 35.9014 44.9892 35.3593 44.3203 35.3593H40.6875V21.3125C40.6875 21.1233 40.6416 20.935 40.5598 20.7709L35.716 11.0834C35.5107 10.6733 35.0916 10.4141 34.6328 10.4141C34.174 10.4141 33.7549 10.6733 33.5501 11.0834L28.7063 20.7709C28.6259 20.9312 28.5781 21.1204 28.5781 21.3125V35.3593H24.9453C24.2769 35.3593 23.7344 35.9014 23.7344 36.5702C23.7344 37.2391 24.2769 37.7812 24.9453 37.7812ZM31 22.5234H33.4219V35.3593H31V22.5234ZM38.2656 22.5234V35.3593H35.8438V22.5234H38.2656ZM34.6328 14.333L37.5173 20.1015H31.7488L34.6328 14.333Z" fill="#160A05"/>
</svg>
