<svg width="60" height="60" viewBox="0 0 60 60" fill="none" xmlns="http://www.w3.org/2000/svg">
<path d="M41.25 9.49219C41.8968 9.49219 42.4219 8.96713 42.4219 8.32031C42.4219 7.67349 41.8968 7.14844 41.25 7.14844C40.6032 7.14844 40.0781 7.67349 40.0781 8.32031C40.0781 8.96713 40.6032 9.49219 41.25 9.49219Z" fill="#FFA826"/>
<path d="M30 50.5078C29.3532 50.5078 28.8281 51.0329 28.8281 51.6797C28.8281 52.3265 29.3532 52.8516 30 52.8516C30.6468 52.8516 31.1719 52.3265 31.1719 51.6797C31.1719 51.0329 30.6468 50.5078 30 50.5078Z" fill="#FFA826"/>
<path d="M5.85938 20.0391C5.21255 20.0391 4.6875 20.5641 4.6875 21.2109C4.6875 21.8578 5.21255 22.3828 5.85938 22.3828C6.5062 22.3828 7.03125 21.8578 7.03125 21.2109C7.03125 20.5641 6.5062 20.0391 5.85938 20.0391Z" fill="#FFA826"/>
<path d="M42.015 43.6056C41.4392 43.3104 40.7333 43.5379 40.4376 44.1137C39.1119 46.6996 36.8931 48.6955 34.1896 49.7337C33.5853 49.9658 33.2837 50.6437 33.5157 51.248C33.7478 51.8522 34.4258 52.1539 35.03 51.9218C38.2728 50.6762 40.9338 48.2831 42.5232 45.1831C42.8189 44.6072 42.5909 43.9009 42.015 43.6056Z" fill="#FFA826"/>
<path d="M45.4396 10.2663C48.5135 11.4473 50.9652 13.8835 52.1664 16.951C52.4035 17.5552 53.0842 17.85 53.6853 17.6148C54.2877 17.3785 54.5848 16.6988 54.349 16.0964C52.908 12.4173 49.9669 9.49494 46.28 8.07862C45.6758 7.84653 44.9983 8.1482 44.7657 8.75199C44.5337 9.35624 44.8353 10.0342 45.4396 10.2663Z" fill="#FFA826"/>
<path d="M11.2564 38.4013C11.039 49.0219 19.6362 57.5391 30 57.5391C40.378 57.5391 48.961 49.0073 48.7436 38.4013C55.3798 35.5092 60 28.895 60 21.2109C60 10.8723 51.5886 2.46094 41.25 2.46094C37.1892 2.46094 33.2309 3.78754 30 6.21231C26.7691 3.78754 22.8108 2.46094 18.75 2.46094C8.41141 2.46094 0 10.8723 0 21.2109C0 28.895 4.62021 35.5092 11.2564 38.4013ZM30 9.27155C33.1783 12.2644 35.0299 16.3788 35.1498 20.7559C33.4831 20.2803 31.7574 20.0391 30 20.0391C28.2426 20.0391 26.5169 20.2803 24.8502 20.7559C24.9701 16.3788 26.8213 12.2649 30 9.27155ZM24.9609 23.1715C26.5828 22.6483 28.2733 22.3828 30 22.3828C31.7267 22.3828 33.4177 22.6483 35.0391 23.1715C34.5818 26.965 32.7859 30.5177 30 33.149C27.2141 30.5177 25.4178 26.9646 24.9609 23.1715ZM37.278 24.0839C42.2145 26.5324 45.6303 31.3408 46.2877 36.8289C44.6663 37.3517 42.9758 37.6172 41.25 37.6172C37.8722 37.6172 34.5758 36.5685 31.8297 34.6426C34.7342 31.8077 36.655 28.0806 37.278 24.0839ZM22.722 24.0839C23.345 28.0806 25.2658 31.8082 28.1703 34.6426C25.4247 36.5685 22.1278 37.6172 18.75 37.6172C17.0242 37.6172 15.3337 37.3517 13.7123 36.8289C14.3701 31.3403 17.7859 26.532 22.722 24.0839ZM30 55.1953C21.1057 55.1953 13.8423 48.0812 13.6002 39.2445C15.2673 39.7202 16.9931 39.9609 18.75 39.9609C22.8108 39.9609 26.7691 38.6343 30 36.2096C33.2309 38.6343 37.1892 39.9609 41.25 39.9609C43.0069 39.9609 44.7327 39.7202 46.3998 39.2445C46.1577 48.0812 38.8943 55.1953 30 55.1953ZM57.6562 21.2109C57.6562 27.4452 54.0431 33.1723 48.5271 35.9152C47.5497 29.6091 43.3804 24.1695 37.4936 21.5991C37.6039 16.219 35.4419 11.2926 31.8301 7.77924C34.5758 5.85342 37.8722 4.80469 41.25 4.80469C50.2963 4.80469 57.6562 12.1646 57.6562 21.2109ZM18.75 4.80469C22.1278 4.80469 25.4242 5.85297 28.1699 7.77924C24.5581 11.293 22.3961 16.219 22.5064 21.5991C16.62 24.169 12.4503 29.6086 11.4729 35.9152C5.95642 33.1723 2.34375 27.4448 2.34375 21.2109C2.34375 12.1646 9.70367 4.80469 18.75 4.80469Z" fill="#FFA826"/>
<path d="M6.29093 17.6949C6.89609 17.9274 7.57358 17.624 7.80521 17.0211C8.84342 14.3175 10.8393 12.0987 13.4252 10.7731C14.001 10.4773 14.2286 9.77147 13.9333 9.19561C13.638 8.61974 12.9322 8.39178 12.3558 8.68749C9.25586 10.2768 6.86268 12.9378 5.61756 16.1806C5.38501 16.7849 5.68668 17.4628 6.29093 17.6949Z" fill="#FFA826"/>
</svg>
