<svg width="60" height="60" viewBox="0 0 60 60" fill="none" xmlns="http://www.w3.org/2000/svg">
<g clip-path="url(#clip0_17922_4664)">
<path d="M15.9375 31.1719C16.5843 31.1719 17.1094 30.6468 17.1094 30C17.1094 29.3532 16.5843 28.8281 15.9375 28.8281C15.2907 28.8281 14.7656 29.3532 14.7656 30C14.7656 30.6468 15.2907 31.1719 15.9375 31.1719Z" fill="#FFA826"/>
<path d="M32.3438 38.2031C34.2824 38.2031 35.8594 36.6261 35.8594 34.6875C35.8594 32.7489 34.2824 31.1719 32.3438 31.1719C30.4051 31.1719 28.8281 32.7489 28.8281 34.6875C28.8281 36.6261 30.4051 38.2031 32.3438 38.2031ZM32.3438 33.5156C32.9901 33.5156 33.5156 34.0411 33.5156 34.6875C33.5156 35.3339 32.9901 35.8594 32.3438 35.8594C31.6974 35.8594 31.1719 35.3339 31.1719 34.6875C31.1719 34.0411 31.6974 33.5156 32.3438 33.5156Z" fill="#FFA826"/>
<path d="M39.375 31.1719H44.0625C44.7098 31.1719 45.2344 30.6473 45.2344 30C45.2344 29.3527 44.7098 28.8281 44.0625 28.8281H39.375C38.7277 28.8281 38.2031 29.3527 38.2031 30C38.2031 30.6473 38.7277 31.1719 39.375 31.1719Z" fill="#FFA826"/>
<path d="M20.625 31.1719H25.3125C25.9598 31.1719 26.4844 30.6473 26.4844 30C26.4844 29.3527 25.9598 28.8281 25.3125 28.8281H20.625C19.9777 28.8281 19.4531 29.3527 19.4531 30C19.4531 30.6473 19.9777 31.1719 20.625 31.1719Z" fill="#FFA826"/>
<path d="M56.4844 14.0625H41.174L34.671 4.30756C34.4765 1.90018 32.4568 0 30 0C27.5432 0 25.5235 1.90018 25.3294 4.30756L18.826 14.0625H3.51562C1.57333 14.0625 0 15.6358 0 17.5781V56.4844C0 58.0692 1.04004 58.9838 1.03226 58.9723C1.69601 59.6352 2.57812 60 3.51562 60H56.4844C58.4267 60 60 58.4267 60 56.4844V17.5781C60 15.6642 58.4518 14.0625 56.4844 14.0625ZM2.34375 18.0634L7.73438 23.4544V50.6085L2.34375 55.9991V18.0634ZM55.9987 16.4062L50.6081 21.7969H9.39194L4.00131 16.4062H55.9987ZM37.5169 49.9219L34.0013 46.4062L40.5469 39.8602L49.9219 49.2352V49.9219H37.5169ZM49.9219 24.1406V45.9206L41.3754 37.3746C40.9177 36.9168 40.1761 36.9168 39.7183 37.3746L32.3438 44.7487L22.6254 35.0308C22.1677 34.5731 21.4261 34.5731 20.9683 35.0308L10.0781 45.9206V24.1406H49.9219ZM10.0781 49.9219V49.2357L21.7969 37.5169L34.2018 49.9219H10.0781ZM9.39194 52.2656H50.6085L55.9991 57.6562H4.00131L9.39194 52.2656ZM52.2656 50.6081C52.2656 49.3217 52.2656 25.2937 52.2656 23.454L57.6562 18.0634V55.9987L52.2656 50.6081ZM30 2.34375C31.2923 2.34375 32.3438 3.39523 32.3438 4.6875C32.3438 5.97977 31.2923 7.03125 30 7.03125C28.7077 7.03125 27.6562 5.97977 27.6562 4.6875C27.6562 3.39523 28.7077 2.34375 30 2.34375ZM26.131 7.33017C26.976 8.56384 28.3951 9.375 30 9.375C31.6049 9.375 33.024 8.56384 33.869 7.33017L38.3574 14.0625H21.6431L26.131 7.33017Z" fill="#FFA826"/>
</g>
<defs>
<clipPath id="clip0_17922_4664">
<rect width="60" height="60" fill="white"/>
</clipPath>
</defs>
</svg>
