<svg width="42" height="42" viewBox="0 0 42 42" fill="none" xmlns="http://www.w3.org/2000/svg">
<g clip-path="url(#clip0_17725_27)">
<path d="M37.8984 37.0781C37.4457 37.0781 37.0781 37.4457 37.0781 37.8984C37.0781 38.3512 37.4457 38.7188 37.8984 38.7188C38.3512 38.7188 38.7188 38.3512 38.7188 37.8984C38.7188 37.4457 38.3512 37.0781 37.8984 37.0781Z" fill="#FF6726"/>
<path d="M10.6641 4.92188C11.1168 4.92188 11.4844 4.55434 11.4844 4.10156C11.4844 3.64879 11.1168 3.28125 10.6641 3.28125C10.2113 3.28125 9.84375 3.64879 9.84375 4.10156C9.84375 4.55434 10.2113 4.92188 10.6641 4.92188Z" fill="#FF6726"/>
<path d="M41.1797 27.2344H25.2067C26.572 25.8687 36.3773 16.0631 38.0083 14.4317C38.3288 14.1116 38.3288 13.5922 38.0083 13.2718L28.7282 3.99165C28.4081 3.67122 27.8887 3.67122 27.5683 3.99165C25.9334 5.62651 16.1345 15.4244 14.7656 16.7933V0.820312C14.7656 0.367218 14.3984 0 13.9453 0H0.820312C0.367218 0 0 0.367218 0 0.820312V34.6172C0 38.688 3.31201 42 7.38281 42H41.1797C41.6328 42 42 41.6328 42 41.1797V28.0547C42 27.6016 41.6328 27.2344 41.1797 27.2344ZM21.1871 12.6924L29.3076 20.8129L23.5074 26.6131L15.3869 18.4923L21.1871 12.6924ZM13.125 20.6719H1.64062V11.9766H13.125V20.6719ZM1.64062 22.3125H13.125V30.5156H1.64062V22.3125ZM14.7656 34.6172V20.1915L22.3474 27.7733L14.7243 35.3968C14.7509 35.1392 14.7656 34.8793 14.7656 34.6172ZM21.3281 31.1129L23.566 28.875H30.0234V40.3594H21.3281V31.1129ZM28.1483 5.73161L36.2684 13.8517L30.4679 19.6526L22.3474 11.5321L28.1483 5.73161ZM13.125 1.64062V10.3359H1.64062V4.92188H7.38281C7.83591 4.92188 8.20312 4.55466 8.20312 4.10156C8.20312 3.64847 7.83591 3.28125 7.38281 3.28125H1.64062V1.64062H13.125ZM1.64062 34.6172V32.1562H13.125V34.6172C13.125 37.7876 10.5554 40.3594 7.38281 40.3594C4.2166 40.3594 1.64062 37.7834 1.64062 34.6172ZM19.6875 32.7535V40.3594H12.023C12.637 39.8617 12.8158 39.606 19.6875 32.7535ZM40.3594 40.3594H31.6641V28.875H37.0781V34.6172C37.0781 35.0703 37.4453 35.4375 37.8984 35.4375C38.3515 35.4375 38.7188 35.0703 38.7188 34.6172V28.875H40.3594V40.3594Z" fill="#FF6726"/>
<path d="M9.84375 36.2578C9.84375 34.9008 8.73985 33.7969 7.38281 33.7969C6.02577 33.7969 4.92188 34.9008 4.92188 36.2578C4.92188 37.6149 6.02577 38.7188 7.38281 38.7188C8.73985 38.7188 9.84375 37.6149 9.84375 36.2578ZM6.5625 36.2578C6.5625 35.8054 6.93036 35.4375 7.38281 35.4375C7.83527 35.4375 8.20312 35.8054 8.20312 36.2578C8.20312 36.7103 7.83527 37.0781 7.38281 37.0781C6.93036 37.0781 6.5625 36.7103 6.5625 36.2578Z" fill="#FF6726"/>
</g>
<defs>
<clipPath id="clip0_17725_27">
<rect width="42" height="42" fill="white"/>
</clipPath>
</defs>
</svg>
