<svg width="25" height="25" viewBox="0 0 25 25" fill="none" xmlns="http://www.w3.org/2000/svg">
<g clip-path="url(#clip0_17802_1506)">
<path d="M23.75 3.33333H22.9167V2.38417C23.1736 2.23649 23.3324 1.96305 23.3333 1.66667V0.833333C23.3333 0.373096 22.9602 0 22.5 0H2.5C2.03976 0 1.66667 0.373096 1.66667 0.833333V1.66667C1.66756 1.96305 1.82635 2.23649 2.08333 2.38417V3.33333H1.25C0.559644 3.33333 0 3.89298 0 4.58333V7.08333C0.00100365 7.43873 0.154202 7.77668 0.420833 8.01167C0.420835 8.0267 0.42167 8.04172 0.423333 8.05667C0.673278 9.43237 1.24178 10.7305 2.08333 11.8471V22.6158C1.82635 22.7635 1.66756 23.0369 1.66667 23.3333V24.1667C1.66667 24.6269 2.03976 25 2.5 25H22.5C22.9602 25 23.3333 24.6269 23.3333 24.1667V23.3333C23.3324 23.0369 23.1736 22.7635 22.9167 22.6158V11.8471C23.7577 10.7315 24.3261 9.43455 24.5763 8.06C24.5783 8.04333 24.5762 8.02833 24.5787 8.01208C24.8455 7.77698 24.9988 7.43891 25 7.08333V4.58333C25 3.89298 24.4404 3.33333 23.75 3.33333ZM22.0833 20.4167H7.91667C7.68655 20.4167 7.5 20.6032 7.5 20.8333C7.5 21.0635 7.68655 21.25 7.91667 21.25H22.0833V22.5H2.91667V21.25H6.25C6.48012 21.25 6.66667 21.0635 6.66667 20.8333C6.66667 20.6032 6.48012 20.4167 6.25 20.4167H2.91667V12.8263C4.58958 14.5417 7.505 16.25 12.5 16.25C17.495 16.25 20.41 14.5437 22.0833 12.8263V20.4167ZM12.5 15.4167C7.00375 15.4167 4.20833 13.2646 2.83333 11.4583C2.12224 10.5307 1.60877 9.46712 1.32458 8.33333H2.17125C2.54625 9.86 4.35875 14.5833 12.5 14.5833C20.6412 14.5833 22.4533 9.86583 22.8283 8.33333H23.6746C23.392 9.46716 22.8795 10.5308 22.1688 11.4583C20.7917 13.2646 17.9963 15.4167 12.5 15.4167ZM10 5C9.07952 5 8.33333 5.74619 8.33333 6.66667V8.33333C8.33333 8.79357 7.96024 9.16667 7.5 9.16667C7.03976 9.16667 6.66667 8.79357 6.66667 8.33333V2.5H18.3333V8.33333C18.3333 8.79357 17.9602 9.16667 17.5 9.16667C17.0398 9.16667 16.6667 8.79357 16.6667 8.33333C16.6667 7.41286 15.9205 6.66667 15 6.66667C14.0795 6.66667 13.3333 7.41286 13.3333 8.33333V10.4167C13.3333 10.8769 12.9602 11.25 12.5 11.25C12.0398 11.25 11.6667 10.8769 11.6667 10.4167V6.66667C11.6667 5.74619 10.9205 5 10 5ZM7.5 10C8.42047 10 9.16667 9.25381 9.16667 8.33333V6.66667C9.16667 6.20643 9.53976 5.83333 10 5.83333C10.4602 5.83333 10.8333 6.20643 10.8333 6.66667V10.4167C10.8333 11.3371 11.5795 12.0833 12.5 12.0833C13.4205 12.0833 14.1667 11.3371 14.1667 10.4167V8.33333C14.1667 7.8731 14.5398 7.5 15 7.5C15.4602 7.5 15.8333 7.8731 15.8333 8.33333C15.8333 9.25381 16.5795 10 17.5 10C18.4205 10 19.1667 9.25381 19.1667 8.33333V2.5H22.0833V7.825C21.9704 8.54167 20.8592 13.75 12.5 13.75C4.14083 13.75 3.03 8.54167 2.91667 7.82875V2.5H5.83333V8.33333C5.83333 9.25381 6.57952 10 7.5 10ZM23.75 4.16667C23.9801 4.16667 24.1667 4.35321 24.1667 4.58333V7.08333C24.1667 7.31345 23.9801 7.5 23.75 7.5H22.9167V4.16667H23.75ZM2.5 0.833333H22.5V1.66667H2.5V0.833333ZM0.833333 4.58333C0.833333 4.35321 1.01988 4.16667 1.25 4.16667H2.08333V7.5H1.25C1.01988 7.5 0.833333 7.31345 0.833333 7.08333V4.58333ZM22.5 24.1667H2.5V23.3333H22.5V24.1667Z" fill="white"/>
</g>
<defs>
<clipPath id="clip0_17802_1506">
<rect width="25" height="25" fill="white"/>
</clipPath>
</defs>
</svg>
