<svg width="60" height="60" viewBox="0 0 60 60" fill="none" xmlns="http://www.w3.org/2000/svg">
<g clip-path="url(#clip0_17742_2277)">
<path d="M39.375 45.2339C38.7282 45.2339 38.2031 45.7589 38.2031 46.4058C38.2031 47.0526 38.7282 47.5776 39.375 47.5776C40.0218 47.5776 40.5469 47.0526 40.5469 46.4058C40.5469 45.7589 40.0218 45.2339 39.375 45.2339Z" fill="#160A05"/>
<path d="M1.17183 19.4527H12.4218V32.3231V32.3268V32.3433C12.4218 32.3456 12.4223 32.3483 12.4223 32.3506C12.4241 32.6646 12.5528 32.9796 12.8059 33.2098C12.8123 33.2153 12.8183 33.2217 12.8247 33.2277C13.3776 33.7083 43.0238 59.4776 43.293 59.7116C44.046 60.3662 45.2339 59.8356 45.2339 58.8272V32.715C45.2339 32.373 45.0846 32.048 44.8256 31.8255L39.8437 27.5491L59.7532 1.8901C60.0274 1.53671 60.0764 1.05789 59.8796 0.656433C59.6832 0.254516 59.2749 0 58.8276 0H37.0308C36.6737 0 36.3189 0.168915 36.0942 0.467376L25.1774 14.9872L14.3605 5.67581C14.3595 5.67535 14.3591 5.67489 14.3586 5.67443L14.3582 5.67398C14.3577 5.67398 14.3577 5.67398 14.3573 5.67352C13.9082 5.28671 13.227 5.2977 12.7894 5.71014L0.367544 17.4284C0.0182705 17.758 -0.0943394 18.267 0.0828152 18.7138C0.25997 19.1597 0.691641 19.4527 1.17183 19.4527ZM36.0049 4.48608L36.9937 26.7283L16.3476 30.6303C17.3982 29.2332 34.9195 5.92987 36.0049 4.48608ZM25.968 41.5461L16.1879 33.0455L35.4258 29.4099L25.968 41.5461ZM42.8901 56.2559L27.7395 43.0856L38.4031 29.4017L42.8901 33.2533V56.2559ZM39.2408 24.5032L38.2557 2.34375H56.4349L39.2408 24.5032ZM14.7656 9.11727L23.7657 16.8645L14.7656 28.8345V9.11727ZM12.4218 9.27886V17.1089H4.12166L12.4218 9.27886Z" fill="#160A05"/>
<path d="M38.2031 34.687V41.7183C38.2031 42.3651 38.7277 42.8901 39.375 42.8901C40.0223 42.8901 40.5469 42.3651 40.5469 41.7183V34.687C40.5469 34.0397 40.0223 33.5151 39.375 33.5151C38.7277 33.5151 38.2031 34.0397 38.2031 34.687Z" fill="#160A05"/>
</g>
<defs>
<clipPath id="clip0_17742_2277">
<rect width="60" height="60" fill="white"/>
</clipPath>
</defs>
</svg>
