<svg width="62" height="62" viewBox="0 0 62 62" fill="none" xmlns="http://www.w3.org/2000/svg">
<path d="M14.0469 16.9531C14.7153 16.9531 15.2578 16.4106 15.2578 15.7422C15.2578 15.0738 14.7153 14.5312 14.0469 14.5312C13.3785 14.5312 12.8359 15.0738 12.8359 15.7422C12.8359 16.4106 13.3785 16.9531 14.0469 16.9531Z" fill="#160A05"/>
<path d="M6.78125 43.5938H15.0492L6.68381 60.2456C6.27985 61.0492 6.86497 62 7.76561 62H13.2829C13.7408 62 14.1595 61.7417 14.3652 61.3326L23.2774 43.5938H27.3672V60.7891C27.3672 61.4579 27.9093 62 28.5781 62H33.4219C34.0907 62 34.6328 61.4579 34.6328 60.7891V43.5938H38.7226L47.6353 61.3326C47.8405 61.7417 48.2592 62 48.7171 62H54.2353C55.135 62 55.722 61.0502 55.3176 60.2456L46.9513 43.5938H55.2188C57.2258 43.5938 58.8516 41.968 58.8516 39.9609C58.8516 38.3825 57.8393 37.0362 56.4297 36.5363V8.47656C56.4297 6.47331 54.8001 4.84375 52.7969 4.84375H38.2656V3.63281C38.2656 1.62956 36.6361 0 34.6328 0H27.3672C25.3639 0 23.7344 1.62956 23.7344 3.63281V4.84375H9.20312C7.19987 4.84375 5.57031 6.47331 5.57031 8.47656V36.5344C4.19098 37.0211 3.14844 38.3465 3.14844 39.9609C3.14844 41.9642 4.778 43.5938 6.78125 43.5938ZM12.536 59.5781H9.72913L17.7592 43.5938H20.567L12.536 59.5781ZM32.2109 59.5781H29.7891V43.5938H32.2109V59.5781ZM52.2718 59.5781H49.464L41.433 43.5938H44.2408L52.2718 59.5781ZM55.2188 41.1719C53.2491 41.1719 8.22397 41.1719 6.78125 41.1719C6.11334 41.1719 5.57031 40.6288 5.57031 39.9609C5.57031 39.2926 6.1124 38.75 6.78078 38.75H6.7822H55.2188C55.8867 38.75 56.4297 39.293 56.4297 39.9609C56.4297 40.6298 55.8871 41.1719 55.2188 41.1719ZM38.7675 36.3281L35.1347 32.6953L41.8984 25.9311L52.295 36.3281H38.7675ZM32.5652 33.5515H32.5657V33.552L35.3419 36.3281H9.705L22.5234 23.5092L32.5652 33.5515ZM26.1562 3.63281C26.1562 2.9649 26.6993 2.42188 27.3672 2.42188H34.6328C35.3007 2.42188 35.8438 2.9649 35.8438 3.63281V7.26562H26.1562V3.63281ZM9.20312 7.26562H23.7344V8.47656C23.7344 9.14542 24.2765 9.6875 24.9453 9.6875H37.0547C37.7235 9.6875 38.2656 9.14542 38.2656 8.47656V7.26562H52.7969C53.4648 7.26562 54.0078 7.80865 54.0078 8.47656V34.6153L42.7546 23.3626C42.2816 22.8896 41.5153 22.8896 41.0423 23.3626L33.4219 30.9825L23.3796 20.9407C22.9066 20.4677 22.1403 20.4677 21.6673 20.9407L7.99219 34.6153V8.47656C7.99219 7.80865 8.53522 7.26562 9.20312 7.26562Z" fill="#160A05"/>
<path d="M33.4219 24.2188C35.4251 24.2188 37.0547 22.5892 37.0547 20.5859C37.0547 18.5827 35.4251 16.9531 33.4219 16.9531C31.4186 16.9531 29.7891 18.5827 29.7891 20.5859C29.7891 22.5892 31.4186 24.2188 33.4219 24.2188ZM33.4219 19.375C34.0898 19.375 34.6328 19.918 34.6328 20.5859C34.6328 21.2538 34.0898 21.7969 33.4219 21.7969C32.754 21.7969 32.2109 21.2538 32.2109 20.5859C32.2109 19.918 32.754 19.375 33.4219 19.375Z" fill="#160A05"/>
<path d="M43.1094 16.9531H47.9531C48.622 16.9531 49.1641 16.411 49.1641 15.7422C49.1641 15.0733 48.622 14.5312 47.9531 14.5312H43.1094C42.4405 14.5312 41.8984 15.0733 41.8984 15.7422C41.8984 16.411 42.4405 16.9531 43.1094 16.9531Z" fill="#160A05"/>
<path d="M18.8906 16.9531H26.1562C26.8251 16.9531 27.3672 16.411 27.3672 15.7422C27.3672 15.0733 26.8251 14.5312 26.1562 14.5312H18.8906C18.2218 14.5312 17.6797 15.0733 17.6797 15.7422C17.6797 16.411 18.2218 16.9531 18.8906 16.9531Z" fill="#160A05"/>
</svg>
