<svg width="24" height="24" viewBox="0 0 24 24" fill="none" xmlns="http://www.w3.org/2000/svg">
<path d="M3.34476 2.12207H8.23349L10.6779 8.23319L7.62239 10.0665C8.9313 12.7206 11.0793 14.8687 13.7333 16.1776L15.5666 13.1221L21.6775 15.5665V20.4554C21.6775 21.1037 21.42 21.7255 20.9616 22.1839C20.5031 22.6423 19.8814 22.8999 19.2331 22.8999C14.4657 22.6101 9.96917 20.5856 6.59189 17.2082C3.2146 13.8308 1.19011 9.33409 0.900391 4.56652C0.900391 3.91821 1.15792 3.29646 1.61633 2.83803C2.07474 2.37961 2.69647 2.12207 3.34476 2.12207Z" stroke="white" stroke-width="1.8" stroke-linecap="round" stroke-linejoin="round"/>
<path d="M15.5664 5.78857C16.2147 5.78857 16.8364 6.04611 17.2948 6.50454C17.7532 6.96296 18.0108 7.58471 18.0108 8.23302" stroke="white" stroke-width="1.8" stroke-linecap="round" stroke-linejoin="round"/>
<path d="M15.5664 0.899902C17.5113 0.899902 19.3765 1.67252 20.7517 3.04779C22.1269 4.42306 22.8995 6.28832 22.8995 8.23325" stroke="white" stroke-width="1.8" stroke-linecap="round" stroke-linejoin="round"/>
</svg>
