<svg width="60" height="60" viewBox="0 0 60 60" fill="none" xmlns="http://www.w3.org/2000/svg">
<g clip-path="url(#clip0_17922_4716)">
<path d="M37.0312 40.5469C36.3844 40.5469 35.8594 41.0719 35.8594 41.7188C35.8594 42.3656 36.3844 42.8906 37.0312 42.8906C37.6781 42.8906 38.2031 42.3656 38.2031 41.7188C38.2031 41.0719 37.6781 40.5469 37.0312 40.5469Z" fill="#FFA826"/>
<path d="M54.1406 0H5.85938C2.62848 0 0 2.62848 0 5.85938V41.7188C0 44.9496 2.62848 47.5781 5.85938 47.5781H24.1406V52.9688H22.9688C21.4041 52.9688 19.9333 53.5785 18.826 54.6854C17.7191 55.7927 17.1094 57.2635 17.1094 58.8281C17.1094 59.4754 17.634 60 18.2812 60H41.7188C42.366 60 42.8906 59.4754 42.8906 58.8281C42.8906 55.5972 40.2621 52.9688 37.0312 52.9688H35.8594V47.5781H54.1406C57.3715 47.5781 60 44.9496 60 41.7188V5.85938C60 2.62848 57.3715 0 54.1406 0ZM5.85938 2.34375H54.1406C56.0793 2.34375 57.6562 3.92075 57.6562 5.85938V35.8594H52.2656V8.90625C52.2656 8.25897 51.741 7.73438 51.0938 7.73438H41.7188C41.0715 7.73438 40.5469 8.25897 40.5469 8.90625V35.8594H34.6811C34.6687 34.6472 34.6371 33.4525 34.5868 32.2934C34.3817 27.5208 33.9143 24.3237 33.6713 22.9175C36.0892 21.1372 36.7493 17.8377 35.2711 15.2742L31.2094 8.23929C30.9998 7.87674 30.6129 7.65335 30.1945 7.65335C29.7757 7.65335 29.3889 7.87674 29.1797 8.23929L25.1161 15.2747C23.7227 17.6917 24.2166 20.8223 26.4056 22.6698C26.152 24.072 25.6403 27.3834 25.4178 32.2911C25.3651 33.4625 25.3317 34.6582 25.3189 35.8594H19.4531V18.2812C19.4531 18.0954 19.4092 17.926 19.3373 17.7754C19.3341 17.7695 19.3323 17.7631 19.3295 17.7571L14.642 8.38211C14.4434 7.98523 14.0378 7.73438 13.5938 7.73438C13.1497 7.73438 12.7441 7.98523 12.5455 8.38211L7.85797 17.7571C7.85522 17.7631 7.85339 17.7695 7.85065 17.7754C7.7774 17.9274 7.73438 18.0995 7.73438 18.2812V35.8594H2.34375V5.85938C2.34375 3.92075 3.92075 2.34375 5.85938 2.34375ZM42.8906 35.8594V10.0781H49.9219V12.4219H48.75C48.1027 12.4219 47.5781 12.9465 47.5781 13.5938C47.5781 14.241 48.1027 14.7656 48.75 14.7656H49.9219V18.2812H48.75C48.1027 18.2812 47.5781 18.8058 47.5781 19.4531C47.5781 20.1004 48.1027 20.625 48.75 20.625H49.9219V24.1406H48.75C48.1027 24.1406 47.5781 24.6652 47.5781 25.3125C47.5781 25.9598 48.1027 26.4844 48.75 26.4844H49.9219V31.1719H48.75C48.1027 31.1719 47.5781 31.6965 47.5781 32.3438C47.5781 32.991 48.1027 33.5156 48.75 33.5156H49.9219V35.8594H42.8906ZM30.1945 24.0596C30.6203 24.0596 31.0442 24.0106 31.4589 23.9191C31.6763 25.313 31.9958 27.7794 32.1849 31.1719H27.8229C28.0211 27.7817 28.3557 25.2768 28.5869 23.8358C29.106 23.9836 29.6466 24.0596 30.1945 24.0596ZM30.1945 21.7159C27.5162 21.7159 25.789 18.8008 27.1463 16.4461L30.1945 11.169L33.241 16.4456C34.5932 18.7907 32.8899 21.7159 30.1945 21.7159ZM27.7153 33.5156H32.2879C32.3126 34.2856 32.3296 35.0688 32.3378 35.8594H27.6627C27.6714 35.0739 27.6892 34.2906 27.7153 33.5156ZM14.7656 35.8594V19.4531H17.1094V35.8594H14.7656ZM10.0781 35.8594V19.4531H12.4219V35.8594H10.0781ZM10.8023 17.1094L13.5938 11.5265L16.3852 17.1094H10.8023ZM40.3459 57.6562H19.6527C19.8248 57.1678 20.1059 56.7201 20.4831 56.3425C21.1478 55.6783 22.0303 55.3125 22.9688 55.3125H37.0312C38.5593 55.3125 39.8625 56.2921 40.3459 57.6562ZM33.5156 52.9688H26.4844V47.5781H33.5156V52.9688ZM54.1406 45.2344H5.85938C3.92075 45.2344 2.34375 43.6574 2.34375 41.7188V38.2031H57.6562V41.7188C57.6562 43.6574 56.0793 45.2344 54.1406 45.2344Z" fill="#FFA826"/>
<path d="M32.3438 40.5469H25.3125C24.6652 40.5469 24.1406 41.0715 24.1406 41.7188C24.1406 42.366 24.6652 42.8906 25.3125 42.8906H32.3438C32.991 42.8906 33.5156 42.366 33.5156 41.7188C33.5156 41.0715 32.991 40.5469 32.3438 40.5469Z" fill="#FFA826"/>
</g>
<defs>
<clipPath id="clip0_17922_4716">
<rect width="60" height="60" fill="white"/>
</clipPath>
</defs>
</svg>
