<svg width="60" height="60" viewBox="0 0 60 60" fill="none" xmlns="http://www.w3.org/2000/svg">
<g clip-path="url(#clip0_17730_1540)">
<path d="M54.1406 31.1719C53.4938 31.1719 52.9688 31.6969 52.9688 32.3438C52.9688 32.9906 53.4938 33.5156 54.1406 33.5156C54.7874 33.5156 55.3125 32.9906 55.3125 32.3438C55.3125 31.6969 54.7874 31.1719 54.1406 31.1719Z" fill="#FFA826"/>
<path d="M59.2145 7.53479L55.1527 0.580902C54.9426 0.2211 54.5572 0 54.1406 0C53.7241 0 53.3386 0.2211 53.1285 0.580902L49.0645 7.53937C47.6321 10.0163 48.2076 13.1831 50.4373 15.0064C48.8182 20.1201 48.2812 29.3445 48.2812 34.6875C48.2812 40.4933 48.7889 46.5628 49.6738 51.34C50.1274 53.7877 50.652 55.7401 51.2334 57.1431C51.5263 57.8499 52.4176 60 54.1406 60C55.8636 60 56.7549 57.8499 57.0479 57.1431C57.6292 55.7401 58.1538 53.7877 58.6075 51.34C59.4923 46.5628 60 40.4933 60 34.6875C60 29.3243 59.464 20.0629 57.903 14.9533C60.0641 13.1342 60.6496 10.0172 59.2145 7.53479ZM51.091 8.71674L54.1406 3.49548L57.188 8.71216C58.5356 11.0435 56.835 13.9815 54.1406 13.9815C51.4128 13.9815 49.7607 11.0179 51.091 8.71674ZM54.1406 16.3252C54.7028 16.3252 55.2589 16.2419 55.7936 16.0849C56.2601 17.7599 56.6757 20.1274 57.0003 22.9688H51.2984C51.6344 20.1279 52.066 17.7658 52.5513 16.1037C53.0667 16.2483 53.6014 16.3252 54.1406 16.3252ZM56.4409 50.137C55.572 55.2136 54.5819 57.1143 54.1406 57.578C53.6993 57.1143 52.7092 55.2136 51.8404 50.137C51.0681 45.6244 50.625 39.9934 50.625 34.6875C50.625 31.5807 50.7733 28.363 51.0539 25.3125H57.2374C57.5084 28.364 57.6562 31.6516 57.6562 34.6875C57.6562 39.9934 57.2131 45.6244 56.4409 50.137Z" fill="#FFA826"/>
<path d="M54.1406 35.8594C53.4933 35.8594 52.9688 36.384 52.9688 37.0312V46.4062C52.9688 47.0535 53.4933 47.5781 54.1406 47.5781C54.7879 47.5781 55.3125 47.0535 55.3125 46.4062V37.0312C55.3125 36.384 54.7879 35.8594 54.1406 35.8594Z" fill="#FFA826"/>
<path d="M13.5937 19.4531C16.8246 19.4531 19.4531 16.8246 19.4531 13.5938C19.4531 10.3629 16.8246 7.73438 13.5937 7.73438C10.3629 7.73438 7.73438 10.3629 7.73438 13.5938C7.73438 16.8246 10.3629 19.4531 13.5937 19.4531ZM13.5937 10.0781C15.5324 10.0781 17.1094 11.6551 17.1094 13.5938C17.1094 15.5324 15.5324 17.1094 13.5937 17.1094C11.6551 17.1094 10.0781 15.5324 10.0781 13.5938C10.0781 11.6551 11.6551 10.0781 13.5937 10.0781Z" fill="#FFA826"/>
<path d="M13.5937 35.8594C16.8246 35.8594 19.4531 33.2309 19.4531 30C19.4531 26.7691 16.8246 24.1406 13.5937 24.1406C10.3629 24.1406 7.73438 26.7691 7.73438 30C7.73438 33.2309 10.3629 35.8594 13.5937 35.8594ZM13.5937 26.4844C15.5324 26.4844 17.1094 28.0614 17.1094 30C17.1094 31.9386 15.5324 33.5156 13.5937 33.5156C11.6551 33.5156 10.0781 31.9386 10.0781 30C10.0781 28.0614 11.6551 26.4844 13.5937 26.4844Z" fill="#FFA826"/>
<path d="M13.5937 52.2656C16.8246 52.2656 19.4531 49.6371 19.4531 46.4062C19.4531 43.1754 16.8246 40.5469 13.5937 40.5469C10.3629 40.5469 7.73438 43.1754 7.73438 46.4062C7.73438 49.6371 10.3629 52.2656 13.5937 52.2656ZM13.5937 42.8906C15.5324 42.8906 17.1094 44.4676 17.1094 46.4062C17.1094 48.3449 15.5324 49.9219 13.5937 49.9219C11.6551 49.9219 10.0781 48.3449 10.0781 46.4062C10.0781 44.4676 11.6551 42.8906 13.5937 42.8906Z" fill="#FFA826"/>
<path d="M30 19.4531C33.2309 19.4531 35.8594 16.8246 35.8594 13.5938C35.8594 10.3629 33.2309 7.73438 30 7.73438C26.7691 7.73438 24.1406 10.3629 24.1406 13.5938C24.1406 16.8246 26.7691 19.4531 30 19.4531ZM30 10.0781C31.9386 10.0781 33.5156 11.6551 33.5156 13.5938C33.5156 15.5324 31.9386 17.1094 30 17.1094C28.0614 17.1094 26.4844 15.5324 26.4844 13.5938C26.4844 11.6551 28.0614 10.0781 30 10.0781Z" fill="#FFA826"/>
<path d="M30 35.8594C33.2309 35.8594 35.8594 33.2309 35.8594 30C35.8594 26.7691 33.2309 24.1406 30 24.1406C26.7691 24.1406 24.1406 26.7691 24.1406 30C24.1406 33.2309 26.7691 35.8594 30 35.8594ZM30 26.4844C31.9386 26.4844 33.5156 28.0614 33.5156 30C33.5156 31.9386 31.9386 33.5156 30 33.5156C28.0614 33.5156 26.4844 31.9386 26.4844 30C26.4844 28.0614 28.0614 26.4844 30 26.4844Z" fill="#FFA826"/>
<path d="M30 52.2656C33.2309 52.2656 35.8594 49.6371 35.8594 46.4062C35.8594 43.1754 33.2309 40.5469 30 40.5469C26.7691 40.5469 24.1406 43.1754 24.1406 46.4062C24.1406 49.6371 26.7691 52.2656 30 52.2656ZM30 42.8906C31.9386 42.8906 33.5156 44.4676 33.5156 46.4062C33.5156 48.3449 31.9386 49.9219 30 49.9219C28.0614 49.9219 26.4844 48.3449 26.4844 46.4062C26.4844 44.4676 28.0614 42.8906 30 42.8906Z" fill="#FFA826"/>
<path d="M5.85937 60H37.7344C40.9653 60 43.5937 57.3715 43.5937 54.1406V5.85938C43.5937 2.62848 40.9653 0 37.7344 0H5.85937C2.62848 0 0 2.62848 0 5.85938V54.1406C0 57.3715 2.62848 60 5.85937 60ZM2.34375 5.85938C2.34375 3.92075 3.92074 2.34375 5.85937 2.34375H37.7344C39.673 2.34375 41.25 3.92075 41.25 5.85938V54.1406C41.25 56.0793 39.673 57.6562 37.7344 57.6562H5.85937C3.92074 57.6562 2.34375 56.0793 2.34375 54.1406V5.85938Z" fill="#FFA826"/>
</g>
<defs>
<clipPath id="clip0_17730_1540">
<rect width="60" height="60" fill="white"/>
</clipPath>
</defs>
</svg>
