<svg width="60" height="60" viewBox="0 0 60 60" fill="none" xmlns="http://www.w3.org/2000/svg">
<path d="M13.5938 16.4062C14.2406 16.4062 14.7656 15.8812 14.7656 15.2344C14.7656 14.5876 14.2406 14.0625 13.5938 14.0625C12.9469 14.0625 12.4219 14.5876 12.4219 15.2344C12.4219 15.8812 12.9469 16.4062 13.5938 16.4062Z" fill="#FFA826"/>
<path d="M6.5625 42.1875H14.5638L6.4682 58.3022C6.07727 59.0799 6.64352 60 7.51511 60H12.8545C13.2976 60 13.7027 59.7501 13.9018 59.3541L22.5266 42.1875H26.4844V58.8281C26.4844 59.4754 27.009 60 27.6562 60H32.3438C32.991 60 33.5156 59.4754 33.5156 58.8281V42.1875H37.4734L46.0986 59.3541C46.2973 59.7501 46.7024 60 47.1455 60H52.4858C53.3565 60 53.9246 59.0808 53.5332 58.3022L45.4367 42.1875H53.4375C55.3798 42.1875 56.9531 40.6142 56.9531 38.6719C56.9531 37.1443 55.9735 35.8415 54.6094 35.3577V8.20312C54.6094 6.2645 53.0324 4.6875 51.0938 4.6875H37.0312V3.51562C37.0312 1.577 35.4543 0 33.5156 0H26.4844C24.5457 0 22.9688 1.577 22.9688 3.51562V4.6875H8.90625C6.96762 4.6875 5.39062 6.2645 5.39062 8.20312V35.3558C4.05579 35.8269 3.04688 37.1095 3.04688 38.6719C3.04688 40.6105 4.62387 42.1875 6.5625 42.1875ZM12.1317 57.6562H9.41528L17.1863 42.1875H19.9036L12.1317 57.6562ZM31.1719 57.6562H28.8281V42.1875H31.1719V57.6562ZM50.5856 57.6562H47.8683L40.0964 42.1875H42.8137L50.5856 57.6562ZM53.4375 39.8438C51.5314 39.8438 7.95868 39.8438 6.5625 39.8438C5.91614 39.8438 5.39062 39.3182 5.39062 38.6719C5.39062 38.0251 5.91522 37.5 6.56204 37.5H6.56342H53.4375C54.0839 37.5 54.6094 38.0255 54.6094 38.6719C54.6094 39.3192 54.0843 39.8438 53.4375 39.8438ZM37.5169 35.1562L34.0013 31.6406L40.5469 25.0946L50.6081 35.1562H37.5169ZM31.5147 32.4692H31.5152V32.4696L34.2018 35.1562H9.39194L21.7969 22.7509L31.5147 32.4692ZM25.3125 3.51562C25.3125 2.86926 25.838 2.34375 26.4844 2.34375H33.5156C34.162 2.34375 34.6875 2.86926 34.6875 3.51562V7.03125H25.3125V3.51562ZM8.90625 7.03125H22.9688V8.20312C22.9688 8.8504 23.4933 9.375 24.1406 9.375H35.8594C36.5067 9.375 37.0312 8.8504 37.0312 8.20312V7.03125H51.0938C51.7401 7.03125 52.2656 7.55676 52.2656 8.20312V33.4987L41.3754 22.6089C40.9177 22.1512 40.1761 22.1512 39.7183 22.6089L32.3438 29.9831L22.6254 20.2652C22.1677 19.8074 21.4261 19.8074 20.9683 20.2652L7.73438 33.4987V8.20312C7.73438 7.55676 8.25989 7.03125 8.90625 7.03125Z" fill="#FFA826"/>
<path d="M32.3438 23.4375C34.2824 23.4375 35.8594 21.8605 35.8594 19.9219C35.8594 17.9832 34.2824 16.4062 32.3438 16.4062C30.4051 16.4062 28.8281 17.9832 28.8281 19.9219C28.8281 21.8605 30.4051 23.4375 32.3438 23.4375ZM32.3438 18.75C32.9901 18.75 33.5156 19.2755 33.5156 19.9219C33.5156 20.5682 32.9901 21.0938 32.3438 21.0938C31.6974 21.0938 31.1719 20.5682 31.1719 19.9219C31.1719 19.2755 31.6974 18.75 32.3438 18.75Z" fill="#FFA826"/>
<path d="M41.7188 16.4062H46.4062C47.0535 16.4062 47.5781 15.8817 47.5781 15.2344C47.5781 14.5871 47.0535 14.0625 46.4062 14.0625H41.7188C41.0715 14.0625 40.5469 14.5871 40.5469 15.2344C40.5469 15.8817 41.0715 16.4062 41.7188 16.4062Z" fill="#FFA826"/>
<path d="M18.2812 16.4062H25.3125C25.9598 16.4062 26.4844 15.8817 26.4844 15.2344C26.4844 14.5871 25.9598 14.0625 25.3125 14.0625H18.2812C17.634 14.0625 17.1094 14.5871 17.1094 15.2344C17.1094 15.8817 17.634 16.4062 18.2812 16.4062Z" fill="#FFA826"/>
</svg>
