<svg width="80" height="80" viewBox="0 0 80 80" fill="none" xmlns="http://www.w3.org/2000/svg">
<g clip-path="url(#clip0_17774_3874)">
<path d="M70.6667 6.66667H66.6667V2.66667C66.6667 1.19391 65.4728 0 64 0H8C6.52724 0 5.33333 1.19391 5.33333 2.66667V4H4C1.79086 4 0 5.79086 0 8V13.3333C0 15.5425 1.79086 17.3333 4 17.3333H5.33333V18.6667C5.33333 20.1394 6.52724 21.3333 8 21.3333V48C8 51.6819 10.9848 54.6667 14.6667 54.6667C18.3486 54.6667 21.3333 51.6819 21.3333 48V46.6667C21.3333 44.4575 23.1242 42.6667 25.3333 42.6667C27.102 42.6684 28.7987 41.9666 30.0493 40.716C31.3 39.4654 32.0018 37.7687 32 36V34.6667C32 32.4575 33.7909 30.6667 36 30.6667C38.2091 30.6667 40 32.4575 40 34.6667V37.9667L37.1387 38.8907C33.2754 40.1238 30.6566 43.7181 30.6667 47.7733V50.6667H30.14C29.877 50.6669 29.6199 50.589 29.4013 50.4427L26.068 48.224C25.6717 47.9596 25.1644 47.9268 24.7373 48.1378C24.3102 48.3489 24.0281 48.7717 23.9973 49.2471C23.9665 49.7226 24.1917 50.1783 24.588 50.4427L27.4253 52.3347C26.9324 53.0123 26.6668 53.8287 26.6667 54.6667V76C26.6667 78.2091 28.4575 80 30.6667 80H38.6667C40.8758 80 42.6667 78.2091 42.6667 76V54.6667C42.6652 53.8281 42.3977 53.0116 41.9027 52.3347L44.74 50.4427C45.3527 50.034 45.518 49.206 45.1093 48.5933C44.7006 47.9807 43.8727 47.8153 43.26 48.224L39.9267 50.4427C39.7115 50.5867 39.4589 50.6646 39.2 50.6667H38.6667V47.7733C38.6617 47.1882 39.041 46.6691 39.6 46.496L42.8747 45.44C43.9826 46.2289 45.3066 46.6572 46.6667 46.6667C47.7282 46.6645 48.7468 47.0853 49.4974 47.8359C50.2481 48.5865 50.6688 49.6052 50.6667 50.6667V54.6667C50.6667 58.3486 53.6514 61.3333 57.3333 61.3333C61.0152 61.3333 64 58.3486 64 54.6667V38.6227L73.528 35.556C77.3936 34.3221 80.013 30.7244 80 26.6667V16C79.9941 10.8478 75.8189 6.67254 70.6667 6.66667ZM66.6667 18.6667V14.6667H70.6667C71.403 14.6667 72 15.2636 72 16V26.6667C72.0026 27.248 71.623 27.762 71.0667 27.9307L64 30.2147V21.3333C65.4728 21.3333 66.6667 20.1394 66.6667 18.6667ZM8 2.66667H64V18.6667H8V2.66667ZM4 14.6667C3.26362 14.6667 2.66667 14.0697 2.66667 13.3333V8C2.66667 7.26362 3.26362 6.66667 4 6.66667H5.33333V14.6667H4ZM40.7093 29.944C38.8011 28.0396 35.9338 27.4719 33.4439 28.5056C30.954 29.5392 29.3318 31.9708 29.3333 34.6667V36C29.3355 37.0615 28.9147 38.0802 28.1641 38.8308C27.4135 39.5814 26.3949 40.0021 25.3333 40C21.6533 40.0044 18.6711 42.9866 18.6667 46.6667V48C18.6667 50.2091 16.8758 52 14.6667 52C12.4575 52 10.6667 50.2091 10.6667 48V21.3333H61.3333V31.076L42.6667 37.1053V34.6667C42.6657 32.8953 41.9617 31.1967 40.7093 29.944ZM38.6667 77.3333H30.6667C29.9303 77.3333 29.3333 76.7364 29.3333 76V72H32C32.7364 72 33.3333 71.403 33.3333 70.6667C33.3333 69.9303 32.7364 69.3333 32 69.3333H29.3333V66.6667H32C32.7364 66.6667 33.3333 66.0697 33.3333 65.3333C33.3333 64.597 32.7364 64 32 64H29.3333V61.3333H32C32.7364 61.3333 33.3333 60.7364 33.3333 60C33.3333 59.2636 32.7364 58.6667 32 58.6667H29.3333V54.6667C29.3333 53.9303 29.9303 53.3333 30.6667 53.3333H38.6667C39.403 53.3333 40 53.9303 40 54.6667V58.6667H37.3333C36.597 58.6667 36 59.2636 36 60C36 60.7364 36.597 61.3333 37.3333 61.3333H40V64H37.3333C36.597 64 36 64.597 36 65.3333C36 66.0697 36.597 66.6667 37.3333 66.6667H40V69.3333H37.3333C36.597 69.3333 36 69.9303 36 70.6667C36 71.403 36.597 72 37.3333 72H40V76C40 76.7364 39.403 77.3333 38.6667 77.3333ZM61.3333 54.6667C61.3333 56.8758 59.5425 58.6667 57.3333 58.6667C55.1242 58.6667 53.3333 56.8758 53.3333 54.6667V50.6667C53.3497 47.1818 50.6544 44.2844 47.1773 44.0493L61.3333 39.4827V54.6667ZM77.3333 26.6667C77.3407 29.5631 75.4701 32.1303 72.7107 33.0107L38.7747 43.9587C37.1187 44.4916 35.997 46.0337 36 47.7733V50.6667H33.3333L33.3333 47.7733C33.326 44.8762 35.1972 42.3084 37.9573 41.428L71.8787 30.472C73.5435 29.9544 74.6749 28.4101 74.6667 26.6667V16C74.6667 13.7909 72.8758 12 70.6667 12H66.6667V9.33333H70.6667C74.3467 9.33774 77.3289 12.3199 77.3333 16V26.6667Z" fill="#FFA826"/>
<path d="M14.6673 24C13.9309 24 13.334 24.597 13.334 25.3333V26.6667C13.334 27.403 13.9309 28 14.6673 28C15.4037 28 16.0007 27.403 16.0007 26.6667V25.3333C16.0007 24.597 15.4037 24 14.6673 24Z" fill="#FFA826"/>
<path d="M14.6673 30.6667C13.9309 30.6667 13.334 31.2637 13.334 32.0001V44.0001C13.334 44.7365 13.9309 45.3334 14.6673 45.3334C15.4037 45.3334 16.0007 44.7365 16.0007 44.0001V32.0001C16.0007 31.2637 15.4037 30.6667 14.6673 30.6667Z" fill="#FFA826"/>
<path d="M11.9993 7.99992H14.666C15.4024 7.99992 15.9993 7.40297 15.9993 6.66659C15.9993 5.93021 15.4024 5.33325 14.666 5.33325H11.9993C11.263 5.33325 10.666 5.93021 10.666 6.66659C10.666 7.40297 11.263 7.99992 11.9993 7.99992Z" fill="#FFA826"/>
<path d="M19.9993 7.99992H39.9993C40.7357 7.99992 41.3327 7.40297 41.3327 6.66659C41.3327 5.93021 40.7357 5.33325 39.9993 5.33325H19.9993C19.263 5.33325 18.666 5.93021 18.666 6.66659C18.666 7.40297 19.263 7.99992 19.9993 7.99992Z" fill="#FFA826"/>
</g>
<defs>
<clipPath id="clip0_17774_3874">
<rect width="80" height="80" fill="white"/>
</clipPath>
</defs>
</svg>
