<svg width="25" height="25" viewBox="0 0 25 25" fill="none" xmlns="http://www.w3.org/2000/svg">
<g clip-path="url(#clip0_17802_1479)">
<path d="M8.33333 22.5H4.16667C3.93655 22.5 3.75 22.6865 3.75 22.9167C3.75 23.1468 3.93655 23.3333 4.16667 23.3333H8.33333C8.56345 23.3333 8.75 23.1468 8.75 22.9167C8.75 22.6865 8.56345 22.5 8.33333 22.5Z" fill="white"/>
<path d="M22.5007 2.91667C22.208 2.91621 21.9204 2.99342 21.6673 3.14042V2.5C21.6672 1.88486 21.3282 1.31983 20.7855 1.03015C20.2429 0.740469 19.5848 0.773247 19.0736 1.11542C18.8049 0.348481 18.0222 -0.112854 17.2211 0.0234677C16.4199 0.159789 15.8339 0.85402 15.834 1.66667V1.89042C15.3184 1.59274 14.6832 1.59269 14.1675 1.8903C13.6519 2.18791 13.3341 2.73797 13.334 3.33333V9.30042L12.9173 8.15333C12.7642 7.72856 12.4442 7.38477 12.0315 7.20167C11.9147 7.15077 11.7925 7.11331 11.6673 7.09V3.33333C11.6672 2.73797 11.3494 2.18791 10.8338 1.8903C10.3181 1.59269 9.68292 1.59274 9.16732 1.89042V1.66667C9.16739 0.85402 8.58137 0.159789 7.78023 0.0234677C6.9791 -0.112854 6.19645 0.348481 5.92774 1.11542C5.41655 0.773247 4.75845 0.740469 4.21579 1.03015C3.67313 1.31983 3.33415 1.88486 3.33398 2.5V3.14042C2.81839 2.84274 2.18315 2.84269 1.66752 3.1403C1.15188 3.43791 0.834148 3.98797 0.833984 4.58333V13.3333C0.84474 14.4124 1.08254 15.4772 1.5319 16.4583C1.87422 17.1752 2.0623 17.9559 2.08398 18.75V22.8192C2.06857 22.8333 2.05357 22.8483 2.0394 22.8638C1.79969 23.0961 1.66528 23.4162 1.66732 23.75C1.66732 24.4404 2.22696 25 2.91732 25H9.58399C10.2729 24.9966 10.8306 24.4389 10.834 23.75C10.8356 23.3941 10.6837 23.0547 10.4173 22.8188V22.0833C10.4173 19.4042 10.939 18.7529 11.6602 17.8517C11.9655 17.483 12.2462 17.0946 12.5007 16.6892C12.7551 17.0946 13.0358 17.483 13.3411 17.8517C14.0623 18.7529 14.584 19.4042 14.584 22.0833V22.8188C14.3176 23.0547 14.1657 23.3941 14.1673 23.75C14.1707 24.4389 14.7284 24.9966 15.4173 25H22.084C22.7743 25 23.334 24.4404 23.334 23.75C23.3377 23.4237 23.2092 23.1097 22.9777 22.8796C22.9577 22.8579 22.9361 22.8379 22.9173 22.82V18.75C22.939 17.9559 23.1271 17.1752 23.4694 16.4583C23.9188 15.4772 24.1566 14.4124 24.1673 13.3333V4.58333C24.1673 3.66286 23.4211 2.91667 22.5007 2.91667ZM22.5007 3.75C22.9609 3.75 23.334 4.1231 23.334 4.58333V5.61958C23.0781 5.48183 22.7912 5.41197 22.5007 5.41667C22.2055 5.4106 21.9152 5.49303 21.6673 5.65333V4.58333C21.6673 4.1231 22.0404 3.75 22.5007 3.75ZM20.0007 1.66667C20.4609 1.66667 20.834 2.03976 20.834 2.5V3.53625C20.5781 3.3985 20.2912 3.32864 20.0007 3.33333C19.7055 3.32727 19.4152 3.40969 19.1673 3.57V2.5C19.1673 2.03976 19.5404 1.66667 20.0007 1.66667ZM17.5007 0.833334C17.9609 0.833334 18.334 1.20643 18.334 1.66667V2.70292C18.0781 2.56517 17.7912 2.4953 17.5007 2.5C17.2055 2.49393 16.9152 2.57636 16.6673 2.73667V1.66667C16.6673 1.20643 17.0404 0.833334 17.5007 0.833334ZM15.0007 2.5C15.4609 2.5 15.834 2.8731 15.834 3.33333V4.78625C15.5781 4.6485 15.2912 4.57864 15.0007 4.58333C14.7055 4.57727 14.4152 4.65969 14.1673 4.82V3.33333C14.1673 2.8731 14.5404 2.5 15.0007 2.5ZM12.134 8.43833L12.4802 9.39042C11.9508 9.10911 11.3286 9.05919 10.7611 9.2525C10.6898 8.97542 10.6269 8.72625 10.5761 8.52083C10.5256 8.318 10.6348 8.10946 10.8302 8.03542L11.0386 7.94958C11.2488 7.865 11.4844 7.86967 11.6911 7.9625C11.8975 8.05401 12.0575 8.22592 12.134 8.43833ZM9.87274 24.0471C9.79671 24.1245 9.69248 24.1677 9.58399 24.1667H2.91732C2.74667 24.1656 2.59393 24.0605 2.53185 23.9016C2.46977 23.7426 2.5109 23.5619 2.63565 23.4454C2.6597 23.4221 2.68674 23.402 2.71607 23.3858C2.84098 23.3104 2.91732 23.1751 2.91732 23.0292V18.75C2.91732 18.6521 2.9119 18.5592 2.90732 18.4658C3.91906 19.4381 5.26417 19.987 6.66732 20C7.80014 20.0088 8.91725 19.7347 9.91732 19.2025C9.66232 20.1406 9.54995 21.1118 9.58399 22.0833V23.0292C9.58443 23.1776 9.66379 23.3145 9.79232 23.3888C9.92136 23.4633 10.0008 23.601 10.0007 23.75C10.0009 23.8624 9.95457 23.97 9.87274 24.0471ZM11.0102 17.3308L10.9198 17.4438C9.78728 18.5599 8.25734 19.1797 6.66732 19.1667C4.72815 19.1667 3.37857 17.9263 2.57732 16.8642C2.49148 16.6183 2.39815 16.3817 2.30482 16.1492C1.89599 15.2661 1.67873 14.3064 1.66732 13.3333V4.58333C1.66732 4.1231 2.04041 3.75 2.50065 3.75C2.96089 3.75 3.33398 4.1231 3.33398 4.58333V9.58333C3.33398 9.81345 3.52053 10 3.75065 10C3.98077 10 4.16732 9.81345 4.16732 9.58333V2.5C4.16732 2.03976 4.54041 1.66667 5.00065 1.66667C5.46089 1.66667 5.83398 2.03976 5.83398 2.5V9.58333C5.83398 9.81345 6.02053 10 6.25065 10C6.48077 10 6.66732 9.81345 6.66732 9.58333V1.66667C6.66732 1.20643 7.04041 0.833334 7.50065 0.833334C7.96089 0.833334 8.33399 1.20643 8.33399 1.66667V9.58333C8.33399 9.81345 8.52053 10 8.75065 10C8.98077 10 9.16732 9.81345 9.16732 9.58333V3.33333C9.16732 2.8731 9.54041 2.5 10.0007 2.5C10.4609 2.5 10.834 2.8731 10.834 3.33333V7.14583C10.7977 7.1575 10.7611 7.16292 10.7252 7.1775L10.5169 7.26292C9.93841 7.4942 9.61855 8.11616 9.7669 8.72125C10.2232 10.5667 11.1127 13.8842 12.0348 15.8246C11.7454 16.3602 11.4021 16.8649 11.0102 17.3308ZM23.334 13.3333C23.3226 14.3064 23.1053 15.2661 22.6965 16.1492C22.3148 16.9645 22.1062 17.85 22.084 18.75V23.0292C22.084 23.1751 22.1603 23.3104 22.2852 23.3858C22.3208 23.406 22.3531 23.4315 22.3811 23.4613C22.4585 23.5373 22.5016 23.6415 22.5007 23.75C22.5007 23.9801 22.3141 24.1667 22.084 24.1667H15.4173C15.3049 24.1669 15.1973 24.1206 15.1202 24.0388C15.0428 23.9627 14.9997 23.8585 15.0007 23.75C15.0009 23.6006 15.0812 23.4627 15.2111 23.3888C15.3388 23.314 15.4173 23.1772 15.4173 23.0292V22.0833C15.4173 19.1117 14.7877 18.3254 13.9911 17.3308C13.555 16.8148 13.1807 16.2495 12.8757 15.6467C12.1673 14.2362 11.4532 11.8325 10.9777 10.0675C11.2694 9.91542 11.8777 9.83625 12.9361 10.6363L13.3627 11.8092C13.4351 11.9941 13.6279 12.1023 13.8234 12.0676C14.019 12.033 14.1629 11.8652 14.1673 11.6667V6.66667C14.1673 6.61583 14.1844 5.41667 15.0007 5.41667C15.2258 5.40218 15.4463 5.48532 15.6058 5.64485C15.7653 5.80438 15.8485 6.02486 15.834 6.25V9.58333C15.834 9.81345 16.0205 10 16.2507 10C16.4808 10 16.6673 9.81345 16.6673 9.58333V4.58333C16.6673 4.5325 16.6844 3.33333 17.5007 3.33333C17.7258 3.31885 17.9463 3.40199 18.1058 3.56152C18.2653 3.72104 18.3485 3.94153 18.334 4.16667V9.58333C18.334 9.81345 18.5205 10 18.7507 10C18.9808 10 19.1673 9.81345 19.1673 9.58333V5.41667C19.1673 5.36583 19.1844 4.16667 20.0007 4.16667C20.2258 4.15218 20.4463 4.23532 20.6058 4.39485C20.7653 4.55438 20.8485 4.77486 20.834 5V9.58333C20.834 9.81345 21.0205 10 21.2507 10C21.4808 10 21.6673 9.81345 21.6673 9.58333V7.5C21.6673 7.44917 21.6844 6.25 22.5007 6.25C22.7258 6.23552 22.9463 6.31865 23.1058 6.47818C23.2653 6.63771 23.3485 6.85819 23.334 7.08333V13.3333Z" fill="white"/>
<path d="M20.8333 22.5H16.6667C16.4365 22.5 16.25 22.6865 16.25 22.9167C16.25 23.1468 16.4365 23.3333 16.6667 23.3333H20.8333C21.0635 23.3333 21.25 23.1468 21.25 22.9167C21.25 22.6865 21.0635 22.5 20.8333 22.5Z" fill="white"/>
</g>
<defs>
<clipPath id="clip0_17802_1479">
<rect width="25" height="25" fill="white"/>
</clipPath>
</defs>
</svg>
