<svg width="26" height="26" viewBox="0 0 26 26" fill="none" xmlns="http://www.w3.org/2000/svg">
<g clip-path="url(#clip0_17802_1498)">
<path d="M5.96154 16.8905L1.38727 20.4477C0.700653 20.982 0.27651 21.7854 0.222627 22.6538C0.168744 23.5221 0.490309 24.3718 1.10561 24.9869L1.23041 25.1117C1.79931 25.6805 2.57089 26.0001 3.37541 26C3.43781 26 3.50064 26 3.56347 25.9939C4.43172 25.9402 5.23512 25.5164 5.76957 24.83L9.32681 20.257C9.5391 19.984 9.85144 19.8068 10.1947 19.7647C10.538 19.7226 10.8839 19.819 11.1559 20.0326L17.7612 25.22C18.2787 25.6266 19.0184 25.5823 19.4837 25.1169L20.1658 24.4352C20.3154 24.2846 20.404 24.084 20.4145 23.8719C20.9341 23.7712 21.3404 23.3649 21.4411 22.8453C21.6532 22.8348 21.8539 22.746 22.0044 22.5962L25.3753 19.2257C25.6192 18.9819 25.7561 18.6512 25.7561 18.3064C25.7561 17.9616 25.6192 17.6309 25.3753 17.3871L24.9173 16.9316V9.1C24.9173 8.14271 24.1412 7.36667 23.1839 7.36667C22.7053 7.36667 22.3173 6.97865 22.3173 6.5V3.03333C22.3173 2.07604 21.5412 1.3 20.5839 1.3C19.6266 1.3 18.8506 2.07604 18.8506 3.03333V4.33333C18.8506 4.81198 18.4626 5.2 17.9839 5.2C17.5053 5.2 17.1173 4.81198 17.1173 4.33333V1.73333C17.1173 0.77604 16.3412 0 15.3839 0C14.4266 0 13.6506 0.77604 13.6506 1.73333V2.16667C13.6506 2.64531 13.2626 3.03333 12.7839 3.03333C12.3241 3.03237 11.883 3.2154 11.5589 3.54163C11.5537 3.54683 11.5498 3.55333 11.5446 3.55897L8.82847 0.8424C8.58467 0.598555 8.25398 0.461561 7.90916 0.461561C7.56434 0.461561 7.23364 0.598555 6.98984 0.8424L3.61937 4.2133C3.46945 4.36376 3.38067 4.56449 3.37021 4.77663C2.84777 4.87764 2.44027 5.2879 2.34277 5.811C2.13175 5.81928 1.93119 5.90506 1.77944 6.05193L1.09911 6.73357C0.634079 7.1992 0.590349 7.93889 0.997272 8.45607L6.18601 15.0614C6.39959 15.3334 6.49599 15.6793 6.45386 16.0226C6.41173 16.3658 6.23456 16.6782 5.96154 16.8905ZM12.7839 3.9C13.7412 3.9 14.5173 3.12396 14.5173 2.16667V1.73333C14.5173 1.25469 14.9053 0.866667 15.3839 0.866667C15.8626 0.866667 16.2506 1.25469 16.2506 1.73333V4.33333C16.2506 5.29063 17.0266 6.06667 17.9839 6.06667C18.9412 6.06667 19.7173 5.29063 19.7173 4.33333V3.03333C19.7173 2.55469 20.1053 2.16667 20.5839 2.16667C21.0626 2.16667 21.4506 2.55469 21.4506 3.03333V6.5C21.4506 7.45729 22.2266 8.23333 23.1839 8.23333C23.6626 8.23333 24.0506 8.62135 24.0506 9.1V16.065L12.1573 4.1717C12.1625 4.16607 12.1664 4.15957 12.1716 4.15437C12.3335 3.99108 12.554 3.89946 12.7839 3.9ZM7.60257 1.45513C7.68385 1.37376 7.79415 1.32804 7.90916 1.32804C8.02417 1.32804 8.13446 1.37376 8.21574 1.45513L8.52211 1.76193L6.07074 4.2133C5.95809 4.3221 5.91291 4.48321 5.95257 4.63472C5.99223 4.78623 6.11055 4.90455 6.26205 4.9442C6.41356 4.98386 6.57467 4.93868 6.68347 4.82603L9.13484 2.37467L9.74757 2.9874L9.13484 3.60057C9.02219 3.70937 8.97701 3.87048 9.01667 4.02199C9.05633 4.17349 9.17465 4.29181 9.32615 4.33147C9.47766 4.37113 9.63877 4.32595 9.74757 4.2133L10.3603 3.60013L10.9735 4.2133L9.74757 5.43877C9.63492 5.54757 9.58975 5.70868 9.6294 5.86019C9.66906 6.01169 9.78738 6.13001 9.93889 6.16967C10.0904 6.20933 10.2515 6.16415 10.3603 6.0515L11.5862 4.82603L12.8117 6.0515L10.9735 7.89013C10.8608 7.99893 10.8156 8.16005 10.8553 8.31155C10.895 8.46306 11.0133 8.58138 11.1648 8.62104C11.3163 8.66069 11.4774 8.61551 11.5862 8.50287L13.4248 6.66423L14.9567 8.1965L13.7312 9.4224C13.6186 9.5312 13.5734 9.69231 13.613 9.84382C13.6527 9.99533 13.771 10.1136 13.9225 10.1533C14.074 10.193 14.2351 10.1478 14.3439 10.0351L15.5694 8.80923L16.1826 9.42197L13.4248 12.1797C13.3122 12.2885 13.267 12.4496 13.3067 12.6011C13.3463 12.7526 13.4646 12.8709 13.6162 12.9106C13.7677 12.9503 13.9288 12.9051 14.0376 12.7924L16.7953 10.0347L17.408 10.6479L16.4885 11.567C16.3759 11.6758 16.3307 11.8369 16.3703 11.9884C16.41 12.1399 16.5283 12.2582 16.6798 12.2979C16.8313 12.3375 16.9924 12.2923 17.1012 12.1797L18.0208 11.2606L19.553 12.7924L17.7144 14.6311C17.6018 14.7399 17.5566 14.901 17.5962 15.0525C17.6359 15.204 17.7542 15.3223 17.9057 15.362C18.0572 15.4016 18.2183 15.3564 18.3271 15.2438L20.1658 13.4056L21.3912 14.6311L20.1658 15.857C20.0531 15.9658 20.0079 16.1269 20.0476 16.2784C20.0873 16.4299 20.2056 16.5482 20.3571 16.5879C20.5086 16.6275 20.6697 16.5823 20.7785 16.4697L22.004 15.2438L22.6171 15.857L22.004 16.4697C21.8913 16.5785 21.8461 16.7396 21.8858 16.8911C21.9255 17.0426 22.0438 17.1609 22.1953 17.2006C22.3468 17.2403 22.5079 17.1951 22.6167 17.0824L23.2299 16.4697L23.8426 17.0824L21.3912 19.5338C21.2786 19.6426 21.2334 19.8037 21.2731 19.9552C21.3127 20.1067 21.431 20.225 21.5826 20.2647C21.7341 20.3044 21.8952 20.2592 22.004 20.1465L24.4553 17.6952L24.7621 18.0015C24.8435 18.0828 24.8892 18.1931 24.8892 18.3081C24.8892 18.4231 24.8435 18.5334 24.7621 18.6147L21.3921 21.9856L4.23211 4.8256L7.60257 1.45513ZM3.31257 5.74513C3.48179 5.57597 3.75609 5.57597 3.92531 5.74513L20.4721 22.2915C20.6413 22.4608 20.6413 22.7351 20.4721 22.9043C20.3006 23.0677 20.031 23.0677 19.8594 22.9043L3.31301 6.35787C3.14384 6.18865 3.14384 5.91435 3.31301 5.74513H3.31257ZM6.86591 14.5258L1.67717 7.92047C1.54172 7.74789 1.55661 7.50132 1.71184 7.3463L2.39347 6.66423L2.69984 6.9706L19.2467 23.5174L19.251 23.5209L19.5543 23.8242L18.8718 24.5063C18.7168 24.6615 18.4702 24.6764 18.2977 24.541L11.6915 19.3501C11.2382 18.9939 10.6616 18.8331 10.0894 18.9032C9.51718 18.9733 8.9965 19.2685 8.64257 19.7236L5.08534 24.297C4.70381 24.7875 4.13002 25.0906 3.50978 25.1292C2.88955 25.1679 2.28259 24.9383 1.84314 24.4989L1.71834 24.3741C1.27895 23.9347 1.0494 23.3277 1.08803 22.7075C1.12666 22.0873 1.42975 21.5135 1.92027 21.1319L6.49367 17.5747C6.94875 17.2208 7.24401 16.7001 7.31411 16.1279C7.38422 15.5556 7.22338 14.9791 6.86721 14.5258H6.86591Z" fill="white"/>
<path d="M3.00589 22.5979C2.88193 22.7218 2.84483 22.9082 2.91189 23.0702C2.97896 23.2321 3.13697 23.3377 3.31225 23.3377C3.48753 23.3377 3.64555 23.2321 3.71261 23.0702C3.77968 22.9082 3.74258 22.7218 3.61862 22.5979C3.4494 22.4287 3.1751 22.4287 3.00589 22.5979Z" fill="white"/>
<path d="M8.52265 6.66424L8.21629 6.97061C8.10364 7.0794 8.05846 7.24052 8.09812 7.39203C8.13777 7.54353 8.25609 7.66185 8.4076 7.70151C8.55911 7.74116 8.72022 7.69599 8.82902 7.58334L9.13539 7.27697C9.24803 7.16817 9.29321 7.00706 9.25356 6.85555C9.2139 6.70405 9.09558 6.58573 8.94407 6.54607C8.79257 6.50641 8.63145 6.55159 8.52265 6.66424Z" fill="white"/>
<path d="M15.2626 12.7924L14.6499 13.4056C14.5372 13.5144 14.4921 13.6755 14.5317 13.827C14.5714 13.9785 14.6897 14.0968 14.8412 14.1365C14.9927 14.1762 15.1538 14.131 15.2626 14.0183L15.8753 13.4056C15.9849 13.2961 16.0277 13.1366 15.9877 12.987C15.9476 12.8374 15.8309 12.7205 15.6813 12.6804C15.5318 12.6403 15.3721 12.683 15.2626 12.7924Z" fill="white"/>
<path d="M18.9406 17.0824L18.6343 17.3888C18.5216 17.4976 18.4764 17.6587 18.5161 17.8102C18.5557 17.9617 18.6741 18.08 18.8256 18.1197C18.9771 18.1594 19.1382 18.1142 19.247 18.0015L19.5534 17.6952C19.7176 17.5251 19.7152 17.2549 19.5481 17.0877C19.3809 16.9206 19.1107 16.9182 18.9406 17.0824Z" fill="white"/>
</g>
<defs>
<clipPath id="clip0_17802_1498">
<rect width="26" height="26" fill="white"/>
</clipPath>
</defs>
</svg>
