<svg width="60" height="60" viewBox="0 0 60 60" fill="none" xmlns="http://www.w3.org/2000/svg">
<g clip-path="url(#clip0_17922_4638)">
<path d="M54.1406 52.9688C53.4938 52.9688 52.9688 53.4938 52.9688 54.1406C52.9688 54.7874 53.4938 55.3125 54.1406 55.3125C54.7874 55.3125 55.3125 54.7874 55.3125 54.1406C55.3125 53.4938 54.7874 52.9688 54.1406 52.9688Z" fill="#FFA826"/>
<path d="M15.2344 7.03125C15.8812 7.03125 16.4062 6.5062 16.4062 5.85938C16.4062 5.21255 15.8812 4.6875 15.2344 4.6875C14.5876 4.6875 14.0625 5.21255 14.0625 5.85938C14.0625 6.5062 14.5876 7.03125 15.2344 7.03125Z" fill="#FFA826"/>
<path d="M58.8281 38.9062H36.0095C37.9601 36.9553 51.9676 22.9472 54.2976 20.6168C54.7554 20.1595 54.7554 19.4174 54.2976 18.9597L41.0403 5.70236C40.583 5.2446 39.841 5.2446 39.3832 5.70236C37.0477 8.03787 23.0493 22.0349 21.0938 23.9905V1.17188C21.0938 0.524597 20.5692 0 19.9219 0H1.17188C0.524597 0 0 0.524597 0 1.17188V49.4531C0 55.2686 4.73145 60 10.5469 60H58.8281C59.4754 60 60 59.4754 60 58.8281V40.0781C60 39.4308 59.4754 38.9062 58.8281 38.9062ZM30.2673 18.132L41.868 29.7327L33.582 38.0186L21.9814 26.4175L30.2673 18.132ZM18.75 29.5312H2.34375V17.1094H18.75V29.5312ZM2.34375 31.875H18.75V43.5938H2.34375V31.875ZM21.0938 49.4531V28.8451L31.9249 39.6762L21.0347 50.5669C21.0727 50.1988 21.0938 49.8276 21.0938 49.4531ZM30.4688 44.447L33.6658 41.25H42.8906V57.6562H30.4688V44.447ZM40.2118 8.18802L51.812 19.7882L43.5255 28.0751L31.9249 16.4745L40.2118 8.18802ZM18.75 2.34375V14.7656H2.34375V7.03125H10.5469C11.1942 7.03125 11.7188 6.50665 11.7188 5.85938C11.7188 5.2121 11.1942 4.6875 10.5469 4.6875H2.34375V2.34375H18.75ZM2.34375 49.4531V45.9375H18.75V49.4531C18.75 53.9822 15.0792 57.6562 10.5469 57.6562C6.02371 57.6562 2.34375 53.9763 2.34375 49.4531ZM28.125 46.7908V57.6562H17.1758C18.0528 56.9453 18.3083 56.58 28.125 46.7908ZM57.6562 57.6562H45.2344V41.25H52.9688V49.4531C52.9688 50.1004 53.4933 50.625 54.1406 50.625C54.7879 50.625 55.3125 50.1004 55.3125 49.4531V41.25H57.6562V57.6562Z" fill="#FFA826"/>
<path d="M14.0625 51.7969C14.0625 49.8582 12.4855 48.2812 10.5469 48.2812C8.60825 48.2812 7.03125 49.8582 7.03125 51.7969C7.03125 53.7355 8.60825 55.3125 10.5469 55.3125C12.4855 55.3125 14.0625 53.7355 14.0625 51.7969ZM9.375 51.7969C9.375 51.1505 9.90051 50.625 10.5469 50.625C11.1932 50.625 11.7188 51.1505 11.7188 51.7969C11.7188 52.4432 11.1932 52.9688 10.5469 52.9688C9.90051 52.9688 9.375 52.4432 9.375 51.7969Z" fill="#FFA826"/>
</g>
<defs>
<clipPath id="clip0_17922_4638">
<rect width="60" height="60" fill="white"/>
</clipPath>
</defs>
</svg>
