<svg width="80" height="80" viewBox="0 0 80 80" fill="none" xmlns="http://www.w3.org/2000/svg">
<g clip-path="url(#clip0_17795_884)">
<path d="M69.3333 58.6667H50.472L66.8133 49.2347C70.5495 47.0744 72.6158 42.8755 72.048 38.5972C71.4802 34.3189 68.3904 30.8044 64.22 29.6933C61.4945 28.9555 58.587 29.3397 56.1467 30.76L55.888 30.9093L55.488 31.1373L55.4173 31.1787L54.428 31.7493L39.8 40.2027L49.2333 23.8573C50.6515 21.4081 51.0374 18.4953 50.3058 15.7612C49.5742 13.0272 47.7852 10.6964 45.3333 9.28267C40.2283 6.36964 33.7296 8.11119 30.7653 13.1867L21.3333 29.5253V10.6667C21.3333 4.77563 16.5577 0 10.6667 0C4.77563 0 0 4.77563 0 10.6667V69.3333C0.00661317 75.2216 4.77837 79.9934 10.6667 80H69.3333C75.2244 80 80 75.2244 80 69.3333C80 63.4423 75.2244 58.6667 69.3333 58.6667ZM2.66667 46.6667H11.4373L2.66667 61.8667V46.6667ZM18.6667 29.3333H2.66667V17.3333H18.6667V29.3333ZM18.6667 32V34.144L12.9773 44H2.66667V32H18.6667ZM37.592 38.6907L23.7387 30.6907L29.7387 20.2987L43.5907 28.2987L37.592 38.6907ZM36.2587 41L35.1813 42.8667L25.344 48.5467L16.4107 43.392L22.4107 33.0027L36.2587 41ZM49.3067 56.2667L41.3067 42.416L51.6987 36.416L59.6987 50.268L49.3067 56.2667ZM46.9973 57.6L45.1307 58.6747H33.7693L28.6093 49.7493L39 43.7493L46.9973 57.6ZM7.47867 58.868L15.0787 45.7093L22.6787 50.0947L7.47867 58.868ZM26.2987 51.0827L30.6893 58.6667H13.148L26.2987 51.0827ZM48 61.3333V77.3333H36V61.3333H48ZM50.6667 61.3333H62.6667V77.3333H50.6667V61.3333ZM55.688 34.1093L55.94 33.964L56.64 33.564L56.7547 33.4973L57.492 33.072C61.3138 30.8766 66.1914 32.1858 68.4 36C70.6055 39.8274 69.2976 44.7178 65.476 46.9333L62.0093 48.9333L54.0093 35.0813L55.688 34.1093ZM33.0733 14.5227C34.6919 11.7133 37.846 10.1586 41.06 10.5861C44.2739 11.0135 46.912 13.3386 47.74 16.4733C48.2891 18.5161 47.9976 20.6936 46.9307 22.52L44.9307 25.9867L31.0787 17.9867L33.0733 14.5227ZM10.6667 2.66667C15.0831 2.67108 18.6623 6.25022 18.6667 10.6667V14.6667H2.66667V10.6667C2.67108 6.25022 6.25022 2.67108 10.6667 2.66667ZM2.66667 69.3333C2.67108 64.9169 6.25022 61.3377 10.6667 61.3333H33.3333V77.3333H10.6667C6.25022 77.3289 2.67108 73.7498 2.66667 69.3333ZM69.3333 77.3333H65.3333V61.3333H69.3333C73.7516 61.3333 77.3333 64.9151 77.3333 69.3333C77.3333 73.7516 73.7516 77.3333 69.3333 77.3333Z" fill="#FFA826"/>
<path d="M10.6673 64C7.7218 64 5.33398 66.3878 5.33398 69.3333C5.33398 72.2789 7.7218 74.6667 10.6673 74.6667C13.6128 74.6667 16.0007 72.2789 16.0007 69.3333C16.0007 66.3878 13.6128 64 10.6673 64ZM10.6673 72C9.19456 72 8.00065 70.8061 8.00065 69.3333C8.00065 67.8606 9.19456 66.6667 10.6673 66.6667C12.1401 66.6667 13.334 67.8606 13.334 69.3333C13.334 70.8061 12.1401 72 10.6673 72Z" fill="#FFA826"/>
</g>
<defs>
<clipPath id="clip0_17795_884">
<rect width="80" height="80" fill="white"/>
</clipPath>
</defs>
</svg>
