<svg width="60" height="60" viewBox="0 0 60 60" fill="none" xmlns="http://www.w3.org/2000/svg">
<path d="M37.0312 25.3125C36.3844 25.3125 35.8594 25.8376 35.8594 26.4844C35.8594 27.1312 36.3844 27.6562 37.0312 27.6562C37.6781 27.6562 38.2031 27.1312 38.2031 26.4844C38.2031 25.8376 37.6781 25.3125 37.0312 25.3125Z" fill="#FF6726"/>
<path d="M37.0312 32.3438C36.3844 32.3438 35.8594 32.8688 35.8594 33.5156C35.8594 34.1624 36.3844 34.6875 37.0312 34.6875C37.6781 34.6875 38.2031 34.1624 38.2031 33.5156C38.2031 32.8688 37.6781 32.3438 37.0312 32.3438Z" fill="#FF6726"/>
<path d="M8.90625 37.0312C8.25943 37.0312 7.73438 37.5563 7.73438 38.2031C7.73438 38.8499 8.25943 39.375 8.90625 39.375C9.55307 39.375 10.0781 38.8499 10.0781 38.2031C10.0781 37.5563 9.55307 37.0312 8.90625 37.0312Z" fill="#FF6726"/>
<path d="M59.37 16.0703C58.9827 15.8684 58.5158 15.8986 58.1574 16.1485L48.3814 22.9688H45.2343V21.7969C45.2343 19.8582 43.6573 18.2812 41.7187 18.2812H37.3631C39.3131 16.5619 40.5468 14.0483 40.5468 11.25C40.5468 6.08047 36.3413 1.875 31.1718 1.875C27.6457 1.875 24.569 3.83286 22.9687 6.71768C21.3684 3.83286 18.2917 1.875 14.7656 1.875C9.59608 1.875 5.39061 6.08047 5.39061 11.25C5.39061 14.0483 6.62429 16.5619 8.57436 18.2812H3.51562C1.57699 18.2812 0 19.8582 0 21.7969V42.8906C0 44.8293 1.57699 46.4062 3.51562 46.4062H10.0781V49.9219C10.0781 50.5692 10.6027 51.0938 11.25 51.0938H14.7656V56.9531C14.7656 57.6004 15.2902 58.125 15.9375 58.125H29.9999C30.6472 58.125 31.1718 57.6004 31.1718 56.9531V51.0938H34.6874C35.3347 51.0938 35.8593 50.5692 35.8593 49.9219V46.4062H41.7187C43.6573 46.4062 45.2343 44.8293 45.2343 42.8906V39.375H48.3814L58.1574 46.1957C58.5117 46.4424 58.9786 46.4777 59.37 46.2735C59.7573 46.0712 59.9999 45.6711 59.9999 45.2344V17.1094C59.9999 16.6727 59.7573 16.2726 59.37 16.0703ZM31.1718 4.21875C35.0491 4.21875 38.2031 7.3732 38.2031 11.25C38.2031 15.1273 35.0491 18.2812 31.1718 18.2812C27.2946 18.2812 24.1406 15.1273 24.1406 11.25C24.1406 7.3732 27.2946 4.21875 31.1718 4.21875ZM24.9806 18.2812H20.9564C21.7616 17.5717 22.4446 16.7271 22.9687 15.7823C23.4928 16.7271 24.1758 17.5717 24.9806 18.2812ZM7.73436 11.25C7.73436 7.3732 10.8883 4.21875 14.7656 4.21875C18.6428 4.21875 21.7968 7.3732 21.7968 11.25C21.7968 15.1273 18.6428 18.2812 14.7656 18.2812C10.8883 18.2812 7.73436 15.1273 7.73436 11.25ZM28.8281 55.7812H17.1093V51.0938H28.8281V55.7812ZM33.5156 48.75H12.4219V46.4062H33.5156V48.75ZM42.8905 42.8906C42.8905 43.537 42.365 44.0625 41.7187 44.0625H3.51562C2.86926 44.0625 2.34375 43.537 2.34375 42.8906V21.7969C2.34375 21.151 2.86926 20.625 3.51562 20.625H41.7187C42.365 20.625 42.8905 21.151 42.8905 21.7969V42.8906ZM45.2343 25.3125H47.578V37.0312H45.2343V25.3125ZM57.6561 42.9881L49.9218 37.592V24.7522L57.6561 19.3561V42.9881Z" fill="#FF6726"/>
<path d="M14.7656 7.73438C12.827 7.73438 11.25 9.31137 11.25 11.25C11.25 13.1886 12.827 14.7656 14.7656 14.7656C16.7042 14.7656 18.2812 13.1886 18.2812 11.25C18.2812 9.31137 16.7042 7.73438 14.7656 7.73438ZM14.7656 12.4219C14.1193 12.4219 13.5937 11.8964 13.5937 11.25C13.5937 10.6041 14.1193 10.0781 14.7656 10.0781C15.412 10.0781 15.9375 10.6041 15.9375 11.25C15.9375 11.8964 15.412 12.4219 14.7656 12.4219Z" fill="#FF6726"/>
<path d="M31.1719 14.7656C33.1105 14.7656 34.6875 13.1886 34.6875 11.25C34.6875 9.31137 33.1105 7.73438 31.1719 7.73438C29.2332 7.73438 27.6562 9.31137 27.6562 11.25C27.6562 13.1886 29.2332 14.7656 31.1719 14.7656ZM31.1719 10.0781C31.8182 10.0781 32.3437 10.6041 32.3437 11.25C32.3437 11.8964 31.8182 12.4219 31.1719 12.4219C30.5255 12.4219 30 11.8964 30 11.25C30 10.6041 30.5255 10.0781 31.1719 10.0781Z" fill="#FF6726"/>
<path d="M26.4843 33.5156V26.4844C26.4843 25.8371 25.9597 25.3125 25.3125 25.3125H8.90625C8.25897 25.3125 7.73438 25.8371 7.73438 26.4844V33.5156C7.73438 34.1629 8.25897 34.6875 8.90625 34.6875H25.3125C25.9597 34.6875 26.4843 34.1629 26.4843 33.5156ZM24.1406 32.3438H10.0781V27.6562H24.1406V32.3438Z" fill="#FF6726"/>
<path d="M37.0312 37.0312H13.5937C12.9465 37.0312 12.4219 37.5558 12.4219 38.2031C12.4219 38.8504 12.9465 39.375 13.5937 39.375H37.0312C37.6785 39.375 38.2031 38.8504 38.2031 38.2031C38.2031 37.5558 37.6785 37.0312 37.0312 37.0312Z" fill="#FF6726"/>
</svg>
