<svg width="60" height="60" viewBox="0 0 60 60" fill="none" xmlns="http://www.w3.org/2000/svg">
<g clip-path="url(#clip0_17730_1450)">
<path d="M39.375 31.875C40.0218 31.875 40.5469 31.3499 40.5469 30.7031C40.5469 30.0563 40.0218 29.5312 39.375 29.5312C38.7282 29.5312 38.2031 30.0563 38.2031 30.7031C38.2031 31.3499 38.7282 31.875 39.375 31.875Z" fill="#FF6726"/>
<path d="M54.1406 22.5H51.0938V15.2344C51.0938 13.2957 49.5168 11.7188 47.5781 11.7188H45.2344V11.5173C45.2344 10.584 44.8576 9.68491 44.2044 9.03122L36.2032 1.02997C35.5623 0.389557 34.6674 0 33.717 0H18.2812C16.3426 0 14.7656 1.577 14.7656 3.51562V11.7188H12.4219C10.4832 11.7188 8.90625 13.2957 8.90625 15.2344V22.5H5.85938C2.62848 22.5 0 25.1285 0 28.3594V44.7656C0 47.9965 2.62848 50.625 5.85938 50.625H14.7656V58.8281C14.7656 59.4754 15.2902 60 15.9375 60H44.0625C44.7098 60 45.2344 59.4754 45.2344 58.8281V50.625H54.1406C57.3715 50.625 60 47.9965 60 44.7656V28.3594C60 25.1285 57.3715 22.5 54.1406 22.5ZM47.5781 14.0625C48.2245 14.0625 48.75 14.588 48.75 15.2344V22.5H45.2344V14.0625H47.5781ZM41.2331 9.375H35.8594V4.00131L41.2331 9.375ZM17.1094 3.51562C17.1094 2.86926 17.6349 2.34375 18.2812 2.34375H33.5156V10.5469C33.5156 11.1942 34.0402 11.7188 34.6875 11.7188H42.8906V22.5H17.1094V3.51562ZM11.25 15.2344C11.25 14.588 11.7755 14.0625 12.4219 14.0625H14.7656V22.5H11.25V15.2344ZM5.85938 24.8438H54.1406C56.0793 24.8438 57.6562 26.4207 57.6562 28.3594V36.5625H2.34375V28.3594C2.34375 26.4207 3.92075 24.8438 5.85938 24.8438ZM11.25 48.2812V44.7656C11.25 44.1193 11.7755 43.5938 12.4219 43.5938H14.7656V48.2812H11.25ZM42.8906 57.6562H17.1094V43.5938H42.8906V57.6562ZM45.2344 43.5938H47.5781C48.2245 43.5938 48.75 44.1193 48.75 44.7656V48.2812H45.2344V43.5938ZM54.1406 48.2812H51.0938V44.7656C51.0938 42.827 49.5168 41.25 47.5781 41.25H12.4219C10.4832 41.25 8.90625 42.827 8.90625 44.7656V48.2812H5.85938C3.92075 48.2812 2.34375 46.7043 2.34375 44.7656V38.9062H57.6562V44.7656C57.6562 46.7043 56.0793 48.2812 54.1406 48.2812Z" fill="#FF6726"/>
<path d="M11.25 34.2188C13.1886 34.2188 14.7656 32.6418 14.7656 30.7031C14.7656 28.7645 13.1886 27.1875 11.25 27.1875C9.31137 27.1875 7.73438 28.7645 7.73438 30.7031C7.73438 32.6418 9.31137 34.2188 11.25 34.2188ZM11.25 29.5312C11.8964 29.5312 12.4219 30.0568 12.4219 30.7031C12.4219 31.3495 11.8964 31.875 11.25 31.875C10.6036 31.875 10.0781 31.3495 10.0781 30.7031C10.0781 30.0568 10.6036 29.5312 11.25 29.5312Z" fill="#FF6726"/>
<path d="M20.625 34.2188C22.5636 34.2188 24.1406 32.6418 24.1406 30.7031C24.1406 28.7645 22.5636 27.1875 20.625 27.1875C18.6864 27.1875 17.1094 28.7645 17.1094 30.7031C17.1094 32.6418 18.6864 34.2188 20.625 34.2188ZM20.625 29.5312C21.2714 29.5312 21.7969 30.0568 21.7969 30.7031C21.7969 31.3495 21.2714 31.875 20.625 31.875C19.9786 31.875 19.4531 31.3495 19.4531 30.7031C19.4531 30.0568 19.9786 29.5312 20.625 29.5312Z" fill="#FF6726"/>
<path d="M44.0625 31.875H51.0938C51.741 31.875 52.2656 31.3504 52.2656 30.7031C52.2656 30.0558 51.741 29.5312 51.0938 29.5312H44.0625C43.4152 29.5312 42.8906 30.0558 42.8906 30.7031C42.8906 31.3504 43.4152 31.875 44.0625 31.875Z" fill="#FF6726"/>
<path d="M37.0312 51.7969H22.9688C22.3215 51.7969 21.7969 52.3215 21.7969 52.9688C21.7969 53.616 22.3215 54.1406 22.9688 54.1406H37.0312C37.6785 54.1406 38.2031 53.616 38.2031 52.9688C38.2031 52.3215 37.6785 51.7969 37.0312 51.7969Z" fill="#FF6726"/>
<path d="M37.0312 47.1094H22.9688C22.3215 47.1094 21.7969 47.634 21.7969 48.2812C21.7969 48.9285 22.3215 49.4531 22.9688 49.4531H37.0312C37.6785 49.4531 38.2031 48.9285 38.2031 48.2812C38.2031 47.634 37.6785 47.1094 37.0312 47.1094Z" fill="#FF6726"/>
</g>
<defs>
<clipPath id="clip0_17730_1450">
<rect width="60" height="60" fill="white"/>
</clipPath>
</defs>
</svg>
