<svg width="64" height="64" viewBox="0 0 64 64" fill="none" xmlns="http://www.w3.org/2000/svg">
<path d="M39.5 38.25C38.8101 38.25 38.25 38.8101 38.25 39.5C38.25 40.1899 38.8101 40.75 39.5 40.75C40.1899 40.75 40.75 40.1899 40.75 39.5C40.75 38.8101 40.1899 38.25 39.5 38.25Z" fill="#160A05"/>
<path d="M28.25 7.5C18.5806 7.5 10.75 15.3252 10.75 25V46.5C10.75 56.1494 18.6006 64 28.25 64C37.8994 64 45.75 56.1494 45.75 46.5V25C45.75 15.3506 37.8994 7.5 28.25 7.5ZM28.25 25C26.8716 25 25.75 23.8784 25.75 22.5V20C25.75 18.6191 26.8691 17.5 28.25 17.5C29.6284 17.5 30.75 18.6216 30.75 20V22.5C30.75 23.8784 29.6284 25 28.25 25ZM27 10.0518V15.1572C24.8975 15.6968 23.25 17.6172 23.25 20V22.5C23.25 24.8252 24.8457 26.7852 27 27.3418V33.25H13.25V25C13.25 17.0337 19.3999 10.6748 27 10.0518ZM28.25 61.5C19.979 61.5 13.25 54.771 13.25 46.5V35.75H43.25V46.5C43.25 54.771 36.521 61.5 28.25 61.5ZM43.25 33.25H29.5V27.3418C31.6543 26.7852 33.25 24.8257 33.25 22.5V20C33.25 17.6743 31.6543 15.7148 29.5 15.1582V10.0527C37.1885 10.6899 43.25 17.1499 43.25 25V33.25Z" fill="#160A05"/>
<path d="M39.5002 43.25C38.8098 43.25 38.2502 43.8096 38.2502 44.5V46.5C38.2502 49.8379 36.5881 52.9448 33.8039 54.8115C33.2306 55.1963 33.0773 55.9727 33.4621 56.5459C33.8469 57.1196 34.6232 57.2725 35.1965 56.8882C38.674 54.5562 40.7502 50.6729 40.7502 46.5V44.5C40.7502 43.8096 40.1906 43.25 39.5002 43.25Z" fill="#160A05"/>
<path d="M52 15C52.6904 15 53.25 14.4404 53.25 13.75C53.25 6.16846 47.0815 0 39.5 0C38.8096 0 38.25 0.55957 38.25 1.25C38.25 1.94043 38.8096 2.5 39.5 2.5C45.7031 2.5 50.75 7.54688 50.75 13.75C50.75 14.4404 51.3096 15 52 15Z" fill="#160A05"/>
<path d="M47 15C47.6904 15 48.25 14.4404 48.25 13.75C48.25 8.92529 44.3247 5 39.5 5C38.8096 5 38.25 5.55957 38.25 6.25C38.25 6.94043 38.8096 7.5 39.5 7.5C42.9463 7.5 45.75 10.3037 45.75 13.75C45.75 14.4404 46.3096 15 47 15Z" fill="#160A05"/>
</svg>
