<svg width="51" height="45" viewBox="0 0 51 45" fill="none" xmlns="http://www.w3.org/2000/svg">
<path d="M32.8689 34.239C32.3289 34.239 31.8906 34.6773 31.8906 35.2173C31.8906 35.7572 32.3289 36.1955 32.8689 36.1955C33.4088 36.1955 33.8471 35.7572 33.8471 35.2173C33.8471 34.6773 33.4088 34.239 32.8689 34.239Z" fill="#FF6726"/>
<path d="M43.6304 10.9623V7.33696C43.6304 5.44425 42.0996 3.91304 40.2065 3.91304C39.6154 3.91304 39.059 4.0636 38.5733 4.32842C38.1281 2.95389 36.8361 1.95652 35.3152 1.95652C34.7241 1.95652 34.1677 2.10708 33.682 2.3719C33.2368 0.997367 31.9448 0 30.4239 0C29.4667 0 28.6004 0.395508 27.9783 1.031C27.3561 0.395508 26.4899 0 25.5326 0C23.6445 0 22.1087 1.53579 22.1087 3.42391V8.11269C20.7227 8.52386 19.5048 9.36073 18.6164 10.5278C15.8452 10.8656 13.8672 11.198 12.6207 11.5366C11.1182 9.5732 8.40617 9.05617 6.28991 10.2763L0.484927 13.6666C0.18457 13.842 0 14.1638 0 14.5115C0 14.8592 0.18457 15.1806 0.484545 15.3564L6.2945 18.7505C8.26822 19.8885 10.843 19.5278 12.4071 17.7436C13.6028 18.0852 15.4932 18.4165 18.2323 18.7654C18.5117 19.2198 18.8434 19.6401 19.2228 20.0192L22.633 23.4293C23.5566 24.353 24.0652 25.5811 24.0652 26.8877V29.3478H23.5761C21.688 29.3478 20.1522 30.8836 20.1522 32.7717C20.1522 34.1348 20.9531 35.3141 22.1087 35.8647V44.0217C22.1087 44.5621 22.5466 45 23.087 45H42.6522C43.1925 45 43.6304 44.5621 43.6304 44.0217V35.8647C44.786 35.3141 45.587 34.1348 45.587 32.7717C45.587 30.8836 44.0512 29.3478 42.163 29.3478H41.6739V26.6439C41.6739 25.4329 41.9464 24.2131 42.4615 23.1171C43.2479 21.4457 43.6301 19.9172 43.6304 18.4452C47.9722 17.5579 50.087 16.3217 50.087 14.6739C50.087 12.4797 45.8992 11.459 43.6304 10.9623ZM40.2065 5.86957C41.0178 5.86957 41.6739 6.52531 41.6739 7.33696V11.25C41.6739 12.0704 41.004 12.7174 40.2065 12.7174C39.3975 12.7174 38.7391 12.059 38.7391 11.25V7.33696C38.7391 6.52798 39.3975 5.86957 40.2065 5.86957ZM35.3152 3.91304C36.1242 3.91304 36.7826 4.57146 36.7826 5.38043V10.2717C36.7826 11.0807 36.1242 11.7391 35.3152 11.7391C34.5074 11.7391 33.8478 11.0864 33.8478 10.2717V5.38043C33.8478 4.57146 34.5062 3.91304 35.3152 3.91304ZM30.4239 1.95652C31.2329 1.95652 31.8913 2.61494 31.8913 3.42391V8.23994C31.3594 7.97359 30.7602 7.82609 30.1304 7.82609H28.9565V3.42391C28.9565 2.61494 29.6149 1.95652 30.4239 1.95652ZM24.0652 3.42391C24.0652 2.61494 24.7236 1.95652 25.5326 1.95652C26.3416 1.95652 27 2.61494 27 3.42391V7.82609H24.0652V3.42391ZM17.3859 16.6797C15.6556 16.4409 14.3239 16.2078 13.4018 15.9835C13.5508 15.5104 13.628 15.0148 13.628 14.5115C13.628 14.1141 13.5791 13.7174 13.484 13.333C14.4141 13.1075 15.7657 12.8756 17.5265 12.6394C17.3229 13.294 17.2174 13.9784 17.2174 14.6739V15.1776C17.2174 15.6824 17.2751 16.1868 17.3859 16.6797ZM7.27696 17.0584L2.91759 14.5115L7.27199 11.9684C9.21285 10.8495 11.6715 12.242 11.6715 14.5115C11.6715 16.7481 9.23463 18.1876 7.27696 17.0584ZM24.0163 22.046L20.6061 18.6359C20.2454 18.2751 19.9451 17.8628 19.7131 17.4104C19.3604 16.7214 19.1739 15.9495 19.1739 15.1779V14.6739C19.1739 12.0051 21.3295 9.78261 24.0652 9.78261H30.1304C31.1893 9.78261 32.087 10.6478 32.087 11.7391C32.087 12.8179 31.2092 13.6957 30.1304 13.6957H24.2628C23.7339 13.6957 23.3006 14.116 23.2849 14.6449C23.2692 15.1734 23.6766 15.6189 24.2047 15.6503C28.5495 15.9101 30.73 19.8694 29.6711 23.2673C29.5102 23.7832 29.798 24.3316 30.3139 24.4924C30.8294 24.6533 31.3781 24.3652 31.5386 23.8497C31.978 22.44 31.9994 20.9359 31.6444 19.5614C35.212 19.5293 38.7002 19.2626 41.6632 18.7979C41.6055 19.8736 41.2864 21.0181 40.6907 22.2845C40.0541 23.6399 39.7174 25.1474 39.7174 26.6439V29.3478H26.0217V26.8877C26.0217 25.0584 25.3094 23.3392 24.0163 22.046ZM43.6304 32.7717C43.6304 33.5807 42.972 34.2391 42.163 34.2391H36.7826C36.2423 34.2391 35.8043 34.6771 35.8043 35.2174C35.8043 35.7577 36.2423 36.1957 36.7826 36.1957H41.6739V43.0435H24.0652V36.1957H28.9565C29.4969 36.1957 29.9348 35.7577 29.9348 35.2174C29.9348 34.6771 29.4969 34.2391 28.9565 34.2391H23.5761C22.7671 34.2391 22.1087 33.5807 22.1087 32.7717C22.1087 31.9628 22.7671 31.3043 23.5761 31.3043H42.163C42.972 31.3043 43.6304 31.9628 43.6304 32.7717ZM42.4722 16.6771C39.2023 17.2778 35.097 17.6087 30.913 17.6087C30.889 17.6087 30.8645 17.6083 30.8404 17.6083C30.4117 16.8654 29.8713 16.2063 29.2431 15.6522H30.1304C31.7335 15.6522 33.1134 14.6831 33.7175 13.3005C34.1982 13.5539 34.7432 13.6957 35.3152 13.6957C36.055 13.6957 36.7406 13.4587 37.3012 13.0583C37.9065 14.0273 38.9822 14.6739 40.2065 14.6739C41.4848 14.6739 42.6331 13.9563 43.2193 12.8748C46.6256 13.6188 47.8499 14.3812 48.1041 14.6949C47.8721 15.0316 46.5182 15.935 42.4722 16.6771Z" fill="#FF6726"/>
</svg>
