<svg width="60" height="60" viewBox="0 0 60 60" fill="none" xmlns="http://www.w3.org/2000/svg">
<g clip-path="url(#clip0_17730_1582)">
<path d="M35.5179 48.1641C36.166 48.1641 36.6921 47.639 36.6921 46.9922C36.6921 46.3454 36.166 45.8203 35.5179 45.8203C34.8698 45.8203 34.3438 46.3454 34.3438 46.9922C34.3438 47.639 34.8698 48.1641 35.5179 48.1641Z" fill="#FFA826"/>
<path d="M7.1042 34.1021C5.80665 34.1021 4.75586 35.1508 4.75586 36.4458C4.75586 37.7408 5.80665 38.7896 7.1042 38.7896C8.40129 38.7896 9.45253 37.7408 9.45253 36.4458C9.45253 35.1508 8.40129 34.1021 7.1042 34.1021Z" fill="#FFA826"/>
<path d="M54.3043 13.0087H51.0826C52.8737 11.2212 47.9926 16.0931 56.2155 7.8859C58.0506 6.0553 58.0529 3.08899 56.2164 1.25747C54.3822 -0.574497 51.4101 -0.576328 49.575 1.25702C48.1816 2.64725 39.13 11.6808 37.7994 13.0087H5.92944C2.69222 13.0087 0.0585938 15.6372 0.0585938 18.8677V54.0235C0.0585938 57.2544 2.69222 59.8828 5.92944 59.8828H54.3043C57.5415 59.8828 60.1751 57.2544 60.1751 54.0235V18.8677C60.1751 15.6368 57.5415 13.0087 54.3043 13.0087ZM27.4759 27.1518C27.6479 26.6364 27.9419 26.1607 28.3258 25.7781L28.3726 25.7309L31.6942 29.046L31.6478 29.0923C31.263 29.4759 30.7869 29.7693 30.27 29.941L26.0779 31.3362L27.4759 27.1518ZM26.6659 24.12C26.0247 24.76 25.5344 25.5519 25.2482 26.4107L23.2021 32.5356L21.6844 33.9482C21.2097 34.3895 21.184 35.1311 21.6261 35.6044C22.0683 36.0773 22.8113 36.1034 23.2856 35.6621L24.8354 34.2201L31.0126 32.1648C31.8731 31.8791 32.667 31.3898 33.3091 30.7489L41.6907 22.3833H50.7822V50.5078H14.1486V22.3833H28.406L26.6659 24.12ZM33.3541 27.388L30.0334 24.0738L47.9137 6.22879L51.234 9.543L33.3541 27.388ZM51.2354 2.91412C52.1408 2.01004 53.6268 1.98669 54.5556 2.91458C55.4734 3.82965 55.4743 5.31189 54.5551 6.22833L52.8948 7.88544L49.5746 4.57169L51.2354 2.91412ZM57.8268 54.0235C57.8268 55.9621 56.2467 57.5391 54.3043 57.5391H5.92944C3.98701 57.5391 2.40693 55.9621 2.40693 54.0235V18.8677C2.40693 16.9295 3.98701 15.3525 5.92944 15.3525H35.4511L30.7544 20.0395H12.974C12.3259 20.0395 11.8003 20.5646 11.8003 21.2114V51.6797C11.8003 52.327 12.3259 52.8516 12.974 52.8516H51.9559C52.6045 52.8516 53.1301 52.327 53.1301 51.6797V21.2114C53.1301 20.5646 52.6045 20.0395 51.9559 20.0395H44.0381L48.7347 15.3525H54.3043C56.2467 15.3525 57.8268 16.9295 57.8268 18.8677V54.0235Z" fill="#FFA826"/>
<path d="M40.2152 48.1641H47.2602C47.9087 48.1641 48.4344 47.6395 48.4344 46.9922V37.6177C48.4344 36.9704 47.9087 36.4458 47.2602 36.4458C46.6121 36.4458 46.086 36.9704 46.086 37.6177V45.8203H40.2152C39.5671 45.8203 39.041 46.3454 39.041 46.9922C39.041 47.6395 39.5671 48.1641 40.2152 48.1641Z" fill="#FFA826"/>
<path d="M7.10386 31.7583C7.75194 31.7583 8.27802 31.2337 8.27802 30.5864V25.8989C8.27802 25.2516 7.75194 24.7271 7.10386 24.7271C6.45531 24.7271 5.92969 25.2516 5.92969 25.8989V30.5864C5.92969 31.2337 6.45531 31.7583 7.10386 31.7583Z" fill="#FFA826"/>
<path d="M7.10386 41.1333C6.45531 41.1333 5.92969 41.6579 5.92969 42.3052V46.9922C5.92969 47.6395 6.45531 48.1641 7.10386 48.1641C7.75194 48.1641 8.27802 47.6395 8.27802 46.9922V42.3052C8.27802 41.6579 7.7524 41.1333 7.10386 41.1333Z" fill="#FFA826"/>
</g>
<defs>
<clipPath id="clip0_17730_1582">
<rect width="60" height="60" fill="white"/>
</clipPath>
</defs>
</svg>
