<svg width="80" height="80" viewBox="0 0 80 80" fill="none" xmlns="http://www.w3.org/2000/svg">
<g clip-path="url(#clip0_17795_876)">
<path d="M2.67558 32H8.00091V40.3707C7.17858 40.8432 6.67044 41.7182 6.66758 42.6667C4.45844 42.6667 2.66758 44.4575 2.66758 46.6667V48.6827C2.65932 50.452 3.82123 52.0139 5.51824 52.5147L8.00091 53.2587V77.3333H4.00091C3.26453 77.3333 2.66758 77.9303 2.66758 78.6667C2.66758 79.403 3.26453 80 4.00091 80H76.0009C76.7373 80 77.3342 79.403 77.3342 78.6667C77.3342 77.9303 76.7373 77.3333 76.0009 77.3333H72.0009V32H77.3262C78.4892 32.0012 79.5189 31.2487 79.8708 30.1402C80.2227 29.0318 79.8156 27.8231 78.8649 27.1533L65.3342 17.6V4C65.3342 1.79086 63.5434 0 61.3342 0H53.3342C51.1251 0 49.3342 1.79086 49.3342 4V6.29333L42.3076 1.33333C40.9238 0.360003 39.078 0.360003 37.6942 1.33333L1.13691 27.1533C0.186185 27.8231 -0.220839 29.0318 0.131059 30.1402C0.482957 31.2487 1.51261 32.0012 2.67558 32ZM9.33424 45.3333V42.6667H25.3342V45.3333H9.33424ZM6.28491 49.96C5.72067 49.791 5.3342 49.2717 5.33424 48.6827V46.6667C5.33424 45.9303 5.9312 45.3333 6.66758 45.3333C6.67044 46.2818 7.17858 47.1568 8.00091 47.6293V50.4747L6.28491 49.96ZM10.6676 54.0587L15.0502 55.3733C15.6145 55.5424 16.001 56.0616 16.0009 56.6507V57.3333H14.6676C13.9312 57.3333 13.3342 57.9303 13.3342 58.6667V66.6667C13.3342 68.8758 15.1251 70.6667 17.3342 70.6667C19.5434 70.6667 21.3342 68.8758 21.3342 66.6667V58.6667C21.3342 57.9303 20.7373 57.3333 20.0009 57.3333H18.6676V56.6507C18.6758 54.8813 17.5139 53.3194 15.8169 52.8187L10.6676 51.2747V48H25.3342C26.807 48 28.0009 46.8061 28.0009 45.3333V42.6667C28.0009 41.1939 26.807 40 25.3342 40H10.6676V32H29.3342V38.6667C29.3342 41.6122 31.7221 44 34.6676 44C36.1403 44 37.3342 45.1939 37.3342 46.6667V50.6667H33.3342C29.6542 50.6711 26.672 53.6533 26.6676 57.3333V77.3333H10.6676V54.0587ZM18.6676 60V66.6667C18.6676 67.403 18.0706 68 17.3342 68C16.5979 68 16.0009 67.403 16.0009 66.6667V60H18.6676ZM29.3342 77.3333V57.3333C29.3342 55.1242 31.1251 53.3333 33.3342 53.3333H46.6676C48.8767 53.3333 50.6676 55.1242 50.6676 57.3333V77.3333H29.3342ZM53.3342 77.3333V57.3333C53.3302 54.1665 51.1028 51.4379 48.0009 50.8V48C47.9993 47.2926 48.2812 46.614 48.7836 46.116C49.3327 45.5689 50.0916 45.286 50.8649 45.34C52.3049 45.5285 53.3704 46.7735 53.3342 48.2253V49.3333C53.3342 52.2789 55.7221 54.6667 58.6676 54.6667H58.7142C59.4009 54.6665 60.0592 54.94 60.5436 55.4267C61.0524 55.9303 61.3373 56.6174 61.3342 57.3333V60C61.3342 62.9455 63.7221 65.3333 66.6676 65.3333C66.8009 65.3333 66.9236 65.3333 67.0529 65.32C67.8629 65.255 68.6453 64.9962 69.3342 64.5653V77.3333H53.3342ZM69.3342 59.7747C69.3739 61.229 68.3075 62.4779 66.8649 62.6667C66.1241 62.7216 65.394 62.4651 64.8504 61.959C64.3067 61.4528 63.9989 60.7428 64.0009 60V57.3333C64.0057 55.907 63.4368 54.5386 62.4222 53.536C61.4399 52.5501 60.1047 51.9972 58.7129 52H58.6822C57.9711 51.999 57.2889 51.7178 56.7836 51.2173C56.2812 50.7193 55.9993 50.0408 56.0009 49.3333V48.2253C56.0505 45.3707 53.8985 42.9569 51.0569 42.68C49.5791 42.5738 48.1236 43.0864 47.0384 44.0952C45.9532 45.104 45.336 46.5184 45.3342 48V50.6667H40.0009V46.6667C40.0009 43.7211 37.6131 41.3333 34.6676 41.3333C33.1948 41.3333 32.0009 40.1394 32.0009 38.6667V32H69.3342V59.7747ZM52.0009 4C52.0009 3.26362 52.5979 2.66667 53.3342 2.66667H61.3342C62.0706 2.66667 62.6676 3.26362 62.6676 4V15.712L52.0009 8.17733V4ZM39.2316 3.50933C39.6927 3.18355 40.3091 3.18355 40.7702 3.50933L77.3262 29.3333H2.67558L39.2316 3.50933Z" fill="#FFA826"/>
</g>
<defs>
<clipPath id="clip0_17795_876">
<rect width="80" height="80" fill="white"/>
</clipPath>
</defs>
</svg>
