<svg width="25" height="25" viewBox="0 0 25 25" fill="none" xmlns="http://www.w3.org/2000/svg">
<g clip-path="url(#clip0_17802_1485)">
<path d="M21.7894 0.366256C21.5554 0.131053 21.237 -0.000817404 20.9052 6.25075e-06H12.3577C11.805 -0.00135123 11.2746 0.218445 10.8848 0.610423L8.75066 2.74417V1.25001C8.75066 0.55965 8.19101 6.25075e-06 7.50066 6.25075e-06H3.33399C2.64364 6.25075e-06 2.08399 0.55965 2.08399 1.25001V2.94917C1.89158 3.00192 1.7246 3.12216 1.61357 3.28792L1.04232 4.14167C0.905702 4.34719 0.833192 4.58864 0.833991 4.83542V7.50001C0.834885 7.79639 0.993678 8.06984 1.25066 8.21751V20.9492C0.993678 21.0968 0.834885 21.3703 0.833991 21.6667V23.75C0.833991 24.4404 1.39364 25 2.08399 25H22.9173C23.6077 25 24.1673 24.4404 24.1673 23.75V21.6667C24.1664 21.3703 24.0076 21.0968 23.7507 20.9492V8.21751C24.0076 8.06984 24.1664 7.79639 24.1673 7.50001V3.48542C24.1672 3.2888 24.0975 3.09856 23.9707 2.94834L21.7894 0.366256ZM2.91732 1.25001C2.91732 1.01989 3.10387 0.83334 3.33399 0.83334H7.50066C7.73078 0.83334 7.91732 1.01989 7.91732 1.25001V2.91667H6.66732V2.08334C6.66732 1.85322 6.48078 1.66667 6.25066 1.66667C6.02054 1.66667 5.83399 1.85322 5.83399 2.08334V2.91667H5.00066V2.08334C5.00066 1.85322 4.81411 1.66667 4.58399 1.66667C4.35387 1.66667 4.16732 1.85322 4.16732 2.08334V2.91667H2.91732V1.25001ZM1.66732 4.83542C1.66724 4.75324 1.6916 4.67288 1.73732 4.60459L2.30691 3.75001H8.40524C8.73708 3.75106 9.05552 3.61916 9.28941 3.38376L11.474 1.19959C11.7088 0.965808 12.0264 0.834183 12.3577 0.83334H20.9052C21.0042 0.83181 21.1004 0.865812 21.1765 0.929173L23.334 3.48542V7.50001H1.66732L1.66732 4.83542ZM22.9173 20.8333H2.08399V8.33334H22.9173V20.8333ZM23.334 23.75C23.334 23.9801 23.1474 24.1667 22.9173 24.1667H2.08399C1.85387 24.1667 1.66732 23.9801 1.66732 23.75V21.6667H23.334V23.75Z" fill="white"/>
<path d="M20.5394 2.44958C20.3054 2.21442 19.987 2.08256 19.6552 2.08333H13.2627C12.9309 2.08251 12.6126 2.21438 12.3786 2.44958L11.2002 3.62792C10.9649 3.86171 10.833 4.17997 10.834 4.51167V5C10.834 5.69036 11.3936 6.25 12.084 6.25H19.1836C19.5635 6.25096 19.9229 6.07813 20.1594 5.78083L21.1102 4.5925C21.5079 4.09509 21.4681 3.3782 21.0177 2.92792L20.5394 2.44958ZM20.459 4.07167L19.509 5.26C19.43 5.35896 19.3102 5.41661 19.1836 5.41667H12.084C11.8539 5.41667 11.6673 5.23012 11.6673 5V4.51167C11.6678 4.40125 11.7116 4.29544 11.7894 4.21708L12.9677 3.03875C13.046 2.9605 13.1521 2.91658 13.2627 2.91667H19.6552C19.7659 2.91658 19.872 2.9605 19.9502 3.03875L20.4286 3.51708C20.5784 3.66725 20.5915 3.90602 20.459 4.07167Z" fill="white"/>
<path d="M5.41732 20H19.584C20.0442 20 20.4173 19.6269 20.4173 19.1667V10C20.4173 9.53976 20.0442 9.16667 19.584 9.16667H5.41732C4.95708 9.16667 4.58398 9.53976 4.58398 10V19.1667C4.58398 19.6269 4.95708 20 5.41732 20ZM5.41732 10H19.584V19.1667H5.41732V10Z" fill="white"/>
<path d="M15.8333 14.1667H13.6733C13.6223 14.0241 13.5456 13.8921 13.4471 13.7771L14.5275 11.9042C14.6422 11.7054 14.5746 11.4513 14.3762 11.3358C13.2118 10.6783 11.7882 10.6783 10.6237 11.3358C10.4254 11.4513 10.3578 11.7054 10.4725 11.9042L11.5529 13.7771C11.4544 13.8921 11.3777 14.0241 11.3267 14.1667H9.16667C8.93655 14.1667 8.75 14.3532 8.75 14.5833C8.75146 15.9233 9.4657 17.1613 10.625 17.8333C10.6883 17.8699 10.7602 17.8892 10.8333 17.8892C10.8698 17.889 10.906 17.8843 10.9413 17.875C11.048 17.8464 11.1389 17.7765 11.1942 17.6808L12.2725 15.8121C12.4226 15.8426 12.5774 15.8426 12.7275 15.8121L13.8058 17.6808C13.8611 17.7765 13.952 17.8464 14.0588 17.875C14.0941 17.8837 14.1303 17.8879 14.1667 17.8875C14.2398 17.8875 14.3117 17.8682 14.375 17.8317C15.5338 17.16 16.248 15.9227 16.25 14.5833C16.25 14.3532 16.0635 14.1667 15.8333 14.1667ZM13.5833 11.875L12.7279 13.3575C12.5778 13.3269 12.423 13.3269 12.2729 13.3575L11.4167 11.875C12.1131 11.6023 12.8869 11.6023 13.5833 11.875ZM10.6962 16.875C10.1091 16.4111 9.72155 15.7403 9.61292 15H11.3263C11.3773 15.1426 11.454 15.2746 11.5525 15.3896L10.6962 16.875ZM12.0833 14.5833C12.0833 14.3532 12.2699 14.1667 12.5 14.1667C12.7301 14.1667 12.9167 14.3532 12.9167 14.5833C12.9167 14.8135 12.7301 15 12.5 15C12.2699 15 12.0833 14.8135 12.0833 14.5833ZM14.3042 16.875L13.4471 15.3892C13.5456 15.2743 13.6222 15.1424 13.6733 15H15.3867C15.2782 15.7402 14.891 16.411 14.3042 16.875Z" fill="white"/>
</g>
<defs>
<clipPath id="clip0_17802_1485">
<rect width="25" height="25" fill="white"/>
</clipPath>
</defs>
</svg>
