<svg width="60" height="52" viewBox="0 0 60 52" fill="none" xmlns="http://www.w3.org/2000/svg">
<path d="M55.1838 3.60214C54.6927 1.53946 52.8355 0 50.6245 0H9.37502C7.16448 0 5.3078 1.539 4.81616 3.60168C2.15839 4.02786 0.405153 6.05438 0.0531327 9.19968C0.00735641 9.61121 -0.0343001 10.285 0.043062 10.6911C0.0952469 17.4339 3.66626 24.381 8.18392 29.3092L9.22121 48.2767C9.22121 48.2835 9.22167 48.2899 9.22213 48.2964C9.35351 50.1274 10.8939 51.562 12.7291 51.562H47.0366C48.9377 51.562 50.6506 50.0665 50.7774 48.2964C50.7779 48.2899 50.7783 48.2831 50.7788 48.2767C50.8781 46.7638 51.665 32.0998 51.7538 30.4454C56.5127 25.6018 59.8352 18.501 59.9981 10.2292C60.059 7.13791 58.5022 4.13406 55.1838 3.60214ZM9.37502 2.34375H50.6245C51.8349 2.34375 52.8341 3.26614 52.9555 4.4458C52.923 4.60373 52.922 4.76578 52.9559 4.92737C52.8351 6.10748 51.8353 7.03125 50.6245 7.03125H44.062C42.1234 7.03125 40.5464 8.60825 40.5464 10.5469V19.9219C40.5464 20.5678 40.0209 21.0938 39.3745 21.0938C38.7286 21.0938 38.2027 20.5678 38.2027 19.9219V17.5781C38.2027 15.6395 36.6257 14.0625 34.687 14.0625C32.7489 14.0625 31.1714 15.6395 31.1714 17.5781V22.2656C31.1714 22.9115 30.6459 23.4375 29.9995 23.4375C29.3536 23.4375 28.8277 22.9115 28.8277 22.2656V15.2344C28.8277 13.2957 27.2507 11.7188 25.3125 11.7188C23.3739 11.7188 21.7969 13.2957 21.7969 15.2344V17.5781C21.7969 18.224 21.2709 18.75 20.625 18.75C19.9786 18.75 19.4531 18.224 19.4531 17.5781V10.5469C19.4531 8.60825 17.8761 7.03125 15.9375 7.03125H9.37502C8.18667 7.03125 7.17364 6.13953 7.04592 4.93744C7.08117 4.77493 7.08392 4.61014 7.04547 4.43527C7.17181 3.26111 8.1679 2.34375 9.37502 2.34375ZM39.8868 34.4655C39.0431 33.2968 37.522 32.7338 36.0397 33.1526C34.08 33.7042 32.048 33.9839 30 33.9839C27.952 33.9839 25.92 33.7042 23.9598 33.1526C22.4936 32.7397 20.9931 33.2831 20.1407 34.427C16.9277 33.6246 13.5356 31.4868 10.4773 28.3282L9.44094 9.375H15.9375C16.5839 9.375 17.1094 9.90051 17.1094 10.5469V17.5777C17.1094 19.5163 18.6864 21.0933 20.625 21.0933C22.5636 21.0933 24.1406 19.5163 24.1406 17.5777V15.2339C24.1406 14.588 24.6661 14.062 25.3125 14.062C25.9584 14.062 26.4844 14.588 26.4844 15.2339V22.2652C26.4844 24.2038 28.0614 25.7808 30 25.7808C31.9382 25.7808 33.5156 24.2038 33.5156 22.2652V17.5777C33.5156 16.9318 34.0411 16.4058 34.6875 16.4058C35.3334 16.4058 35.8594 16.9318 35.8594 17.5777V19.9214C35.8594 21.86 37.4364 23.437 39.3745 23.437C41.3132 23.437 42.8902 21.86 42.8902 19.9214V10.5469C42.8902 9.90051 43.4161 9.375 44.062 9.375H50.5586L49.4632 29.4113C46.6511 32.0645 43.3612 33.7999 39.8868 34.4655ZM21.8569 36.1409C22.0459 35.5756 22.6676 35.2235 23.3249 35.4085C25.491 36.0187 27.7368 36.3277 29.9995 36.3277C32.2623 36.3277 34.5081 36.0187 36.676 35.408C37.4419 35.1915 38.2027 35.7179 38.2027 36.5163C38.2027 37.0418 37.8781 37.5018 37.4135 37.635C35.0134 38.3226 32.5191 38.6714 29.9995 38.6714C27.4805 38.6714 24.9861 38.3226 22.5861 37.635C21.9685 37.4583 21.655 36.7374 21.8569 36.1409ZM2.34561 10.2411C2.32455 9.74487 2.42297 7.95776 3.39984 6.85181C3.78619 6.41418 4.27188 6.12534 4.86834 5.97748C5.20388 7.15347 5.98849 8.15872 7.06057 8.76526L7.96923 25.388C1.92126 17.3438 2.46326 10.676 2.34561 10.2411ZM47.0361 49.2183H12.7291C12.1198 49.2183 11.608 48.744 11.5604 48.1371L11.4913 46.8745H25.6229C26.2701 46.8745 26.7947 46.3499 26.7947 45.7027C26.7947 45.0554 26.2701 44.5308 25.6229 44.5308H11.3631L10.6636 31.7377C13.4871 34.2064 16.5189 35.9111 19.4595 36.6714C19.5245 38.1725 20.5248 39.4826 21.9406 39.8882C24.5508 40.6361 27.2621 41.0152 29.9995 41.0152C32.7374 41.0152 35.4488 40.6361 38.0589 39.8882C39.4578 39.4876 40.4517 38.204 40.5382 36.725C43.656 36.0928 46.6278 34.7035 49.286 32.6445L48.636 44.5308H34.687C34.0398 44.5308 33.5152 45.0558 33.5152 45.7027C33.5152 46.3499 34.0398 46.8745 34.687 46.8745H48.5083L48.4392 48.1366C48.3938 48.6836 47.7022 49.2183 47.0361 49.2183ZM57.6539 10.2411C57.5459 10.6403 58.0494 18.8072 51.9612 26.6515L52.9394 8.76205C53.9914 8.16147 54.7893 7.16492 55.1303 5.97702C55.7272 6.12442 56.2134 6.41373 56.5997 6.85181C57.5761 7.95776 57.675 9.74487 57.6539 10.2411Z" fill="#FFA826"/>
</svg>
