<svg width="27" height="27" viewBox="0 0 27 27" fill="none" xmlns="http://www.w3.org/2000/svg">
<path d="M13.5 0C7.91775 0 3.375 4.57425 3.375 10.1981C3.375 18.189 12.5483 26.4397 12.9386 26.7862C13.0995 26.9291 13.2998 27 13.5 27C13.7002 27 13.9005 26.9291 14.0614 26.7874C14.4517 26.4398 23.625 18.189 23.625 10.1981C23.625 4.57425 19.0822 0 13.5 0ZM13.5 15.75C10.3984 15.75 7.875 13.2266 7.875 10.125C7.875 7.02338 10.3984 4.5 13.5 4.5C16.6016 4.5 19.125 7.02338 19.125 10.125C19.125 13.2266 16.6016 15.75 13.5 15.75Z" fill="white"/>
</svg>
