<svg width="134" height="56" viewBox="0 0 134 56" fill="none" xmlns="http://www.w3.org/2000/svg">
<path d="M67.876 18.4C70.424 18.4 72.3653 18.946 73.7 20.038C75.0347 21.13 75.702 22.7447 75.702 24.882C75.702 26.254 75.3893 27.444 74.764 28.452C74.148 29.4507 73.2473 30.2207 72.062 30.762C70.886 31.3033 69.472 31.574 67.82 31.574H65.02L65.076 37.734C65.076 37.9113 64.992 38 64.824 38H60.008C59.84 38 59.756 37.9113 59.756 37.734L59.882 28.326L59.756 18.652C59.756 18.484 59.84 18.4 60.008 18.4H67.876ZM67.778 27.878C68.6553 27.878 69.3553 27.6447 69.878 27.178C70.4007 26.702 70.662 25.9693 70.662 24.98C70.662 24.0093 70.4007 23.286 69.878 22.81C69.3647 22.3247 68.6273 22.082 67.666 22.082H65.048L64.992 27.878H67.778ZM80.7829 31.84C80.8669 33.0067 81.1236 33.8373 81.5529 34.332C81.9916 34.8267 82.6169 35.074 83.4289 35.074C84.6329 35.074 85.4029 34.5 85.7389 33.352C85.7762 33.2027 85.8696 33.128 86.0189 33.128H90.3309C90.4149 33.128 90.4802 33.1467 90.5269 33.184C90.5829 33.212 90.6062 33.2493 90.5969 33.296C90.4569 34.1733 90.0836 35.004 89.4769 35.788C88.8796 36.5627 88.0629 37.1927 87.0269 37.678C85.9909 38.154 84.7916 38.392 83.4289 38.392C81.8516 38.392 80.4842 38.0747 79.3269 37.44C78.1696 36.8053 77.2829 35.9187 76.6669 34.78C76.0602 33.6413 75.7569 32.3253 75.7569 30.832C75.7569 29.3013 76.0649 27.9573 76.6809 26.8C77.3062 25.6427 78.1836 24.7513 79.3129 24.126C80.4422 23.5007 81.7582 23.188 83.2609 23.188C85.7062 23.188 87.5822 23.9113 88.8889 25.358C90.2049 26.7953 90.8862 28.8673 90.9329 31.574C90.9329 31.7513 90.8489 31.84 90.6809 31.84H80.7829ZM83.3729 26.408C82.7009 26.408 82.1549 26.6087 81.7349 27.01C81.3242 27.4113 81.0396 28.0553 80.8809 28.942H85.6829C85.6362 28.2047 85.4122 27.598 85.0109 27.122C84.6189 26.646 84.0729 26.408 83.3729 26.408ZM106.414 31.882L106.498 37.734C106.498 37.9113 106.409 38 106.232 38H101.626C101.458 38 101.374 37.9113 101.374 37.734L101.444 31.882V29.068C101.444 28.3867 101.28 27.8547 100.954 27.472C100.636 27.0893 100.212 26.898 99.6796 26.898C99.1756 26.898 98.7183 27.0753 98.3076 27.43C97.897 27.7753 97.5703 28.284 97.3276 28.956C97.085 29.628 96.9636 30.4353 96.9636 31.378V31.91L97.0336 37.734C97.0336 37.9113 96.945 38 96.7676 38H92.1476C91.9796 38 91.8956 37.9113 91.8956 37.734L91.9656 30.902L91.9516 23.832C91.9516 23.664 92.0403 23.58 92.2176 23.58H96.5436C96.7116 23.58 96.7956 23.6687 96.7956 23.846L96.7256 25.33C97.2016 24.6487 97.841 24.1307 98.6436 23.776C99.4463 23.4213 100.328 23.244 101.29 23.244C102.354 23.244 103.268 23.468 104.034 23.916C104.808 24.364 105.396 24.9987 105.798 25.82C106.208 26.6413 106.414 27.6027 106.414 28.704V31.882ZM113.997 38.308C113.026 38.308 112.149 38.14 111.365 37.804C110.59 37.468 109.965 36.936 109.489 36.208C109.022 35.48 108.789 34.556 108.789 33.436L108.817 28.662L108.831 27.094H107.207C107.029 27.094 106.941 27.0053 106.941 26.828V23.832C106.941 23.7573 106.964 23.6967 107.011 23.65C107.057 23.6033 107.123 23.58 107.207 23.58H108.817L108.803 20.22C108.803 20.052 108.887 19.968 109.055 19.968H113.563C113.74 19.968 113.829 20.052 113.829 20.22L113.801 23.58H116.965C117.039 23.58 117.1 23.6033 117.147 23.65C117.193 23.6967 117.217 23.7573 117.217 23.832V26.828C117.217 26.912 117.193 26.9773 117.147 27.024C117.1 27.0707 117.039 27.094 116.965 27.094H113.801V28.69L113.829 33.184C113.829 33.772 113.95 34.1827 114.193 34.416C114.445 34.64 114.79 34.752 115.229 34.752C115.751 34.752 116.302 34.668 116.881 34.5C116.899 34.4907 116.932 34.486 116.979 34.486C117.109 34.486 117.175 34.5653 117.175 34.724V37.426C117.175 37.5847 117.109 37.6827 116.979 37.72C115.924 38.112 114.93 38.308 113.997 38.308ZM123.269 38.336C122.205 38.336 121.286 38.1073 120.511 37.65C119.736 37.1927 119.144 36.544 118.733 35.704C118.332 34.8547 118.131 33.8653 118.131 32.736V29.698L118.061 23.832C118.061 23.664 118.145 23.58 118.313 23.58H122.919C123.087 23.58 123.171 23.664 123.171 23.832L123.087 29.698V32.624C123.087 33.2587 123.246 33.7627 123.563 34.136C123.89 34.5 124.319 34.682 124.851 34.682C125.318 34.682 125.756 34.5327 126.167 34.234C126.578 33.926 126.914 33.436 127.175 32.764C127.436 32.092 127.567 31.2333 127.567 30.188V29.656L127.525 23.832C127.525 23.664 127.609 23.58 127.777 23.58H132.411C132.579 23.58 132.663 23.664 132.663 23.832L132.579 30.678L132.593 37.734C132.593 37.9113 132.509 38 132.341 38H128.015C127.847 38 127.763 37.9113 127.763 37.734L127.833 36.25C127.32 36.9407 126.671 37.4633 125.887 37.818C125.103 38.1633 124.23 38.336 123.269 38.336Z" fill="#160A05"/>
<path d="M43.0548 10.016L27.5817 1.08047C25.0834 -0.360158 22.0107 -0.360158 19.5124 1.08047L4.03924 10.016C1.54093 11.4567 0 14.1282 0 17.0095V34.8806C0 37.7619 1.54093 40.4243 4.03924 41.874L17.6614 49.7428C17.8164 48.5757 18.09 47.4907 18.327 46.4512C18.6553 45.0562 18.9197 43.7523 18.9562 42.4667L8.3429 36.3303C7.4767 35.8289 6.94786 34.9079 6.94786 33.9141V17.976C6.94786 16.9821 7.4767 16.0612 8.3429 15.5597L23.5425 6.77917L38.7421 15.5597C39.6083 16.0612 40.1371 16.9821 40.1371 17.976V33.9141C40.1371 34.9079 39.6083 35.8289 38.7421 36.3303L28.1197 42.4576C28.1653 43.7432 28.4206 45.0471 28.7488 46.4421C28.9859 47.4816 29.2594 48.5575 29.4144 49.7337L43.0366 41.8649C45.5349 40.4243 47.0758 37.7619 47.0758 34.8715V17.0004C47.0849 14.1282 45.5531 11.4567 43.0548 10.016Z" fill="#FFA826"/>
<path d="M33.0245 16.2708L28.2832 13.5354V24.1851H32.1492C32.6325 24.1851 33.0245 23.7931 33.0245 23.3098V16.2708Z" fill="#FF6726"/>
<path d="M28.2862 24.1761V13.5264L23.5449 10.791V24.1761H28.2862Z" fill="#FF6726"/>
<path d="M18.7999 13.5264L14.0586 16.2617V23.3008C14.0586 23.784 14.4507 24.1761 14.9339 24.1761H18.7999V13.5264Z" fill="#FF6726"/>
<path d="M23.5421 24.1761V10.791L18.8008 13.5264V24.1761H23.5421Z" fill="#FF6726"/>
<path d="M23.5412 30.7139H14.0586V32.6833C14.0586 33.3034 14.5054 33.8322 15.1163 33.9416C17.0766 34.3063 21.125 35.6649 21.6812 40.7527C22.3286 46.6246 18.3805 51.1471 21.5809 55.0769C22.5839 56.3079 24.4986 56.3079 25.5016 55.0769C28.702 51.1471 24.7539 46.6337 25.4013 40.7527C25.9575 35.6649 30.0058 34.2972 31.9662 33.9416C32.5771 33.8322 33.0239 33.3034 33.0239 32.6833V30.7139H23.5412Z" fill="#FF6726"/>
<path d="M32.1486 24.9878H14.9339C14.4507 24.9878 14.0586 25.3799 14.0586 25.8631V29.9024H33.0239V25.8631C33.0239 25.3799 32.6318 24.9878 32.1486 24.9878Z" fill="#FF6726"/>
</svg>
