<svg width="24" height="24" viewBox="0 0 24 24" fill="none" xmlns="http://www.w3.org/2000/svg">
<path d="M3.34476 2.12219H8.23349L10.6779 8.23331L7.62239 10.0666C8.9313 12.7207 11.0793 14.8688 13.7333 16.1778L15.5666 13.1222L21.6775 15.5667V20.4556C21.6775 21.1039 21.42 21.7256 20.9616 22.184C20.5031 22.6425 19.8814 22.9 19.2331 22.9C14.4657 22.6103 9.96917 20.5857 6.59189 17.2083C3.2146 13.8309 1.19011 9.33421 0.900391 4.56664C0.900391 3.91833 1.15792 3.29658 1.61633 2.83815C2.07474 2.37973 2.69647 2.12219 3.34476 2.12219Z" stroke="white" stroke-width="1.8" stroke-linecap="round" stroke-linejoin="round"/>
<path d="M15.5664 5.7887C16.2147 5.7887 16.8364 6.04624 17.2948 6.50466C17.7532 6.96308 18.0108 7.58484 18.0108 8.23314" stroke="white" stroke-width="1.8" stroke-linecap="round" stroke-linejoin="round"/>
<path d="M15.5664 0.900024C17.5113 0.900024 19.3765 1.67264 20.7517 3.04791C22.1269 4.42318 22.8995 6.28844 22.8995 8.23337" stroke="white" stroke-width="1.8" stroke-linecap="round" stroke-linejoin="round"/>
</svg>
