<svg width="45" height="45" viewBox="0 0 45 45" fill="none" xmlns="http://www.w3.org/2000/svg">
<path d="M43.875 15.0213C43.875 16.0003 43.6031 17.7408 43.0048 19.2094C42.5697 20.2972 41.4275 20.9498 40.2853 20.841L33.5954 20.0795C32.1813 19.9164 31.2023 18.6655 31.3111 17.3057C31.4199 15.8916 31.4742 14.9125 31.4742 14.6406C31.4742 12.3563 27.4494 11.2685 22.5 11.2685C17.5506 11.2685 13.5258 12.3563 13.5258 14.6406C13.5258 14.9125 13.5801 15.8916 13.6889 17.3057C13.7977 18.7198 12.7643 19.9164 11.4046 20.0795L4.71468 20.841C3.51811 20.9498 2.43032 20.2972 1.99522 19.2094C1.45132 17.7408 1.125 16.0003 1.125 15.0213C1.125 9.63679 10.6431 5.28564 22.4456 5.28564C34.2481 5.28564 43.7662 9.63679 43.875 15.0213Z" fill="#160A05"/>
<path d="M38.8712 24.757C38.5612 24.2076 38.0119 23.8433 37.3919 23.7725L33.2691 23.2885C30.4409 22.9621 28.4285 20.5146 28.646 17.6863C28.6569 17.4471 28.6732 17.2294 28.6841 17.0228C28.7439 16.0764 28.1239 15.2171 27.2047 14.9995C26.1387 14.7439 24.5832 14.5317 22.5001 14.5317C20.4006 14.5317 18.8451 14.733 17.7736 14.9832C16.8273 15.2062 16.1963 16.0982 16.2942 17.0663C16.3105 17.2621 16.3323 17.4633 16.3541 17.6863C16.5716 20.5146 14.5592 22.9621 11.731 23.2885L7.50491 23.7834C6.93928 23.8486 6.43346 24.1532 6.11255 24.621L6.0201 24.757C4.44279 27.5852 3.62695 28.6186 3.62695 31.8819V36.7226C3.62695 38.3543 4.93231 39.714 6.61837 39.714H38.273C39.9046 39.714 41.2644 38.4087 41.2644 36.7226V31.8819C41.2644 28.6186 40.4485 27.5852 38.8712 24.757ZM22.4457 36.4616C18.7744 36.4616 15.7938 33.4865 15.7938 29.8097C15.7938 26.1385 18.7744 23.1634 22.4457 23.1634C26.117 23.1634 29.0975 26.1385 29.0975 29.8097C29.0975 33.4865 26.117 36.4616 22.4457 36.4616Z" fill="#160A05"/>
</svg>
