<svg width="24" height="24" viewBox="0 0 24 24" fill="none" xmlns="http://www.w3.org/2000/svg">
<g clip-path="url(#clip0_17971_3956)">
<path d="M23.3489 17.6136L19.9997 14.2643C18.8035 13.0681 16.77 13.5467 16.2915 15.1016C15.9327 16.1782 14.7365 16.7763 13.66 16.537C11.2676 15.9389 8.03797 12.8289 7.43989 10.317C7.08104 9.24036 7.79874 8.04419 8.87529 7.68538C10.4303 7.20691 10.9088 5.17343 9.71261 3.97726L6.36334 0.627989C5.4064 -0.209329 3.971 -0.209329 3.13368 0.627989L0.860962 2.90071C-1.41176 5.29305 1.1002 11.6327 6.72219 17.2547C12.3442 22.8767 18.6839 25.5083 21.0762 23.116L23.3489 20.8432C24.1863 19.8863 24.1863 18.4509 23.3489 17.6136Z" fill="white"/>
</g>
<defs>
<clipPath id="clip0_17971_3956">
<rect width="24" height="24" fill="white"/>
</clipPath>
</defs>
</svg>
