<svg width="25" height="25" viewBox="0 0 25 25" fill="none" xmlns="http://www.w3.org/2000/svg">
<circle cx="12.5" cy="12.5" r="12.5" fill="#FFA826"/>
<path d="M11.5261 8.4733V11.5227H8.47672C7.93725 11.5227 7.5 11.96 7.5 12.4994C7.5 13.0389 7.93725 13.4761 8.47672 13.4761H11.5261V16.5255C11.5261 17.065 11.9634 17.5023 12.5028 17.5023C13.0423 17.5023 13.4739 17.065 13.4739 16.5255V13.4761H16.5233C17.0627 13.4761 17.5 13.0389 17.5 12.4994C17.5 11.96 17.0627 11.5227 16.5233 11.5227H13.4739V8.4733C13.4739 7.93383 13.0366 7.49658 12.5028 7.49658C11.9691 7.49658 11.5261 7.93383 11.5261 8.4733Z" fill="white"/>
</svg>
