<svg width="55" height="50" viewBox="0 0 55 50" fill="none" xmlns="http://www.w3.org/2000/svg">
<path d="M24.781 29.998V2.60852C24.781 1.17384 23.6071 0 22.1725 0H2.60852C1.17384 0 0 1.17384 0 2.60852V22.1725C0 23.6071 1.17384 24.781 2.60852 24.781H13.9556C14.2165 26.9982 14.7382 32.8674 11.7384 39.1279C8.86898 45.1275 4.56492 48.2577 2.60852 49.5619C3.78236 49.8228 10.6949 51.2575 16.9554 46.9534C25.4331 41.0842 24.781 30.3893 24.781 29.998Z" fill="white"/>
<path d="M54.7771 29.998V2.60852C54.7771 1.17384 53.6032 0 52.1685 0H32.6046C31.1699 0 29.9961 1.17384 29.9961 2.60852V22.1725C29.9961 23.6071 31.1699 24.781 32.6046 24.781H43.9517C44.2126 26.9982 44.7343 32.8674 41.7345 39.1279C38.8651 45.1275 34.561 48.2577 32.6046 49.5619C33.7785 49.8228 40.691 51.2575 46.9515 46.9534C55.4292 41.0842 54.7771 30.3893 54.7771 29.998Z" fill="white"/>
</svg>
