<svg width="28" height="28" viewBox="0 0 28 28" fill="none" xmlns="http://www.w3.org/2000/svg">
<path d="M27.1455 1.63697C26.8253 1.06335 26.1004 0.862838 25.5303 1.18302L1.44371 14.6885C1.14462 14.8503 0.915881 15.1107 0.792729 15.4274C0.514768 16.1558 0.877179 16.9721 1.60557 17.2501L7.40465 19.4952L18.4152 10.135C18.5243 10.0365 18.665 9.98371 18.8093 9.98019C18.9501 9.98019 19.0838 10.0294 19.1929 10.114C19.4603 10.3286 19.5061 10.7192 19.2949 10.9866L9.76584 22.912V25.5406V25.5477C9.76936 26.3359 10.4133 26.9728 11.2015 26.9693C11.5605 26.9658 11.9018 26.8286 12.1586 26.5787L16.1174 22.8769L23.1868 25.604C23.3135 25.6532 23.4472 25.6849 23.5809 25.699C24.3832 25.7729 25.0905 25.1817 25.1644 24.3795L27.2933 2.3337C27.3179 2.09092 27.2652 1.84805 27.1455 1.63697Z" fill="white"/>
</svg>
