<svg width="35" height="35" viewBox="0 0 35 35" fill="none" xmlns="http://www.w3.org/2000/svg">
<path fill-rule="evenodd" clip-rule="evenodd" d="M21.0314 31.8027C21.0314 30.593 20.0508 29.6124 18.8411 29.6124H16.1589C15.578 29.6124 15.0209 29.8431 14.6101 30.2539C14.1993 30.6647 13.9686 31.2218 13.9686 31.8027C13.9686 33.0124 14.9492 33.9931 16.1589 33.9931H18.8411C20.0508 33.9931 21.0314 33.0124 21.0314 31.8027ZM4.60476 26.1547C4.97062 26.1826 5.41324 26.1987 5.85785 26.1727C6.09472 27.3739 6.68315 28.488 7.5615 29.3664C8.72758 30.5324 10.3091 31.1875 11.9581 31.1875H12.7939C12.757 31.3892 12.7381 31.595 12.7381 31.8027C12.7381 32.0128 12.757 32.2185 12.7933 32.418H11.9581C9.98272 32.418 8.08821 31.6333 6.69143 30.2365C5.5771 29.1221 4.85229 27.691 4.60476 26.1547ZM3.97886 24.8454C3.0074 24.6816 2.10342 24.2198 1.39774 23.514C0.502783 22.6191 0 21.4052 0 20.1395V17.2313C0 15.9656 0.502783 14.7518 1.39774 13.8568C2.29271 12.9619 3.50656 12.459 4.77224 12.459H5.0899C5.59768 6.04991 10.9599 1.00684 17.5 1.00684C24.0401 1.00684 29.4023 6.04991 29.9101 12.459H30.2278C31.4934 12.459 32.7073 12.9619 33.6023 13.8568C34.4972 14.7518 35 15.9656 35 17.2313V20.1395C35 21.4052 34.4972 22.6191 33.6023 23.514C32.7073 24.409 31.4934 24.9118 30.2278 24.9118H28.8195C28.2354 24.9118 27.762 24.4383 27.762 23.8543V13.4563C27.762 7.78877 23.1675 3.19434 17.5 3.19434C11.8325 3.19434 7.23803 7.78877 7.23803 13.4563V23.8543C7.23803 24.2667 7.00198 24.624 6.65759 24.7984C5.70958 25.1273 4.23938 24.8893 3.97886 24.8454Z" fill="white"/>
</svg>
